<?xml version="1.0" encoding="UTF-8"?>
<svg xmlns="http://www.w3.org/2000/svg" version="1.1" viewBox="0 0 3119.9 1999.5">
  <defs>
    <style>
      .cls-1 {
        fill: #4eba6f;
      }

      .cls-2 {
        fill: #010101;
      }

      .cls-3 {
        fill: #3d5059;
      }

      .cls-4 {
        fill: #f7941d;
      }

      .cls-5 {
        fill: #263238;
      }

      .cls-6 {
        fill: #f47521;
      }

      .cls-7 {
        fill: #fff;
      }

      .cls-8 {
        fill: #b993c4;
      }

      .cls-9 {
        fill: #c0bfbf;
      }

      .cls-10 {
        fill: #878787;
      }

      .cls-11 {
        fill: #8fd8f8;
      }

      .cls-12 {
        fill: #afd281;
      }

      .cls-13 {
        fill: #3f525c;
      }

      .cls-14 {
        fill: #3772a4;
      }

      .cls-15 {
        fill: #f5f5f5;
      }

      .cls-16 {
        fill: #d4d4d4;
      }

      .cls-17 {
        fill: #ffd645;
      }

      .cls-18 {
        fill: #f68c6c;
      }

      .cls-19 {
        fill: #13191c;
      }

      .cls-20 {
        fill: #e8e8e8;
      }
    </style>
  </defs>
  <!-- Generator: Adobe Illustrator 28.6.0, SVG Export Plug-In . SVG Version: 1.2.0 Build 709)  -->
  <g>
    <g id="Layer_2">
      <g id="laptop">
        <path class="cls-2" d="M353.6,188.3h2388.9c48,0,87,39,87,87v1560.7c0,48-39,87-87,87H353.6c-48,0-87-39-87-87V275.3c0-48,39-87,87-87Z"/>
        <path class="cls-9" d="M.2,1967.8s-6.8,31.7,203,31.7h2789.4s108.3.8,126.7-31.1v-40.5H0l.2,39.8H.2Z"/>
        <rect class="cls-20" x=".7" y="1907.3" width="3119.3" height="61.1"/>
        <rect class="cls-5" x="341.5" y="268.4" width="2412.9" height="1575.5"/>
        <path class="cls-9" d="M1838.8,1922.6c0,8.4-6.8,15.3-15.3,15.3h-526.4c-8.4,0-15.3-6.8-15.3-15.3h0c0-8.4,6.8-15.3,15.3-15.3h526.4c8.4,0,15.3,6.8,15.3,15.3h0Z"/>
      </g>
      <g id="text-editor">
        <rect class="cls-3" x="340.9" y="306.2" width="68.9" height="1575.5"/>
        <rect class="cls-19" x="409.9" y="306.2" width="2344" height="68.9"/>
        <g>
          <rect class="cls-13" x="409.9" y="306.2" width="524.3" height="68.9"/>
          <rect class="cls-1" x="409.9" y="306.2" width="21.4" height="68.9"/>
        </g>
        <g>
          <rect class="cls-5" x="932.3" y="306.2" width="370.2" height="68.9"/>
          <rect class="cls-4" x="932.3" y="306.2" width="21.3" height="68.9"/>
        </g>
        <rect class="cls-10" x="2663.3" y="314.5" width="80.1" height="60.6"/>
        <rect class="cls-10" x="2572.9" y="314.5" width="80.1" height="60.6"/>
        <rect class="cls-10" x="2480.1" y="314.5" width="80.1" height="60.6"/>
        <path class="cls-7" d="M2709.1,361.8l-2.8-5.1c-1.1-2-1.8-3.4-2.6-4.9h-.1c-.6,1.5-1.3,2.9-2.3,4.9l-2.6,5.1h-5.4l7.6-13-7.3-12.7h5.4l2.8,5.3c.8,1.6,1.4,2.9,2.1,4.3h0c.7-1.6,1.2-2.8,2-4.3l2.8-5.3h5.4l-7.5,12.6,7.8,13.2h-5.4Z"/>
        <rect class="cls-16" x="2596.6" y="331.5" width="30.3" height="21.4"/>
        <rect class="cls-7" x="2587.8" y="338.9" width="30.3" height="21.4"/>
        <rect class="cls-7" x="2503.8" y="342.2" width="32.7" height="7.4"/>
      </g>
      <g>
        <path class="cls-8" d="M501.8,562.4h-10.8v-5.4h28v5.4h-10.8v36h10.8v5.4h-28v-5.4h10.8v-36Z"/>
        <path class="cls-8" d="M561.2,603.8h-8.3l-13.6-29.2-3.9-9.4v38.5h-5.9v-46.8h8.2l13,27.6,4.7,10.7v-38.3h5.9v46.8h0Z"/>
        <path class="cls-8" d="M601,591.1c0,2.2-.5,4.2-1.4,5.8-.9,1.7-2.2,3.1-3.8,4.2s-3.6,1.9-5.8,2.5c-2.3.5-4.8.8-7.5.8s-2.5,0-3.7-.1c-1.2,0-2.4-.2-3.5-.4-1.1-.1-2.2-.3-3.2-.5s-1.9-.4-2.7-.6v-6.2c1.8.7,3.8,1.2,6,1.6,2.2.4,4.8.6,7.6.6s3.8-.2,5.2-.5,2.6-.8,3.5-1.4,1.6-1.4,2-2.3.6-1.9.6-3.1-.3-2.3-1.1-3.2-1.6-1.7-2.8-2.4-2.5-1.3-3.9-1.9-3-1.2-4.5-1.8c-1.5-.6-3-1.3-4.5-2-1.5-.7-2.8-1.6-3.9-2.6s-2.1-2.2-2.8-3.5c-.7-1.3-1-2.9-1-4.8s.3-3.2,1-4.7,1.7-2.9,3.1-4.1c1.4-1.2,3.2-2.2,5.4-2.9,2.2-.7,4.8-1.1,7.9-1.1s1.6,0,2.6.1,1.8.2,2.8.3,1.9.3,2.8.5,1.8.3,2.6.5v5.7c-1.8-.5-3.7-.9-5.5-1.2s-3.6-.4-5.3-.4c-3.7,0-6.3.6-8,1.8-1.7,1.2-2.6,2.8-2.6,4.9s.3,2.3,1.1,3.2c.7.9,1.6,1.7,2.8,2.4s2.5,1.4,3.9,2,3,1.2,4.5,1.8,3,1.3,4.5,2,2.8,1.6,3.9,2.6c1.1,1,2.1,2.2,2.8,3.6s1,3,1,4.8h0Z"/>
        <path class="cls-8" d="M639.4,603.8h-26.6v-46.8h26.6v5.4h-20.2v14.5h19.4v5.4h-19.4v16.1h20.2v5.4h0Z"/>
        <path class="cls-8" d="M683.5,603.8h-7.2l-7-15c-.5-1.1-1.1-2.1-1.6-2.8s-1.1-1.3-1.8-1.8-1.3-.8-2.1-1-1.6-.3-2.5-.3h-3v20.8h-6.4v-46.8h12.5c2.7,0,5,.3,7,.9,2,.6,3.6,1.4,4.8,2.5s2.2,2.4,2.8,3.9.9,3.2.9,5-.2,2.8-.6,4.1-1.1,2.5-1.9,3.5c-.8,1.1-1.9,2-3.2,2.8-1.2.8-2.7,1.3-4.3,1.7,1.3.5,2.4,1.2,3.3,2.4.9,1.1,1.8,2.6,2.8,4.5l7.4,15.4h0ZM673.3,569.9c0-2.5-.8-4.4-2.3-5.6s-3.8-1.9-6.6-1.9h-6v15.5h5.2c1.5,0,2.9-.2,4.1-.5s2.2-.9,3.1-1.5,1.5-1.5,2-2.5c.5-1,.7-2.1.7-3.4h0Z"/>
        <path class="cls-8" d="M723.4,562.5h-13.8v41.3h-6.4v-41.3h-13.8v-5.4h34.1v5.4h0Z"/>
        <path class="cls-7" d="M801.4,603.3c-1.4.4-2.9.6-4.4.8-1.5.2-3,.2-4.6.2-4.5,0-7.9-1-10.1-3.1-2.2-2-3.3-5.2-3.3-9.4v-18.7h-10v-5.2h10v-9.9l6.2-1.6v11.5h16.1v5.2h-16.1v18.2c0,2.6.7,4.5,2.1,5.8s3.4,1.9,6.1,1.9,2.4,0,3.8-.3c1.4-.2,2.8-.5,4.3-.8v5.4h0Z"/>
        <path class="cls-7" d="M835.8,603.8v-4.8c-2.1,1.9-4.1,3.3-6.1,4.2-2,.9-4.1,1.3-6.3,1.3s-3.8-.3-5.3-.8c-1.5-.5-2.7-1.2-3.6-2.2s-1.6-2-2.1-3.2-.7-2.6-.7-4c0-3.6,1.3-6.4,4-8.5s6.7-3.1,11.9-3.1h7.4v-3.2c0-2.1-.7-3.8-2-5.1-1.4-1.3-3.4-1.9-6.2-1.9s-4,.2-6,.7-4,1.1-6.1,1.9v-5.6c.8-.3,1.7-.6,2.6-.8,1-.3,2-.5,3.1-.7,1.1-.2,2.2-.4,3.4-.5s2.3-.2,3.5-.2c2.2,0,4.1.2,5.9.7,1.7.5,3.2,1.2,4.4,2.2s2.1,2.2,2.8,3.7,1,3.2,1,5.2v24.8h-5.6ZM835.1,587.4h-7.9c-1.5,0-2.9.2-4,.5-1.1.3-2,.8-2.8,1.3-.7.6-1.2,1.3-1.6,2.1-.3.8-.5,1.7-.5,2.7s.1,1.3.3,2,.6,1.2,1,1.7,1.1.9,1.9,1.2c.8.3,1.7.4,2.8.4s3.1-.4,4.9-1.3,3.8-2.2,5.8-4.1v-6.4h0Z"/>
        <path class="cls-7" d="M883.7,585.2c0,3-.4,5.7-1.2,8-.8,2.3-2,4.3-3.5,6-1.5,1.6-3.4,2.9-5.5,3.8-2.2.9-4.6,1.3-7.3,1.3s-4.3-.2-6.5-.6c-2.2-.4-4.4-1-6.6-1.9v-48.4h6.2v13.9l-.3,6.7c1.8-2.4,3.7-4.1,5.7-5.1s4.2-1.5,6.6-1.5,3.8.4,5.4,1.3,2.8,2.1,3.9,3.6c1,1.6,1.8,3.5,2.4,5.7.5,2.2.8,4.7.8,7.4h0ZM877.3,585.5c0-1.9-.1-3.6-.4-5.2-.3-1.6-.7-2.9-1.3-4s-1.4-2-2.3-2.6-2-1-3.3-1-1.6.1-2.4.4c-.8.2-1.7.7-2.5,1.2s-1.8,1.4-2.8,2.3-2,2.2-3.1,3.6v17.4c1.2.5,2.5.8,3.7,1.1,1.3.3,2.5.4,3.6.4s2.8-.2,4.1-.7c1.3-.5,2.4-1.2,3.4-2.3s1.8-2.5,2.4-4.2c.6-1.8.9-3.9.9-6.5h0Z"/>
        <path class="cls-7" d="M905.5,558.3h-10.6v-5.1h16.9v45.3h10.7v5.2h-28.8v-5.2h11.8v-40.2h0Z"/>
        <path class="cls-7" d="M963.9,583.9c0,.9,0,1.6,0,2.2,0,.6,0,1.2-.1,1.7h-25.2c0,3.7,1,6.5,3.1,8.5,2,2,5,3,8.9,3s2.1,0,3.2-.1c1,0,2.1-.2,3-.3s1.9-.3,2.8-.5,1.7-.4,2.5-.6v5.1c-1.7.5-3.6.9-5.7,1.2s-4.3.5-6.6.5-5.7-.4-7.9-1.2c-2.2-.8-4-2-5.5-3.6s-2.5-3.5-3.2-5.8-1-4.9-1-7.8.4-4.9,1.1-7.2c.7-2.2,1.8-4.2,3.2-5.9,1.4-1.7,3.1-3.1,5.1-4.1,2-1,4.3-1.5,6.9-1.5s4.7.4,6.7,1.2c1.9.8,3.6,1.9,4.9,3.3s2.3,3.2,3,5.3c.7,2.1,1,4.4,1,6.9h0ZM957.4,583c0-1.6,0-3.1-.5-4.4s-1-2.5-1.8-3.4c-.8-1-1.8-1.7-3-2.2-1.2-.5-2.6-.8-4.2-.8s-2.6.3-3.7.8c-1.1.5-2.1,1.3-2.9,2.2-.8,1-1.5,2.1-2,3.4s-.8,2.8-.9,4.4h18.9Z"/>
        <path class="cls-7" d="M1008.4,618.4h-40.3v-5.2h40.3v5.2Z"/>
        <path class="cls-7" d="M1042.6,594c0,1.3-.2,2.4-.6,3.4s-1,1.9-1.8,2.7c-.7.8-1.6,1.4-2.6,2-1,.5-2,1-3.1,1.4s-2.2.6-3.4.8-2.3.2-3.4.2c-2.4,0-4.7-.1-6.7-.3-2-.2-4-.6-6-1v-5.7c2.1.6,4.2,1,6.3,1.4,2.1.3,4.1.5,6.2.5,3,0,5.2-.4,6.6-1.2s2.2-2,2.2-3.5-.1-1.2-.3-1.7-.6-1-1.2-1.5c-.6-.5-1.5-1-2.8-1.5s-3-1.1-5.1-1.7c-1.6-.5-3.1-1-4.5-1.6s-2.6-1.3-3.6-2.2c-1-.8-1.8-1.8-2.4-2.9s-.9-2.4-.9-4,.2-2.1.7-3.3,1.3-2.3,2.4-3.3,2.6-1.9,4.5-2.6,4.3-1,7.1-1,3,0,4.7.2,3.5.4,5.4.8v5.5c-2-.5-3.8-.8-5.6-1-1.8-.2-3.3-.3-4.6-.3s-2.9.1-3.9.4-1.9.6-2.6,1c-.7.4-1.1.9-1.4,1.5s-.4,1.2-.4,1.8.1,1.2.4,1.8c.2.5.7,1,1.4,1.5.7.5,1.6,1,2.8,1.5,1.2.5,2.8,1,4.8,1.6,2.1.6,3.9,1.3,5.4,2,1.4.7,2.6,1.4,3.5,2.3s1.6,1.8,1.9,2.8c.4,1,.6,2.2.6,3.6h0Z"/>
        <path class="cls-7" d="M1083.3,603.3c-1.4.4-2.9.6-4.4.8-1.5.2-3,.2-4.6.2-4.5,0-7.9-1-10.1-3.1s-3.3-5.2-3.3-9.4v-18.7h-10.1v-5.2h10.1v-9.9l6.2-1.6v11.5h16.1v5.2h-16.1v18.2c0,2.6.7,4.5,2.1,5.8,1.4,1.3,3.4,1.9,6.1,1.9s2.4,0,3.8-.3c1.4-.2,2.8-.5,4.3-.8v5.4h0Z"/>
        <path class="cls-7" d="M1123.5,603.8h-5.6l-.2-5.8c-1.1,1.2-2.1,2.3-3.1,3.1-1,.8-1.9,1.5-2.9,2s-1.9.8-2.9,1.1c-1,.2-2,.3-3.1.3-3.7,0-6.5-1.1-8.4-3.2s-2.8-5.5-2.8-9.8v-23.5h6.2v23c0,5.5,2.1,8.3,6.2,8.3s1.5-.1,2.2-.3,1.5-.6,2.3-1.2,1.7-1.3,2.6-2.3c.9-1,1.9-2.2,3.1-3.6v-23.8h6.2v35.9h0Z"/>
        <path class="cls-7" d="M1133.1,586.6c0-3,.4-5.8,1.2-8.1.8-2.4,2-4.4,3.6-6s3.4-2.9,5.5-3.7,4.6-1.3,7.2-1.3,2.3,0,3.4.2,2.2.4,3.3.7v-15.1h6.3v50.5h-5.6l-.2-6.8c-1.7,2.5-3.6,4.4-5.7,5.6s-4.2,1.8-6.6,1.8-3.9-.4-5.4-1.3-2.9-2.1-3.9-3.6-1.8-3.4-2.3-5.6-.8-4.6-.8-7.3h0ZM1139.5,586.2c0,4.3.6,7.6,1.9,9.7s3.1,3.2,5.4,3.2,3.2-.7,5-2.1,3.6-3.5,5.5-6.3v-16.7c-1-.5-2.2-.8-3.4-1.1s-2.5-.4-3.7-.4c-3.4,0-6,1.1-7.9,3.3-1.9,2.2-2.8,5.6-2.8,10.3h0Z"/>
        <path class="cls-7" d="M1205.6,583.9c0,.9,0,1.6,0,2.2,0,.6,0,1.2-.1,1.7h-25.2c0,3.7,1,6.5,3.1,8.5,2.1,2,5,3,8.9,3s2.1,0,3.2-.1,2.1-.2,3-.3,1.9-.3,2.8-.5,1.7-.4,2.5-.6v5.1c-1.7.5-3.6.9-5.7,1.2s-4.3.5-6.6.5-5.7-.4-7.9-1.2-4-2-5.5-3.6-2.5-3.5-3.2-5.8-1-4.9-1-7.8.4-4.9,1.1-7.2,1.8-4.2,3.2-5.9c1.4-1.7,3.1-3.1,5.1-4.1,2-1,4.3-1.5,6.9-1.5s4.7.4,6.7,1.2,3.6,1.9,4.9,3.3,2.3,3.2,3,5.3c.7,2.1,1,4.4,1,6.9h0ZM1199.1,583c0-1.6,0-3.1-.5-4.4s-1-2.5-1.8-3.4c-.8-1-1.8-1.7-3-2.2-1.2-.5-2.6-.8-4.2-.8s-2.6.3-3.7.8c-1.1.5-2.1,1.3-2.9,2.2-.8,1-1.5,2.1-2,3.4s-.8,2.8-.9,4.4h18.9Z"/>
        <path class="cls-7" d="M1215.5,567.9h5.5l.2,5.8c1.1-1.2,2.1-2.3,3-3.1s1.9-1.5,2.9-2c.9-.5,1.9-.8,2.9-1.1,1-.2,2-.3,3-.3,3.7,0,6.5,1.1,8.4,3.3s2.8,5.5,2.8,9.8v23.4h-6.2v-22.9c0-2.8-.5-4.9-1.6-6.2-1.1-1.3-2.6-2-4.7-2s-1.5.1-2.2.3c-.7.2-1.5.6-2.3,1.2s-1.6,1.3-2.6,2.3-1.9,2.2-3.1,3.6v23.8h-6.2v-35.9h0Z"/>
        <path class="cls-7" d="M1284.7,603.3c-1.4.4-2.9.6-4.4.8-1.5.2-3,.2-4.6.2-4.5,0-7.9-1-10.1-3.1s-3.3-5.2-3.3-9.4v-18.7h-10.1v-5.2h10.1v-9.9l6.2-1.6v11.5h16.1v5.2h-16.1v18.2c0,2.6.7,4.5,2.1,5.8,1.4,1.3,3.4,1.9,6.1,1.9s2.4,0,3.8-.3c1.4-.2,2.8-.5,4.3-.8v5.4h0Z"/>
        <path class="cls-7" d="M1357.8,618.8c-11-10.2-16.5-21.4-16.5-33.8s.3-5.8.9-8.6c.6-2.9,1.5-5.8,2.8-8.6,1.3-2.9,3-5.8,5.2-8.7,2.1-2.9,4.7-5.8,7.8-8.6l3.6,3.7c-9.2,9.1-13.9,19.2-13.9,30.4s1.2,10.8,3.5,16c2.3,5.1,5.8,9.9,10.4,14.5l-3.8,3.8h0Z"/>
        <path class="cls-7" d="M1406.9,603.8h-8.3l-13.6-29.2-3.9-9.4v38.5h-5.9v-46.8h8.2l13,27.6,4.7,10.7v-38.3h5.9v46.8h0Z"/>
        <path class="cls-7" d="M1439.9,603.8v-4.8c-2.1,1.9-4.1,3.3-6.1,4.2-2,.9-4.1,1.3-6.3,1.3s-3.8-.3-5.3-.8c-1.4-.5-2.7-1.2-3.6-2.2s-1.6-2-2.1-3.2-.7-2.6-.7-4c0-3.6,1.3-6.4,4-8.5s6.7-3.1,11.9-3.1h7.4v-3.2c0-2.1-.7-3.8-2-5.1-1.4-1.3-3.4-1.9-6.2-1.9s-4,.2-6,.7-4,1.1-6.1,1.9v-5.6c.8-.3,1.7-.6,2.6-.8s2-.5,3.1-.7c1.1-.2,2.2-.4,3.4-.5s2.3-.2,3.5-.2c2.2,0,4.1.2,5.9.7,1.7.5,3.2,1.2,4.4,2.2s2.1,2.2,2.8,3.7,1,3.2,1,5.2v24.8h-5.6ZM1439.3,587.4h-7.9c-1.6,0-2.9.2-4,.5-1.1.3-2,.8-2.8,1.3-.7.6-1.2,1.3-1.6,2.1-.3.8-.5,1.7-.5,2.7s.1,1.3.3,2,.6,1.2,1,1.7,1.1.9,1.9,1.2c.8.3,1.7.4,2.8.4s3.1-.4,4.9-1.3c1.8-.9,3.8-2.2,5.8-4.1v-6.4h0Z"/>
        <path class="cls-7" d="M1482.8,603.8v-25.8c0-1.1,0-2-.1-2.8,0-.7-.2-1.3-.4-1.7s-.4-.7-.7-.9-.6-.2-1-.2-.9.1-1.3.4c-.4.3-.8.8-1.3,1.4-.5.6-1,1.5-1.5,2.6s-1.2,2.4-2,3.9v23.1h-5.7v-25.1c0-1.3,0-2.4-.1-3.2s-.2-1.4-.4-1.9c-.2-.5-.4-.8-.7-.9-.3-.2-.6-.2-1-.2s-.8.1-1.2.4c-.4.2-.8.7-1.3,1.3s-1,1.5-1.6,2.5-1.2,2.4-2,4.1v23.1h-5.7v-35.9h4.8l.3,6.8c.6-1.4,1.2-2.5,1.8-3.5.6-1,1.2-1.7,1.8-2.3s1.3-1,2-1.3c.7-.3,1.5-.4,2.3-.4,1.9,0,3.4.6,4.4,1.9,1,1.3,1.5,3.2,1.5,5.9.6-1.2,1.1-2.3,1.7-3.3s1.1-1.8,1.8-2.4c.6-.7,1.3-1.2,2.1-1.5.8-.3,1.7-.5,2.7-.5,4.5,0,6.8,3.5,6.8,10.4v26.2h-5.7,0Z"/>
        <path class="cls-7" d="M1527.8,583.9c0,.9,0,1.6,0,2.2,0,.6,0,1.2-.1,1.7h-25.2c0,3.7,1,6.5,3.1,8.5,2.1,2,5,3,8.9,3s2.1,0,3.2-.1,2.1-.2,3-.3,1.9-.3,2.8-.5,1.7-.4,2.5-.6v5.1c-1.7.5-3.6.9-5.7,1.2s-4.3.5-6.6.5-5.7-.4-7.9-1.2-4-2-5.5-3.6-2.5-3.5-3.2-5.8-1-4.9-1-7.8.4-4.9,1.1-7.2,1.8-4.2,3.2-5.9c1.4-1.7,3.1-3.1,5.1-4.1,2-1,4.3-1.5,6.9-1.5s4.7.4,6.7,1.2,3.6,1.9,4.9,3.3,2.3,3.2,3,5.3c.7,2.1,1,4.4,1,6.9h0ZM1521.3,583c0-1.6,0-3.1-.5-4.4s-1-2.5-1.8-3.4c-.8-1-1.8-1.7-3-2.2-1.2-.5-2.6-.8-4.2-.8s-2.6.3-3.7.8c-1.1.5-2.1,1.3-2.9,2.2-.8,1-1.5,2.1-2,3.4s-.8,2.8-.9,4.4h18.9Z"/>
        <path class="cls-7" d="M1540.5,611.1c1.2,0,2.4,0,3.5-.3s2.2-.7,3-1.2c.9-.5,1.6-1.2,2.1-1.9.5-.8.8-1.6.8-2.6s-.2-1.8-.5-2.4-.7-1.2-1.2-1.7-.8-1.1-1.2-1.7c-.3-.6-.5-1.4-.5-2.4s0-1,.3-1.6c.2-.5.5-1,.9-1.5.4-.5.9-.8,1.5-1.1s1.3-.4,2.2-.4,1.6.2,2.4.5c.8.3,1.4.9,2,1.6.6.7,1.1,1.6,1.4,2.7.3,1.1.5,2.3.5,3.8s-.4,3.9-1.1,5.7c-.7,1.8-1.8,3.4-3.2,4.8s-3.2,2.5-5.4,3.4-4.7,1.2-7.5,1.2v-4.9h0Z"/>
        <path class="cls-7" d="M1648.1,602c-3.7,1.5-7.7,2.3-11.8,2.3-6.6,0-11.7-2-15.2-5.9-3.5-4-5.3-9.8-5.3-17.5s.5-7.1,1.5-10.2,2.4-5.6,4.2-7.7c1.8-2.1,4-3.7,6.6-4.9s5.5-1.7,8.7-1.7,4.2.2,6,.5c1.9.4,3.7.9,5.4,1.7v6.3c-1.7-.9-3.4-1.6-5.3-2.1s-3.8-.7-5.9-.7-4.2.4-6,1.2-3.3,2-4.5,3.6c-1.2,1.6-2.2,3.5-2.9,5.7s-1,4.8-1,7.7c0,6.1,1.2,10.6,3.7,13.7,2.5,3.1,6.1,4.6,10.8,4.6s3.9-.2,5.8-.7c1.8-.5,3.6-1.1,5.3-2v6h0Z"/>
        <path class="cls-7" d="M1689.8,585.5c0,2.8-.4,5.3-1.2,7.7s-1.9,4.3-3.4,6-3.3,2.9-5.4,3.9-4.5,1.4-7.2,1.4-4.9-.4-6.9-1.2-3.8-2-5.2-3.5-2.5-3.5-3.2-5.8c-.8-2.3-1.1-4.9-1.1-7.9s.4-5.3,1.2-7.6c.8-2.3,1.9-4.3,3.4-5.9s3.3-3,5.4-3.9,4.5-1.4,7.2-1.4,4.9.4,6.9,1.2,3.8,2,5.2,3.5c1.4,1.5,2.5,3.5,3.2,5.7s1.1,4.9,1.1,7.9h0ZM1683.4,585.8c0-2.2-.2-4.2-.7-5.8s-1.2-3-2.1-4.2c-.9-1.1-2-1.9-3.3-2.5s-2.8-.8-4.3-.8-3.4.4-4.8,1.1-2.4,1.7-3.2,2.9c-.8,1.2-1.5,2.6-1.9,4.2s-.6,3.3-.6,5.1.2,4.2.7,5.8c.5,1.7,1.2,3.1,2.1,4.2.9,1.1,2,1.9,3.3,2.5s2.7.8,4.4.8,3.4-.4,4.8-1.1c1.3-.7,2.4-1.7,3.2-2.9s1.5-2.6,1.9-4.2.6-3.3.6-5.1h0Z"/>
        <path class="cls-7" d="M1698.8,567.9h5.5l.2,5.8c1.1-1.2,2.1-2.3,3-3.1s1.9-1.5,2.9-2c.9-.5,1.9-.8,2.9-1.1,1-.2,2-.3,3-.3,3.7,0,6.5,1.1,8.4,3.3s2.8,5.5,2.8,9.8v23.4h-6.2v-22.9c0-2.8-.5-4.9-1.6-6.2-1.1-1.3-2.6-2-4.7-2s-1.5.1-2.2.3c-.7.2-1.5.6-2.3,1.2s-1.6,1.3-2.6,2.3-1.9,2.2-3.1,3.6v23.8h-6.2v-35.9h0Z"/>
        <path class="cls-7" d="M1768,603.3c-1.4.4-2.9.6-4.4.8-1.5.2-3,.2-4.6.2-4.5,0-7.9-1-10.1-3.1s-3.3-5.2-3.3-9.4v-18.7h-10.1v-5.2h10.1v-9.9l6.2-1.6v11.5h16.1v5.2h-16.1v18.2c0,2.6.7,4.5,2.1,5.8,1.4,1.3,3.4,1.9,6.1,1.9s2.4,0,3.8-.3c1.4-.2,2.8-.5,4.3-.8v5.4h0Z"/>
        <path class="cls-7" d="M1802.4,603.8v-4.8c-2.1,1.9-4.1,3.3-6.1,4.2-2,.9-4.1,1.3-6.3,1.3s-3.8-.3-5.3-.8c-1.4-.5-2.7-1.2-3.6-2.2s-1.6-2-2.1-3.2-.7-2.6-.7-4c0-3.6,1.3-6.4,4-8.5s6.7-3.1,11.9-3.1h7.4v-3.2c0-2.1-.7-3.8-2-5.1-1.4-1.3-3.4-1.9-6.2-1.9s-4,.2-6,.7-4,1.1-6.1,1.9v-5.6c.8-.3,1.7-.6,2.6-.8s2-.5,3.1-.7c1.1-.2,2.2-.4,3.4-.5s2.3-.2,3.5-.2c2.2,0,4.1.2,5.9.7,1.7.5,3.2,1.2,4.4,2.2s2.1,2.2,2.8,3.7,1,3.2,1,5.2v24.8h-5.6ZM1801.7,587.4h-7.9c-1.6,0-2.9.2-4,.5-1.1.3-2,.8-2.8,1.3-.7.6-1.2,1.3-1.6,2.1-.3.8-.5,1.7-.5,2.7s.1,1.3.3,2,.6,1.2,1,1.7,1.1.9,1.9,1.2c.8.3,1.7.4,2.8.4s3.1-.4,4.9-1.3c1.8-.9,3.8-2.2,5.8-4.1v-6.4h0Z"/>
        <path class="cls-7" d="M1847.5,602.4c-1.6.6-3.3,1.1-5,1.4s-3.5.5-5.3.5c-5.7,0-10-1.5-13.1-4.6-3.1-3.1-4.6-7.6-4.6-13.5s.4-5.4,1.3-7.7c.9-2.3,2.1-4.3,3.7-5.9s3.5-2.9,5.7-3.8c2.2-.9,4.7-1.3,7.3-1.3s3.6.1,5.2.4,3.2.7,4.7,1.3v5.9c-1.6-.8-3.1-1.4-4.7-1.8s-3.3-.5-5-.5-3.1.3-4.5.9-2.7,1.5-3.7,2.6-1.9,2.5-2.5,4.2c-.6,1.7-.9,3.5-.9,5.6,0,4.3,1.1,7.6,3.2,9.8s5,3.2,8.8,3.2,3.3-.2,4.9-.6c1.6-.4,3.1-1,4.6-1.7v5.8h0Z"/>
        <path class="cls-7" d="M1888.8,603.3c-1.4.4-2.9.6-4.4.8-1.5.2-3,.2-4.6.2-4.5,0-7.9-1-10.1-3.1s-3.3-5.2-3.3-9.4v-18.7h-10.1v-5.2h10.1v-9.9l6.2-1.6v11.5h16.1v5.2h-16.1v18.2c0,2.6.7,4.5,2.1,5.8,1.4,1.3,3.4,1.9,6.1,1.9s2.4,0,3.8-.3c1.4-.2,2.8-.5,4.3-.8v5.4h0Z"/>
        <path class="cls-7" d="M1930.5,603.8h-8.3l-13.6-29.2-3.9-9.4v38.5h-5.9v-46.8h8.2l13,27.6,4.7,10.7v-38.3h5.9v46.8h0Z"/>
        <path class="cls-7" d="M1963.5,603.8v-4.8c-2.1,1.9-4.1,3.3-6.1,4.2-2,.9-4.1,1.3-6.3,1.3s-3.8-.3-5.3-.8c-1.4-.5-2.7-1.2-3.6-2.2s-1.6-2-2.1-3.2-.7-2.6-.7-4c0-3.6,1.3-6.4,4-8.5s6.7-3.1,11.9-3.1h7.4v-3.2c0-2.1-.7-3.8-2-5.1-1.4-1.3-3.4-1.9-6.2-1.9s-4,.2-6,.7-4,1.1-6.1,1.9v-5.6c.8-.3,1.7-.6,2.6-.8s2-.5,3.1-.7c1.1-.2,2.2-.4,3.4-.5s2.3-.2,3.5-.2c2.2,0,4.1.2,5.9.7,1.7.5,3.2,1.2,4.4,2.2s2.1,2.2,2.8,3.7,1,3.2,1,5.2v24.8h-5.6ZM1962.8,587.4h-7.9c-1.6,0-2.9.2-4,.5-1.1.3-2,.8-2.8,1.3-.7.6-1.2,1.3-1.6,2.1-.3.8-.5,1.7-.5,2.7s.1,1.3.3,2,.6,1.2,1,1.7,1.1.9,1.9,1.2c.8.3,1.7.4,2.8.4s3.1-.4,4.9-1.3c1.8-.9,3.8-2.2,5.8-4.1v-6.4h0Z"/>
        <path class="cls-7" d="M2006.3,603.8v-25.8c0-1.1,0-2-.1-2.8,0-.7-.2-1.3-.4-1.7s-.4-.7-.7-.9-.6-.2-1-.2-.9.1-1.3.4c-.4.3-.8.8-1.3,1.4-.5.6-1,1.5-1.5,2.6s-1.2,2.4-2,3.9v23.1h-5.7v-25.1c0-1.3,0-2.4-.1-3.2s-.2-1.4-.4-1.9c-.2-.5-.4-.8-.7-.9-.3-.2-.6-.2-1-.2s-.8.1-1.2.4c-.4.2-.8.7-1.3,1.3s-1,1.5-1.6,2.5-1.2,2.4-2,4.1v23.1h-5.7v-35.9h4.8l.3,6.8c.6-1.4,1.2-2.5,1.8-3.5.6-1,1.2-1.7,1.8-2.3s1.3-1,2-1.3c.7-.3,1.5-.4,2.3-.4,1.9,0,3.4.6,4.4,1.9,1,1.3,1.5,3.2,1.5,5.9.6-1.2,1.1-2.3,1.7-3.3s1.1-1.8,1.8-2.4c.6-.7,1.3-1.2,2.1-1.5.8-.3,1.7-.5,2.7-.5,4.5,0,6.8,3.5,6.8,10.4v26.2h-5.7,0Z"/>
        <path class="cls-7" d="M2051.3,583.9c0,.9,0,1.6,0,2.2,0,.6,0,1.2-.1,1.7h-25.2c0,3.7,1,6.5,3.1,8.5,2.1,2,5,3,8.9,3s2.1,0,3.2-.1,2.1-.2,3-.3,1.9-.3,2.8-.5,1.7-.4,2.5-.6v5.1c-1.7.5-3.6.9-5.7,1.2s-4.3.5-6.6.5-5.7-.4-7.9-1.2-4-2-5.5-3.6-2.5-3.5-3.2-5.8-1-4.9-1-7.8.4-4.9,1.1-7.2,1.8-4.2,3.2-5.9c1.4-1.7,3.1-3.1,5.1-4.1,2-1,4.3-1.5,6.9-1.5s4.7.4,6.7,1.2,3.6,1.9,4.9,3.3c1.3,1.4,2.3,3.2,3,5.3.7,2.1,1,4.4,1,6.9h0ZM2044.9,583c0-1.6,0-3.1-.5-4.4s-1-2.5-1.8-3.4c-.8-1-1.8-1.7-3-2.2-1.2-.5-2.6-.8-4.2-.8s-2.6.3-3.7.8c-1.1.5-2.1,1.3-2.9,2.2-.8,1-1.5,2.1-2,3.4s-.8,2.8-.9,4.4h18.9Z"/>
        <path class="cls-7" d="M2064.1,611.1c1.2,0,2.4,0,3.5-.3,1.1-.3,2.1-.7,3-1.2.9-.5,1.6-1.2,2.1-1.9.5-.8.8-1.6.8-2.6s-.2-1.8-.5-2.4-.7-1.2-1.2-1.7-.8-1.1-1.2-1.7c-.4-.6-.5-1.4-.5-2.4s0-1,.3-1.6c.2-.5.5-1,.9-1.5.4-.5.9-.8,1.5-1.1s1.3-.4,2.2-.4,1.6.2,2.4.5c.8.3,1.4.9,2,1.6.6.7,1.1,1.6,1.4,2.7.3,1.1.5,2.3.5,3.8s-.4,3.9-1.1,5.7c-.7,1.8-1.8,3.4-3.2,4.8s-3.2,2.5-5.4,3.4-4.7,1.2-7.5,1.2v-4.9h0Z"/>
        <path class="cls-7" d="M2171.7,602c-3.7,1.5-7.7,2.3-11.8,2.3-6.6,0-11.7-2-15.2-5.9s-5.3-9.8-5.3-17.5.5-7.1,1.5-10.2,2.4-5.6,4.2-7.7c1.8-2.1,4-3.7,6.6-4.9s5.5-1.7,8.7-1.7,4.2.2,6,.5c1.9.4,3.6.9,5.4,1.7v6.3c-1.7-.9-3.4-1.6-5.3-2.1s-3.8-.7-5.9-.7-4.2.4-6,1.2-3.3,2-4.5,3.6c-1.2,1.6-2.2,3.5-2.9,5.7-.7,2.2-1,4.8-1,7.7,0,6.1,1.2,10.6,3.7,13.7,2.5,3.1,6.1,4.6,10.8,4.6s3.9-.2,5.8-.7c1.8-.5,3.6-1.1,5.3-2v6h0Z"/>
        <path class="cls-7" d="M2194.3,573h-10.6v-5.2h16.9v30.7h10.7v5.2h-28.8v-5.2h11.8v-25.6h0ZM2196.5,552.8c.7,0,1.3.1,1.9.4.6.2,1.1.6,1.6,1.1.4.5.8,1,1,1.6.2.6.4,1.2.4,1.9s-.1,1.3-.4,1.9c-.2.6-.6,1.1-1,1.6s-1,.8-1.6,1.1c-.6.2-1.2.4-1.9.4s-1.3-.1-1.9-.4c-.6-.2-1.1-.6-1.6-1.1-.4-.5-.8-1-1-1.6-.2-.6-.4-1.2-.4-1.9s.1-1.3.4-1.9c.2-.6.6-1.1,1-1.6.4-.5,1-.8,1.6-1.1s1.2-.4,1.9-.4Z"/>
        <path class="cls-7" d="M2251.3,603.3c-1.4.4-2.9.6-4.4.8-1.5.2-3,.2-4.6.2-4.5,0-7.9-1-10.1-3.1s-3.3-5.2-3.3-9.4v-18.7h-10.1v-5.2h10.1v-9.9l6.2-1.6v11.5h16.1v5.2h-16.1v18.2c0,2.6.7,4.5,2.1,5.8s3.4,1.9,6.1,1.9,2.4,0,3.8-.3c1.4-.2,2.8-.5,4.3-.8v5.4h0Z"/>
        <path class="cls-7" d="M2294.6,567.9l-12.2,32.1c-1.3,3.3-2.6,6.1-3.9,8.4-1.4,2.4-2.8,4.3-4.4,5.8s-3.4,2.6-5.3,3.3-4,1.1-6.4,1.1-1.2,0-1.7,0c-.5,0-1.1,0-1.6-.1v-5.7c.5,0,1.1.1,1.7.2.6,0,1.3,0,2,0,1.1,0,2.2-.2,3.2-.5s1.9-.9,2.8-1.6c.9-.8,1.7-1.7,2.5-2.9.8-1.2,1.6-2.6,2.4-4.3l-14.3-35.9h7.1l9.1,23.8,1.8,5.6,2.1-5.7,8.4-23.6h6.8,0Z"/>
        <path class="cls-7" d="M2305.7,611.1c1.2,0,2.4,0,3.5-.3,1.1-.3,2.1-.7,3-1.2.9-.5,1.6-1.2,2.1-1.9.5-.8.8-1.6.8-2.6s-.2-1.8-.5-2.4-.7-1.2-1.2-1.7-.8-1.1-1.2-1.7c-.4-.6-.5-1.4-.5-2.4s0-1,.3-1.6c.2-.5.5-1,.9-1.5.4-.5.9-.8,1.5-1.1s1.3-.4,2.2-.4,1.6.2,2.4.5c.8.3,1.4.9,2,1.6.6.7,1.1,1.6,1.4,2.7.3,1.1.5,2.3.5,3.8s-.4,3.9-1.1,5.7c-.7,1.8-1.8,3.4-3.2,4.8s-3.2,2.5-5.4,3.4-4.7,1.2-7.5,1.2v-4.9h0Z"/>
        <path class="cls-7" d="M2413.3,602c-3.7,1.5-7.7,2.3-11.8,2.3-6.6,0-11.7-2-15.2-5.9s-5.3-9.8-5.3-17.5.5-7.1,1.5-10.2,2.4-5.6,4.2-7.7c1.8-2.1,4-3.7,6.6-4.9s5.5-1.7,8.7-1.7,4.2.2,6,.5c1.9.4,3.6.9,5.4,1.7v6.3c-1.7-.9-3.4-1.6-5.3-2.1s-3.8-.7-5.9-.7-4.2.4-6,1.2-3.3,2-4.5,3.6c-1.2,1.6-2.2,3.5-2.9,5.7-.7,2.2-1,4.8-1,7.7,0,6.1,1.2,10.6,3.7,13.7,2.5,3.1,6.1,4.6,10.8,4.6s3.9-.2,5.8-.7c1.8-.5,3.6-1.1,5.3-2v6h0Z"/>
        <path class="cls-7" d="M2455,585.5c0,2.8-.4,5.3-1.2,7.7s-1.9,4.3-3.4,6-3.3,2.9-5.4,3.9c-2.1.9-4.5,1.4-7.2,1.4s-4.9-.4-6.9-1.2-3.8-2-5.2-3.5-2.5-3.5-3.2-5.8c-.8-2.3-1.1-4.9-1.1-7.9s.4-5.3,1.2-7.6c.8-2.3,1.9-4.3,3.4-5.9s3.3-3,5.4-3.9,4.5-1.4,7.2-1.4,4.9.4,6.9,1.2,3.8,2,5.2,3.5c1.4,1.5,2.5,3.5,3.2,5.7s1.1,4.9,1.1,7.9h0ZM2448.6,585.8c0-2.2-.2-4.2-.7-5.8s-1.2-3-2.1-4.2c-.9-1.1-2-1.9-3.3-2.5s-2.8-.8-4.4-.8-3.4.4-4.8,1.1-2.4,1.7-3.2,2.9c-.9,1.2-1.5,2.6-1.9,4.2-.4,1.6-.6,3.3-.6,5.1s.2,4.2.7,5.8c.5,1.7,1.2,3.1,2.1,4.2.9,1.1,2,1.9,3.3,2.5s2.7.8,4.4.8,3.4-.4,4.8-1.1c1.3-.7,2.4-1.7,3.2-2.9s1.5-2.6,1.9-4.2.6-3.3.6-5.1h0Z"/>
        <path class="cls-7" d="M2492.9,603.8h-5.6l-.2-5.8c-1.1,1.2-2.1,2.3-3.1,3.1s-1.9,1.5-2.9,2-1.9.8-2.9,1.1c-1,.2-2,.3-3.1.3-3.7,0-6.5-1.1-8.4-3.2-1.9-2.2-2.8-5.5-2.8-9.8v-23.5h6.2v23c0,5.5,2.1,8.3,6.2,8.3s1.5-.1,2.2-.3,1.5-.6,2.3-1.2,1.7-1.3,2.6-2.3c.9-1,1.9-2.2,3.1-3.6v-23.8h6.2v35.9h0Z"/>
        <path class="cls-7" d="M2504.3,567.9h5.5l.2,5.8c1.1-1.2,2.1-2.3,3-3.1s1.9-1.5,2.9-2,1.9-.8,2.9-1.1c1-.2,2-.3,3-.3,3.7,0,6.5,1.1,8.4,3.3s2.8,5.5,2.8,9.8v23.4h-6.2v-22.9c0-2.8-.5-4.9-1.6-6.2-1.1-1.3-2.6-2-4.7-2s-1.5.1-2.2.3c-.7.2-1.5.6-2.3,1.2s-1.6,1.3-2.6,2.3c-.9,1-1.9,2.2-3.1,3.6v23.8h-6.2v-35.9h0Z"/>
        <path class="cls-7" d="M2573.5,603.3c-1.4.4-2.9.6-4.4.8-1.5.2-3,.2-4.6.2-4.5,0-7.9-1-10.1-3.1s-3.3-5.2-3.3-9.4v-18.7h-10.1v-5.2h10.1v-9.9l6.2-1.6v11.5h16.1v5.2h-16.1v18.2c0,2.6.7,4.5,2.1,5.8s3.4,1.9,6.1,1.9,2.4,0,3.8-.3c1.4-.2,2.8-.5,4.3-.8v5.4h0Z"/>
        <path class="cls-7" d="M2586.3,567.9h5.7l.2,6.6c2.1-2.5,4.2-4.4,6.3-5.5,2.1-1.1,4.1-1.7,6.2-1.7,3.7,0,6.5,1.2,8.5,3.6s2.8,6,2.7,10.7h-6.3c0-3.2-.4-5.4-1.4-6.8s-2.4-2.1-4.4-2.1-1.7.2-2.5.5c-.9.3-1.7.8-2.6,1.4-.9.7-1.8,1.5-2.8,2.5-1,1-2.1,2.3-3.2,3.7v23.1h-6.3v-35.9h0Z"/>
        <path class="cls-7" d="M2657.1,567.9l-12.2,32.1c-1.3,3.3-2.6,6.1-3.9,8.4-1.4,2.4-2.8,4.3-4.4,5.8s-3.4,2.6-5.3,3.3-4,1.1-6.4,1.1-1.2,0-1.7,0c-.5,0-1.1,0-1.6-.1v-5.7c.5,0,1.1.1,1.7.2.6,0,1.3,0,2,0,1.1,0,2.2-.2,3.2-.5s1.9-.9,2.8-1.6c.9-.8,1.7-1.7,2.5-2.9.8-1.2,1.6-2.6,2.4-4.3l-14.3-35.9h7.1l9.1,23.8,1.8,5.6,2.1-5.7,8.4-23.6h6.8,0Z"/>
        <path class="cls-7" d="M2672.7,550.5c11,10.2,16.5,21.5,16.5,34s-.3,5.2-.8,8c-.5,2.8-1.4,5.6-2.7,8.5-1.3,2.9-3,5.8-5.1,8.8-2.1,3-4.8,6-8.1,9l-3.6-3.7c4.6-4.6,8.1-9.4,10.4-14.4s3.4-10.2,3.4-15.7c0-11.3-4.6-21.6-13.8-30.6l3.8-3.8h0Z"/>
        <path class="cls-8" d="M525,644.9l-15.9,46.8h-8.6l-15.5-46.8h7.2l10.1,31.5,2.9,9.2,2.9-9.2,10.1-31.5h6.8,0Z"/>
        <path class="cls-8" d="M565,691.7h-6.9l-3.2-10.2h-19.5l-3.3,10.2h-6.6l15.5-46.8h8.7l15.3,46.8ZM553,675.8l-7.9-25-7.9,25h15.8Z"/>
        <path class="cls-8" d="M600.6,691.7h-26.9v-46.8h6.5v41.3h20.4v5.4h0Z"/>
        <path class="cls-8" d="M642.1,675.4c0,2.6-.4,4.9-1.1,7-.7,2.1-1.8,3.9-3.2,5.3-1.4,1.5-3.1,2.6-5.2,3.4s-4.4,1.2-7,1.2-5.4-.4-7.4-1.1-3.7-1.8-5-3.2c-1.3-1.4-2.2-3.1-2.8-5-.6-2-.9-4.1-.9-6.5v-31.4h6.4v30.9c0,1.8.2,3.5.5,4.8s.9,2.5,1.7,3.5c.8.9,1.8,1.6,3.1,2.1s2.8.7,4.6.7c3.4,0,5.9-1,7.5-2.9s2.4-4.7,2.4-8.3v-30.9h6.4v30.5h0Z"/>
        <path class="cls-8" d="M679.7,691.7h-26.6v-46.8h26.6v5.4h-20.2v14.5h19.4v5.4h-19.4v16.1h20.2v5.4h0Z"/>
        <path class="cls-8" d="M721.9,679c0,2.2-.5,4.2-1.4,5.8-.9,1.7-2.2,3.1-3.8,4.2s-3.6,1.9-5.8,2.5c-2.3.5-4.8.8-7.5.8s-2.5,0-3.7-.1c-1.2,0-2.4-.2-3.5-.4-1.1-.1-2.2-.3-3.2-.5s-1.9-.4-2.7-.6v-6.2c1.8.7,3.8,1.2,6,1.6,2.2.4,4.8.6,7.6.6s3.8-.2,5.2-.5,2.6-.8,3.5-1.4,1.6-1.4,2-2.3.6-1.9.6-3.1-.3-2.3-1.1-3.2-1.6-1.7-2.8-2.4-2.5-1.3-3.9-1.9-3-1.2-4.5-1.8c-1.5-.6-3-1.3-4.5-2-1.5-.7-2.8-1.6-3.9-2.6s-2.1-2.2-2.8-3.5c-.7-1.3-1-2.9-1-4.8s.3-3.2,1-4.7,1.7-2.9,3.1-4.1c1.4-1.2,3.2-2.2,5.4-2.9,2.2-.7,4.8-1.1,7.9-1.1s1.6,0,2.6.1,1.8.2,2.8.3,1.9.3,2.8.5,1.8.3,2.6.5v5.7c-1.8-.5-3.7-.9-5.5-1.2s-3.6-.4-5.3-.4c-3.7,0-6.3.6-8,1.8-1.7,1.2-2.6,2.8-2.6,4.9s.3,2.3,1.1,3.2c.7.9,1.6,1.7,2.8,2.4s2.5,1.4,3.9,2,3,1.2,4.5,1.8,3,1.3,4.5,2,2.8,1.6,3.9,2.6c1.1,1,2.1,2.2,2.8,3.6s1,3,1,4.8h0Z"/>
        <path class="cls-7" d="M794,706.7c-11-10.2-16.5-21.4-16.5-33.8s.3-5.8.9-8.6c.6-2.9,1.5-5.8,2.8-8.6,1.3-2.9,3-5.8,5.2-8.7,2.1-2.9,4.7-5.8,7.8-8.6l3.6,3.7c-9.2,9.1-13.9,19.2-13.9,30.4s1.2,10.8,3.5,16c2.3,5.1,5.8,9.9,10.4,14.5l-3.8,3.8h0Z"/>
        <path class="cls-11" d="M831.3,641.1l-1,16.8h-6.2l-1-16.8h8.2Z"/>
        <path class="cls-12" d="M887.2,691.7h-6.9l-3.2-10.2h-19.5l-3.3,10.2h-6.6l15.5-46.8h8.7l15.3,46.8ZM875.2,675.8l-7.9-25-7.9,25h15.8Z"/>
        <path class="cls-12" d="M905.5,646.2h-10.6v-5.1h16.9v45.3h10.7v5.2h-28.8v-5.2h11.8v-40.2h0Z"/>
        <path class="cls-12" d="M963.9,671.8c0,.9,0,1.6,0,2.2,0,.6,0,1.2-.1,1.7h-25.2c0,3.7,1,6.5,3.1,8.5,2,2,5,3,8.9,3s2.1,0,3.2-.1c1,0,2.1-.2,3-.3s1.9-.3,2.8-.5,1.7-.4,2.5-.6v5.1c-1.7.5-3.6.9-5.7,1.2s-4.3.5-6.6.5-5.7-.4-7.9-1.2c-2.2-.8-4-2-5.5-3.6s-2.5-3.5-3.2-5.8-1-4.9-1-7.8.4-4.9,1.1-7.2c.7-2.2,1.8-4.2,3.2-5.9,1.4-1.7,3.1-3.1,5.1-4.1,2-1,4.3-1.5,6.9-1.5s4.7.4,6.7,1.2c1.9.8,3.6,1.9,4.9,3.3s2.3,3.2,3,5.3c.7,2.1,1,4.4,1,6.9h0ZM957.4,670.9c0-1.6,0-3.1-.5-4.4s-1-2.5-1.8-3.4c-.8-1-1.8-1.7-3-2.2-1.2-.5-2.6-.8-4.2-.8s-2.6.3-3.7.8c-1.1.5-2.1,1.3-2.9,2.2-.8,1-1.5,2.1-2,3.4s-.8,2.8-.9,4.4h18.9Z"/>
        <path class="cls-12" d="M1006.2,691.7h-8.3l-9.7-13.7-9.6,13.7h-8l13.9-18-13.3-17.9h8l9.4,13.8,9.3-13.8h7.7l-13.5,18,14.1,17.9h0Z"/>
        <path class="cls-11" d="M1032.7,641.1l-1,16.8h-6.2l-1-16.8h8.2Z"/>
        <path class="cls-7" d="M1057.2,699c1.2,0,2.4,0,3.5-.3s2.2-.7,3-1.2c.9-.5,1.6-1.2,2.1-1.9.5-.8.8-1.6.8-2.6s-.2-1.8-.5-2.4-.7-1.2-1.2-1.7-.8-1.1-1.2-1.7c-.3-.6-.5-1.4-.5-2.4s0-1,.3-1.6c.2-.5.5-1,.9-1.5.4-.5.9-.8,1.5-1.1s1.3-.4,2.2-.4,1.6.2,2.4.5c.8.3,1.4.9,2,1.6.6.7,1.1,1.6,1.4,2.7.3,1.1.5,2.3.5,3.8s-.4,3.9-1.1,5.7c-.7,1.8-1.8,3.4-3.2,4.8s-3.2,2.5-5.4,3.4-4.7,1.2-7.5,1.2v-4.9h0Z"/>
        <path class="cls-11" d="M1153.5,641.1l-1,16.8h-6.2l-1-16.8h8.2Z"/>
        <path class="cls-12" d="M1209.4,691.7h-6.9l-3.2-10.2h-19.5l-3.3,10.2h-6.6l15.5-46.8h8.7l15.3,46.8h0ZM1197.4,675.8l-7.9-25-7.9,25h15.8Z"/>
        <path class="cls-12" d="M1227.7,646.2h-10.6v-5.1h16.9v45.3h10.7v5.2h-28.8v-5.2h11.8v-40.2h0Z"/>
        <path class="cls-12" d="M1286.1,671.8c0,.9,0,1.6,0,2.2,0,.6,0,1.2-.1,1.7h-25.2c0,3.7,1,6.5,3.1,8.5,2.1,2,5,3,8.9,3s2.1,0,3.2-.1,2.1-.2,3-.3,1.9-.3,2.8-.5,1.7-.4,2.5-.6v5.1c-1.7.5-3.6.9-5.7,1.2s-4.3.5-6.6.5-5.7-.4-7.9-1.2-4-2-5.5-3.6-2.5-3.5-3.2-5.8-1-4.9-1-7.8.4-4.9,1.1-7.2,1.8-4.2,3.2-5.9c1.4-1.7,3.1-3.1,5.1-4.1,2-1,4.3-1.5,6.9-1.5s4.7.4,6.7,1.2,3.6,1.9,4.9,3.3,2.3,3.2,3,5.3c.7,2.1,1,4.4,1,6.9h0ZM1279.6,670.9c0-1.6,0-3.1-.5-4.4s-1-2.5-1.8-3.4c-.8-1-1.8-1.7-3-2.2-1.2-.5-2.6-.8-4.2-.8s-2.6.3-3.7.8c-1.1.5-2.1,1.3-2.9,2.2-.8,1-1.5,2.1-2,3.4s-.8,2.8-.9,4.4h18.9Z"/>
        <path class="cls-12" d="M1328.4,691.7h-8.3l-9.7-13.7-9.6,13.7h-8.1l13.9-18-13.3-17.9h8l9.4,13.8,9.3-13.8h7.7l-13.5,18,14.1,17.9Z"/>
        <path class="cls-11" d="M1354.8,641.1l-1,16.8h-6.2l-1-16.8h8.2Z"/>
        <path class="cls-7" d="M1379.4,699c1.2,0,2.4,0,3.5-.3s2.2-.7,3-1.2c.9-.5,1.6-1.2,2.1-1.9.5-.8.8-1.6.8-2.6s-.2-1.8-.5-2.4-.7-1.2-1.2-1.7-.8-1.1-1.2-1.7c-.3-.6-.5-1.4-.5-2.4s0-1,.3-1.6c.2-.5.5-1,.9-1.5.4-.5.9-.8,1.5-1.1s1.3-.4,2.2-.4,1.6.2,2.4.5c.8.3,1.4.9,2,1.6.6.7,1.1,1.6,1.4,2.7.3,1.1.5,2.3.5,3.8s-.4,3.9-1.1,5.7c-.7,1.8-1.8,3.4-3.2,4.8s-3.2,2.5-5.4,3.4-4.7,1.2-7.5,1.2v-4.9h0Z"/>
        <path class="cls-11" d="M1475.7,641.1l-1,16.8h-6.2l-1-16.8h8.2Z"/>
        <path class="cls-12" d="M1527.8,691.7h-8.3l-13.6-29.2-3.9-9.4v38.5h-5.9v-46.8h8.2l13,27.6,4.7,10.7v-38.3h5.9v46.8h0Z"/>
        <path class="cls-12" d="M1568,671.8c0,.9,0,1.6,0,2.2,0,.6,0,1.2-.1,1.7h-25.2c0,3.7,1,6.5,3.1,8.5,2.1,2,5,3,8.9,3s2.1,0,3.2-.1,2.1-.2,3-.3,1.9-.3,2.8-.5,1.7-.4,2.5-.6v5.1c-1.7.5-3.6.9-5.7,1.2s-4.3.5-6.6.5-5.7-.4-7.9-1.2-4-2-5.5-3.6-2.5-3.5-3.2-5.8-1-4.9-1-7.8.4-4.9,1.1-7.2,1.8-4.2,3.2-5.9c1.4-1.7,3.1-3.1,5.1-4.1,2-1,4.3-1.5,6.9-1.5s4.7.4,6.7,1.2,3.6,1.9,4.9,3.3,2.3,3.2,3,5.3c.7,2.1,1,4.4,1,6.9h0ZM1561.6,670.9c0-1.6,0-3.1-.5-4.4s-1-2.5-1.8-3.4c-.8-1-1.8-1.7-3-2.2-1.2-.5-2.6-.8-4.2-.8s-2.6.3-3.7.8c-1.1.5-2.1,1.3-2.9,2.2-.8,1-1.5,2.1-2,3.4s-.8,2.8-.9,4.4h18.9Z"/>
        <path class="cls-12" d="M1611.2,655.8l-5.2,35.9h-7.6l-5.2-15-1-3.7-1.2,3.9-5,14.8h-7.3l-5.2-35.9h6.1l3,24.4.6,5.4,1.5-4.8,5.2-16.1h4.5l5.6,15.9,1.6,4.8.5-5,2.8-24.6h6.2Z"/>
        <path class="cls-12" d="M1693.1,644.9l-16.9,30v16.7h-6.4v-16.8l-16.9-29.9h7.7l9.3,17.1,3.4,6.9,3.2-6.2,9.4-17.7h7.3,0Z"/>
        <path class="cls-12" d="M1730.1,673.4c0,2.8-.4,5.3-1.2,7.7s-1.9,4.3-3.4,6-3.3,2.9-5.4,3.9-4.5,1.4-7.2,1.4-4.9-.4-6.9-1.2-3.8-2-5.2-3.5-2.5-3.5-3.2-5.8c-.8-2.3-1.1-4.9-1.1-7.9s.4-5.3,1.2-7.6c.8-2.3,1.9-4.3,3.4-5.9s3.3-3,5.4-3.9,4.5-1.4,7.2-1.4,4.9.4,6.9,1.2,3.8,2,5.2,3.5c1.4,1.5,2.5,3.5,3.2,5.7s1.1,4.9,1.1,7.9h0ZM1723.7,673.7c0-2.2-.2-4.2-.7-5.8s-1.2-3-2.1-4.2c-.9-1.1-2-1.9-3.3-2.5s-2.8-.8-4.3-.8-3.4.4-4.8,1.1-2.4,1.7-3.2,2.9c-.8,1.2-1.5,2.6-1.9,4.2s-.6,3.3-.6,5.1.2,4.2.7,5.8c.5,1.7,1.2,3.1,2.1,4.2.9,1.1,2,1.9,3.3,2.5s2.7.8,4.4.8,3.4-.4,4.8-1.1c1.3-.7,2.4-1.7,3.2-2.9s1.5-2.6,1.9-4.2.6-3.3.6-5.1h0Z"/>
        <path class="cls-12" d="M1740.5,655.8h5.7l.2,6.6c2.1-2.5,4.2-4.4,6.3-5.5,2.1-1.1,4.1-1.7,6.2-1.7,3.7,0,6.5,1.2,8.5,3.6,1.9,2.4,2.8,6,2.7,10.7h-6.3c0-3.2-.4-5.4-1.4-6.8s-2.4-2.1-4.3-2.1-1.7.2-2.5.5c-.8.3-1.7.8-2.6,1.4s-1.8,1.5-2.8,2.5c-1,1-2.1,2.3-3.2,3.7v23.1h-6.3v-35.9h0Z"/>
        <path class="cls-12" d="M1811.7,691.7h-8.6l-16.7-19.2v19.2h-6.2v-50.5h6.2v31l16.1-16.4h8.2l-16.8,16.6,17.8,19.3Z"/>
        <path class="cls-11" d="M1838.2,641.1l-1,16.8h-6.2l-1-16.8h8.2Z"/>
        <path class="cls-7" d="M1862.7,699c1.2,0,2.4,0,3.5-.3s2.2-.7,3-1.2c.9-.5,1.6-1.2,2.1-1.9.5-.8.8-1.6.8-2.6s-.2-1.8-.5-2.4-.7-1.2-1.2-1.7-.8-1.1-1.2-1.7c-.3-.6-.5-1.4-.5-2.4s0-1,.3-1.6c.2-.5.5-1,.9-1.5.4-.5.9-.8,1.5-1.1s1.3-.4,2.2-.4,1.6.2,2.4.5c.8.3,1.4.9,2,1.6.6.7,1.1,1.6,1.4,2.7.3,1.1.5,2.3.5,3.8s-.4,3.9-1.1,5.7c-.7,1.8-1.8,3.4-3.2,4.8s-3.2,2.5-5.4,3.4-4.7,1.2-7.5,1.2v-4.9h0Z"/>
        <path class="cls-11" d="M1959,641.1l-1,16.8h-6.2l-1-16.8h8.2Z"/>
        <path class="cls-12" d="M2011.4,675.4c0,2.6-.4,4.9-1.1,7-.7,2.1-1.8,3.9-3.2,5.3-1.4,1.5-3.1,2.6-5.2,3.4s-4.4,1.2-7,1.2-5.4-.4-7.4-1.1-3.7-1.8-4.9-3.2c-1.3-1.4-2.2-3.1-2.8-5-.6-2-.9-4.1-.9-6.5v-31.4h6.4v30.9c0,1.8.2,3.5.5,4.8s.9,2.5,1.7,3.5c.8.9,1.8,1.6,3.1,2.1s2.8.7,4.6.7c3.4,0,5.9-1,7.5-2.9s2.4-4.7,2.4-8.3v-30.9h6.4v30.5h0Z"/>
        <path class="cls-12" d="M2021,655.8h5.5l.2,5.8c1.1-1.2,2.1-2.3,3-3.1s1.9-1.5,2.9-2c.9-.5,1.9-.8,2.9-1.1,1-.2,2-.3,3-.3,3.7,0,6.5,1.1,8.4,3.3s2.8,5.5,2.8,9.8v23.4h-6.2v-22.9c0-2.8-.5-4.9-1.6-6.2-1.1-1.3-2.6-2-4.7-2s-1.5.1-2.2.3c-.7.2-1.5.6-2.3,1.2s-1.6,1.3-2.6,2.3-1.9,2.2-3.1,3.6v23.8h-6.2v-35.9h0Z"/>
        <path class="cls-12" d="M2073.5,660.9h-10.6v-5.2h16.9v30.7h10.7v5.2h-28.8v-5.2h11.8v-25.6h0ZM2075.7,640.7c.7,0,1.3.1,1.9.4.6.2,1.1.6,1.6,1.1.4.5.8,1,1,1.6.2.6.4,1.2.4,1.9s-.1,1.3-.4,1.9c-.2.6-.6,1.1-1,1.6s-1,.8-1.6,1.1c-.6.2-1.2.4-1.9.4s-1.3-.1-1.9-.4c-.6-.2-1.1-.6-1.6-1.1-.4-.5-.8-1-1-1.6-.2-.6-.4-1.2-.4-1.9s.1-1.3.4-1.9c.2-.6.6-1.1,1-1.6.4-.5,1-.8,1.6-1.1s1.2-.4,1.9-.4Z"/>
        <path class="cls-12" d="M2130.5,691.2c-1.4.4-2.9.6-4.4.8-1.5.2-3,.2-4.6.2-4.5,0-7.9-1-10.1-3.1s-3.3-5.2-3.3-9.4v-18.7h-10.1v-5.2h10.1v-9.9l6.2-1.6v11.5h16.1v5.2h-16.1v18.2c0,2.6.7,4.5,2.1,5.8s3.4,1.9,6.1,1.9,2.4,0,3.8-.3c1.4-.2,2.8-.5,4.3-.8v5.4h0Z"/>
        <path class="cls-12" d="M2172.1,671.8c0,.9,0,1.6,0,2.2,0,.6,0,1.2-.1,1.7h-25.2c0,3.7,1,6.5,3.1,8.5,2.1,2,5,3,8.9,3s2.1,0,3.1-.1c1.1,0,2.1-.2,3-.3s1.9-.3,2.8-.5,1.7-.4,2.5-.6v5.1c-1.7.5-3.6.9-5.7,1.2s-4.4.5-6.6.5-5.7-.4-7.9-1.2-4-2-5.5-3.6-2.5-3.5-3.1-5.8-1-4.9-1-7.8.4-4.9,1.1-7.2,1.8-4.2,3.2-5.9c1.4-1.7,3.1-3.1,5.1-4.1,2-1,4.3-1.5,6.9-1.5s4.7.4,6.6,1.2,3.6,1.9,4.9,3.3c1.3,1.4,2.3,3.2,3,5.3.7,2.1,1,4.4,1,6.9h0ZM2165.7,670.9c0-1.6,0-3.1-.5-4.4s-1-2.5-1.8-3.4c-.8-1-1.8-1.7-3-2.2-1.2-.5-2.6-.8-4.1-.8s-2.6.3-3.7.8c-1.1.5-2.1,1.3-2.9,2.2-.8,1-1.5,2.1-2,3.4s-.8,2.8-.9,4.4h18.9,0Z"/>
        <path class="cls-12" d="M2180.3,674.5c0-3,.4-5.8,1.2-8.1.8-2.4,2-4.4,3.6-6s3.4-2.9,5.5-3.7c2.2-.8,4.6-1.3,7.2-1.3s2.3,0,3.4.2c1.1.1,2.2.4,3.3.7v-15.1h6.3v50.5h-5.6l-.2-6.8c-1.7,2.5-3.6,4.4-5.6,5.6-2,1.2-4.2,1.8-6.6,1.8s-3.9-.4-5.4-1.3-2.9-2.1-3.9-3.6c-1-1.6-1.8-3.4-2.3-5.6s-.8-4.6-.8-7.3h0ZM2186.6,674.1c0,4.3.6,7.6,1.9,9.7s3.1,3.2,5.4,3.2,3.2-.7,5-2.1,3.6-3.5,5.5-6.3v-16.7c-1-.5-2.2-.8-3.4-1.1s-2.5-.4-3.7-.4c-3.4,0-6,1.1-7.9,3.3-1.9,2.2-2.8,5.6-2.8,10.3h0Z"/>
        <path class="cls-12" d="M2292.6,679c0,2.2-.4,4.2-1.4,5.8-.9,1.7-2.2,3.1-3.8,4.2s-3.6,1.9-5.9,2.5-4.8.8-7.5.8-2.5,0-3.7-.1c-1.2,0-2.4-.2-3.5-.4-1.1-.1-2.2-.3-3.2-.5s-1.9-.4-2.7-.6v-6.2c1.8.7,3.8,1.2,6,1.6s4.8.6,7.6.6,3.8-.2,5.2-.5,2.6-.8,3.5-1.4,1.6-1.4,2-2.3.6-1.9.6-3.1-.4-2.3-1.1-3.2-1.6-1.7-2.8-2.4-2.4-1.3-3.9-1.9-3-1.2-4.5-1.8-3-1.3-4.5-2c-1.5-.7-2.8-1.6-3.9-2.6s-2.1-2.2-2.8-3.5c-.7-1.3-1.1-2.9-1.1-4.8s.3-3.2,1-4.7,1.7-2.9,3.1-4.1c1.4-1.2,3.2-2.2,5.4-2.9s4.8-1.1,7.9-1.1,1.6,0,2.6.1,1.9.2,2.8.3,1.9.3,2.8.5,1.8.3,2.6.5v5.7c-1.8-.5-3.7-.9-5.5-1.2s-3.6-.4-5.3-.4c-3.6,0-6.3.6-8.1,1.8-1.7,1.2-2.6,2.8-2.6,4.9s.4,2.3,1.1,3.2c.7.9,1.6,1.7,2.8,2.4,1.1.7,2.4,1.4,3.9,2s3,1.2,4.5,1.8,3,1.3,4.5,2,2.8,1.6,3.9,2.6c1.1,1,2.1,2.2,2.8,3.6s1.1,3,1.1,4.8h0Z"/>
        <path class="cls-12" d="M2331.9,691.2c-1.4.4-2.9.6-4.4.8-1.5.2-3,.2-4.6.2-4.5,0-7.9-1-10.1-3.1s-3.3-5.2-3.3-9.4v-18.7h-10.1v-5.2h10.1v-9.9l6.2-1.6v11.5h16.1v5.2h-16.1v18.2c0,2.6.7,4.5,2.1,5.8s3.4,1.9,6.1,1.9,2.4,0,3.8-.3c1.4-.2,2.8-.5,4.3-.8v5.4h0Z"/>
        <path class="cls-12" d="M2366.3,691.7v-4.8c-2.1,1.9-4.1,3.3-6.1,4.2-2,.9-4.1,1.3-6.4,1.3s-3.8-.3-5.3-.8c-1.4-.5-2.6-1.2-3.6-2.2s-1.6-2-2.1-3.2c-.4-1.2-.7-2.6-.7-4,0-3.6,1.3-6.4,4-8.5s6.6-3.1,11.9-3.1h7.4v-3.2c0-2.1-.7-3.8-2-5.1-1.4-1.3-3.4-1.9-6.2-1.9s-4,.2-6,.7-4,1.1-6.1,1.9v-5.6c.8-.3,1.7-.6,2.6-.8s2-.5,3.1-.7c1.1-.2,2.2-.4,3.4-.5,1.2-.1,2.4-.2,3.5-.2,2.2,0,4.1.2,5.9.7,1.7.5,3.2,1.2,4.4,2.2s2.1,2.2,2.8,3.7,1,3.2,1,5.2v24.8h-5.6ZM2365.6,675.3h-7.9c-1.6,0-2.9.2-4,.5-1.1.3-2,.8-2.8,1.3-.7.6-1.2,1.3-1.6,2.1-.4.8-.5,1.7-.5,2.7s.1,1.3.3,2,.6,1.2,1,1.7,1.1.9,1.9,1.2c.8.3,1.7.4,2.8.4s3.1-.4,4.9-1.3c1.9-.9,3.8-2.2,5.9-4.1v-6.4h0Z"/>
        <path class="cls-12" d="M2412.4,691.2c-1.4.4-2.9.6-4.4.8-1.5.2-3,.2-4.6.2-4.5,0-7.9-1-10.1-3.1s-3.3-5.2-3.3-9.4v-18.7h-10.1v-5.2h10.1v-9.9l6.2-1.6v11.5h16.1v5.2h-16.1v18.2c0,2.6.7,4.5,2.1,5.8s3.4,1.9,6.1,1.9,2.4,0,3.8-.3c1.4-.2,2.8-.5,4.3-.8v5.4h0Z"/>
        <path class="cls-12" d="M2454.1,671.8c0,.9,0,1.6,0,2.2,0,.6,0,1.2-.1,1.7h-25.2c0,3.7,1,6.5,3.1,8.5,2.1,2,5,3,8.9,3s2.1,0,3.1-.1c1.1,0,2.1-.2,3-.3s1.9-.3,2.8-.5,1.7-.4,2.5-.6v5.1c-1.7.5-3.6.9-5.7,1.2s-4.4.5-6.6.5-5.7-.4-7.9-1.2-4-2-5.5-3.6-2.5-3.5-3.1-5.8-1-4.9-1-7.8.4-4.9,1.1-7.2,1.8-4.2,3.2-5.9c1.4-1.7,3.1-3.1,5.1-4.1,2-1,4.3-1.5,6.9-1.5s4.7.4,6.6,1.2,3.6,1.9,4.9,3.3c1.3,1.4,2.3,3.2,3,5.3.7,2.1,1,4.4,1,6.9h0ZM2447.6,670.9c0-1.6,0-3.1-.5-4.4s-1-2.5-1.8-3.4c-.8-1-1.8-1.7-3-2.2-1.2-.5-2.6-.8-4.1-.8s-2.6.3-3.7.8c-1.1.5-2.1,1.3-2.9,2.2-.8,1-1.5,2.1-2,3.4s-.8,2.8-.9,4.4h18.9,0Z"/>
        <path class="cls-12" d="M2492.4,681.9c0,1.3-.2,2.4-.6,3.4s-1,1.9-1.8,2.7c-.7.8-1.6,1.4-2.6,2-1,.5-2,1-3.1,1.4-1.1.4-2.2.6-3.4.8s-2.3.2-3.4.2c-2.4,0-4.7-.1-6.7-.3s-4-.6-6-1v-5.7c2.1.6,4.2,1,6.3,1.4,2.1.3,4.1.5,6.2.5,3,0,5.2-.4,6.6-1.2s2.1-2,2.1-3.5-.1-1.2-.3-1.7-.6-1-1.2-1.5c-.6-.5-1.5-1-2.8-1.5s-3-1.1-5.1-1.7c-1.6-.5-3.1-1-4.5-1.6-1.4-.6-2.6-1.3-3.6-2.2-1-.8-1.8-1.8-2.4-2.9s-.9-2.4-.9-4,.2-2.1.7-3.3,1.3-2.3,2.4-3.3c1.1-1,2.6-1.9,4.5-2.6,1.9-.7,4.3-1,7.1-1s3,0,4.7.2,3.5.4,5.4.8v5.5c-2-.5-3.8-.8-5.6-1-1.8-.2-3.3-.3-4.6-.3s-2.9.1-3.9.4c-1.1.2-1.9.6-2.6,1-.7.4-1.1.9-1.4,1.5s-.4,1.2-.4,1.8.1,1.2.4,1.8c.2.5.7,1,1.4,1.5s1.6,1,2.8,1.5c1.2.5,2.8,1,4.8,1.6,2.1.6,3.9,1.3,5.4,2,1.4.7,2.6,1.4,3.5,2.3.9.8,1.6,1.8,1.9,2.8s.6,2.2.6,3.6h0Z"/>
        <path class="cls-11" d="M2522.8,641.1l-1,16.8h-6.1l-1-16.8h8.2Z"/>
        <path class="cls-7" d="M2551.9,638.4c11,10.2,16.5,21.5,16.5,34s-.3,5.2-.8,8c-.5,2.8-1.4,5.6-2.7,8.5-1.3,2.9-3,5.8-5.1,8.8-2.1,3-4.8,6-8.1,9l-3.6-3.7c4.6-4.6,8.1-9.4,10.4-14.4s3.4-10.2,3.4-15.7c0-11.3-4.6-21.6-13.8-30.6l3.8-3.8h0Z"/>
        <path class="cls-8" d="M521.2,851.2c0,2.6-.4,4.9-1.1,7-.7,2.1-1.8,3.9-3.2,5.3-1.4,1.5-3.1,2.6-5.2,3.4s-4.4,1.2-7,1.2-5.4-.4-7.4-1.1-3.7-1.8-5-3.2c-1.3-1.4-2.2-3.1-2.8-5-.6-2-.9-4.1-.9-6.5v-31.4h6.4v30.9c0,1.8.2,3.5.5,4.8s.9,2.5,1.7,3.5,1.8,1.6,3.1,2.1,2.8.7,4.6.7c3.4,0,5.9-1,7.5-2.9s2.4-4.7,2.4-8.3v-30.9h6.4v30.5h0Z"/>
        <path class="cls-8" d="M561.5,835c0,1.9-.4,3.8-1.1,5.7-.7,1.9-1.8,3.5-3.3,5-1.5,1.5-3.4,2.7-5.8,3.6s-5.1,1.4-8.4,1.4h-5.8v16.8h-6.4v-46.8h13.2c2.3,0,4.5.3,6.7.8s4,1.3,5.6,2.5,2.9,2.6,3.8,4.4c1,1.8,1.4,4,1.4,6.6h0ZM554.8,835.3c0-3-1-5.3-3-6.9-2-1.6-4.7-2.4-8.2-2.4h-6.5v19.2h5.9c3.8,0,6.7-.8,8.7-2.5s3.1-4.1,3.1-7.5h0Z"/>
        <path class="cls-8" d="M603,843.6c0,2.2-.2,4.4-.5,6.4-.3,2-.9,4-1.7,5.7-.8,1.8-1.8,3.4-3,4.8s-2.7,2.7-4.5,3.7-3.8,1.8-6.2,2.4c-2.3.6-5,.8-8,.8h-10v-46.8h12c7.3,0,12.7,1.9,16.3,5.6s5.4,9.5,5.4,17.2h0ZM596.4,844c0-3.3-.3-6.1-.9-8.4s-1.6-4.1-2.8-5.5c-1.3-1.4-2.8-2.4-4.8-3.1-1.9-.6-4.2-1-6.7-1h-5.5v35.9h4.8c10.6,0,16-6,16-17.9h0Z"/>
        <path class="cls-8" d="M645.6,867.5h-6.9l-3.2-10.2h-19.5l-3.3,10.2h-6.6l15.5-46.8h8.7l15.3,46.8ZM633.6,851.6l-7.9-25-7.9,25h15.8Z"/>
        <path class="cls-8" d="M683.1,826.2h-13.8v41.3h-6.4v-41.3h-13.8v-5.4h34.1v5.4h0Z"/>
        <path class="cls-8" d="M720,867.5h-26.6v-46.8h26.6v5.4h-20.2v14.5h19.4v5.4h-19.4v16.1h20.2v5.4h0Z"/>
        <path class="cls-7" d="M801.4,867c-1.4.4-2.9.6-4.4.8-1.5.2-3,.2-4.6.2-4.5,0-7.9-1-10.1-3.1-2.2-2-3.3-5.2-3.3-9.4v-18.7h-10v-5.2h10v-9.9l6.2-1.6v11.5h16.1v5.2h-16.1v18.2c0,2.6.7,4.5,2.1,5.8s3.4,1.9,6.1,1.9,2.4,0,3.8-.3c1.4-.2,2.8-.5,4.3-.8v5.4h0Z"/>
        <path class="cls-7" d="M835.8,867.5v-4.8c-2.1,1.9-4.1,3.3-6.1,4.2-2,.9-4.1,1.3-6.3,1.3s-3.8-.3-5.3-.8c-1.5-.5-2.7-1.2-3.6-2.2s-1.6-2-2.1-3.2-.7-2.6-.7-4c0-3.6,1.3-6.4,4-8.5s6.7-3.1,11.9-3.1h7.4v-3.2c0-2.1-.7-3.8-2-5.1-1.4-1.3-3.4-1.9-6.2-1.9s-4,.2-6,.7-4,1.1-6.1,1.9v-5.6c.8-.3,1.7-.6,2.6-.8,1-.3,2-.5,3.1-.7,1.1-.2,2.2-.4,3.4-.5s2.3-.2,3.5-.2c2.2,0,4.1.2,5.9.7,1.7.5,3.2,1.2,4.4,2.2s2.1,2.2,2.8,3.7,1,3.2,1,5.2v24.8h-5.6ZM835.1,851.1h-7.9c-1.5,0-2.9.2-4,.5-1.1.3-2,.8-2.8,1.3-.7.6-1.2,1.3-1.6,2.1-.3.8-.5,1.7-.5,2.7s.1,1.3.3,2,.6,1.2,1,1.7,1.1.9,1.9,1.2c.8.3,1.7.4,2.8.4s3.1-.4,4.9-1.3,3.8-2.2,5.8-4.1v-6.4h0Z"/>
        <path class="cls-7" d="M883.7,848.9c0,3-.4,5.7-1.2,8-.8,2.3-2,4.3-3.5,6-1.5,1.6-3.4,2.9-5.5,3.8-2.2.9-4.6,1.3-7.3,1.3s-4.3-.2-6.5-.6c-2.2-.4-4.4-1-6.6-1.9v-48.4h6.2v13.9l-.3,6.7c1.8-2.4,3.7-4.1,5.7-5.1s4.2-1.5,6.6-1.5,3.8.4,5.4,1.3,2.8,2.1,3.9,3.6c1,1.6,1.8,3.5,2.4,5.7.5,2.2.8,4.7.8,7.4h0ZM877.3,849.2c0-1.9-.1-3.6-.4-5.2-.3-1.6-.7-2.9-1.3-4s-1.4-2-2.3-2.6-2-1-3.3-1-1.6.1-2.4.4c-.8.2-1.7.7-2.5,1.2s-1.8,1.4-2.8,2.3-2,2.2-3.1,3.6v17.4c1.2.5,2.5.8,3.7,1.1,1.3.3,2.5.4,3.6.4s2.8-.2,4.1-.7c1.3-.5,2.4-1.2,3.4-2.3s1.8-2.5,2.4-4.2c.6-1.8.9-3.9.9-6.5h0Z"/>
        <path class="cls-7" d="M905.5,822h-10.6v-5.1h16.9v45.3h10.7v5.2h-28.8v-5.2h11.8v-40.2h0Z"/>
        <path class="cls-7" d="M963.9,847.6c0,.9,0,1.6,0,2.2,0,.6,0,1.2-.1,1.7h-25.2c0,3.7,1,6.5,3.1,8.5,2,2,5,3,8.9,3s2.1,0,3.2-.1c1,0,2.1-.2,3-.3s1.9-.3,2.8-.5,1.7-.4,2.5-.6v5.1c-1.7.5-3.6.9-5.7,1.2s-4.3.5-6.6.5-5.7-.4-7.9-1.2c-2.2-.8-4-2-5.5-3.6s-2.5-3.5-3.2-5.8-1-4.9-1-7.8.4-4.9,1.1-7.2c.7-2.2,1.8-4.2,3.2-5.9,1.4-1.7,3.1-3.1,5.1-4.1,2-1,4.3-1.5,6.9-1.5s4.7.4,6.7,1.2c1.9.8,3.6,1.9,4.9,3.3s2.3,3.2,3,5.3c.7,2.1,1,4.4,1,6.9h0ZM957.4,846.7c0-1.6,0-3.1-.5-4.4s-1-2.5-1.8-3.4c-.8-1-1.8-1.7-3-2.2-1.2-.5-2.6-.8-4.2-.8s-2.6.3-3.7.8c-1.1.5-2.1,1.3-2.9,2.2-.8,1-1.5,2.1-2,3.4s-.8,2.8-.9,4.4h18.9Z"/>
        <path class="cls-7" d="M1008.4,882.1h-40.3v-5.2h40.3v5.2Z"/>
        <path class="cls-7" d="M1042.6,857.7c0,1.3-.2,2.4-.6,3.4s-1,1.9-1.8,2.7c-.7.8-1.6,1.4-2.6,2-1,.5-2,1-3.1,1.4s-2.2.6-3.4.8-2.3.2-3.4.2c-2.4,0-4.7-.1-6.7-.3-2-.2-4-.6-6-1v-5.7c2.1.6,4.2,1,6.3,1.4,2.1.3,4.1.5,6.2.5,3,0,5.2-.4,6.6-1.2s2.2-2,2.2-3.5-.1-1.2-.3-1.7-.6-1-1.2-1.5c-.6-.5-1.5-1-2.8-1.5s-3-1.1-5.1-1.7c-1.6-.5-3.1-1-4.5-1.6s-2.6-1.3-3.6-2.2c-1-.8-1.8-1.8-2.4-2.9s-.9-2.4-.9-4,.2-2.1.7-3.3,1.3-2.3,2.4-3.3,2.6-1.9,4.5-2.6,4.3-1,7.1-1,3,0,4.7.2,3.5.4,5.4.8v5.5c-2-.5-3.8-.8-5.6-1-1.8-.2-3.3-.3-4.6-.3s-2.9.1-3.9.4-1.9.6-2.6,1c-.7.4-1.1.9-1.4,1.5s-.4,1.2-.4,1.8.1,1.2.4,1.8c.2.5.7,1,1.4,1.5.7.5,1.6,1,2.8,1.5,1.2.5,2.8,1,4.8,1.6,2.1.6,3.9,1.3,5.4,2,1.4.7,2.6,1.4,3.5,2.3s1.6,1.8,1.9,2.8c.4,1,.6,2.2.6,3.6h0Z"/>
        <path class="cls-7" d="M1083.3,867c-1.4.4-2.9.6-4.4.8-1.5.2-3,.2-4.6.2-4.5,0-7.9-1-10.1-3.1s-3.3-5.2-3.3-9.4v-18.7h-10.1v-5.2h10.1v-9.9l6.2-1.6v11.5h16.1v5.2h-16.1v18.2c0,2.6.7,4.5,2.1,5.8,1.4,1.3,3.4,1.9,6.1,1.9s2.4,0,3.8-.3c1.4-.2,2.8-.5,4.3-.8v5.4h0Z"/>
        <path class="cls-7" d="M1123.5,867.5h-5.6l-.2-5.8c-1.1,1.2-2.1,2.3-3.1,3.1-1,.8-1.9,1.5-2.9,2s-1.9.8-2.9,1.1c-1,.2-2,.3-3.1.3-3.7,0-6.5-1.1-8.4-3.2s-2.8-5.5-2.8-9.8v-23.5h6.2v23c0,5.5,2.1,8.3,6.2,8.3s1.5-.1,2.2-.3,1.5-.6,2.3-1.2,1.7-1.3,2.6-2.3c.9-1,1.9-2.2,3.1-3.6v-23.8h6.2v35.9h0Z"/>
        <path class="cls-7" d="M1133.1,850.3c0-3,.4-5.8,1.2-8.1.8-2.4,2-4.4,3.6-6s3.4-2.9,5.5-3.7,4.6-1.3,7.2-1.3,2.3,0,3.4.2,2.2.4,3.3.7v-15.1h6.3v50.5h-5.6l-.2-6.8c-1.7,2.5-3.6,4.4-5.7,5.6s-4.2,1.8-6.6,1.8-3.9-.4-5.4-1.3-2.9-2.1-3.9-3.6-1.8-3.4-2.3-5.6-.8-4.6-.8-7.3h0ZM1139.5,849.9c0,4.3.6,7.6,1.9,9.7s3.1,3.2,5.4,3.2,3.2-.7,5-2.1,3.6-3.5,5.5-6.3v-16.7c-1-.5-2.2-.8-3.4-1.1s-2.5-.4-3.7-.4c-3.4,0-6,1.1-7.9,3.3-1.9,2.2-2.8,5.6-2.8,10.3h0Z"/>
        <path class="cls-7" d="M1205.6,847.6c0,.9,0,1.6,0,2.2,0,.6,0,1.2-.1,1.7h-25.2c0,3.7,1,6.5,3.1,8.5,2.1,2,5,3,8.9,3s2.1,0,3.2-.1,2.1-.2,3-.3,1.9-.3,2.8-.5,1.7-.4,2.5-.6v5.1c-1.7.5-3.6.9-5.7,1.2s-4.3.5-6.6.5-5.7-.4-7.9-1.2-4-2-5.5-3.6-2.5-3.5-3.2-5.8-1-4.9-1-7.8.4-4.9,1.1-7.2,1.8-4.2,3.2-5.9c1.4-1.7,3.1-3.1,5.1-4.1,2-1,4.3-1.5,6.9-1.5s4.7.4,6.7,1.2,3.6,1.9,4.9,3.3,2.3,3.2,3,5.3c.7,2.1,1,4.4,1,6.9h0ZM1199.1,846.7c0-1.6,0-3.1-.5-4.4s-1-2.5-1.8-3.4c-.8-1-1.8-1.7-3-2.2-1.2-.5-2.6-.8-4.2-.8s-2.6.3-3.7.8c-1.1.5-2.1,1.3-2.9,2.2-.8,1-1.5,2.1-2,3.4s-.8,2.8-.9,4.4h18.9Z"/>
        <path class="cls-7" d="M1215.5,831.6h5.5l.2,5.8c1.1-1.2,2.1-2.3,3-3.1s1.9-1.5,2.9-2c.9-.5,1.9-.8,2.9-1.1,1-.2,2-.3,3-.3,3.7,0,6.5,1.1,8.4,3.3s2.8,5.5,2.8,9.8v23.4h-6.2v-22.9c0-2.8-.5-4.9-1.6-6.2-1.1-1.3-2.6-2-4.7-2s-1.5.1-2.2.3c-.7.2-1.5.6-2.3,1.2s-1.6,1.3-2.6,2.3-1.9,2.2-3.1,3.6v23.8h-6.2v-35.9h0Z"/>
        <path class="cls-7" d="M1284.7,867c-1.4.4-2.9.6-4.4.8-1.5.2-3,.2-4.6.2-4.5,0-7.9-1-10.1-3.1s-3.3-5.2-3.3-9.4v-18.7h-10.1v-5.2h10.1v-9.9l6.2-1.6v11.5h16.1v5.2h-16.1v18.2c0,2.6.7,4.5,2.1,5.8,1.4,1.3,3.4,1.9,6.1,1.9s2.4,0,3.8-.3c1.4-.2,2.8-.5,4.3-.8v5.4h0Z"/>
        <path class="cls-8" d="M520.5,942.7c0,2.2-.5,4.2-1.4,5.8-.9,1.7-2.2,3.1-3.8,4.2s-3.6,1.9-5.9,2.5-4.8.8-7.5.8-2.5,0-3.7-.1c-1.2,0-2.4-.2-3.5-.4-1.1-.1-2.2-.3-3.2-.5s-1.9-.4-2.7-.6v-6.2c1.8.7,3.8,1.2,6,1.6s4.8.6,7.6.6,3.8-.2,5.2-.5,2.6-.8,3.5-1.4,1.6-1.4,2-2.3.6-1.9.6-3.1-.3-2.3-1.1-3.2-1.6-1.7-2.8-2.4-2.5-1.3-3.9-1.9-3-1.2-4.5-1.8-3-1.3-4.5-2c-1.5-.7-2.8-1.6-3.9-2.6s-2.1-2.2-2.8-3.5c-.7-1.3-1-2.9-1-4.8s.3-3.2,1-4.7,1.7-2.9,3.1-4.1c1.4-1.2,3.2-2.2,5.4-2.9,2.2-.7,4.8-1.1,7.9-1.1s1.6,0,2.6.1,1.9.2,2.8.3,1.9.3,2.8.5,1.8.3,2.6.5v5.7c-1.8-.5-3.7-.9-5.5-1.2s-3.6-.4-5.3-.4c-3.6,0-6.3.6-8,1.8-1.7,1.2-2.6,2.8-2.6,4.9s.4,2.3,1.1,3.2c.7.9,1.6,1.7,2.8,2.4,1.1.7,2.5,1.4,3.9,2s3,1.2,4.5,1.8,3,1.3,4.5,2c1.5.7,2.8,1.6,3.9,2.6,1.1,1,2.1,2.2,2.8,3.6s1,3,1,4.8h0Z"/>
        <path class="cls-8" d="M558.9,955.4h-26.6v-46.8h26.6v5.4h-20.2v14.5h19.4v5.4h-19.4v16.1h20.2v5.4h0Z"/>
        <path class="cls-8" d="M602.6,914.1h-13.8v41.3h-6.4v-41.3h-13.8v-5.4h34.1v5.4h0Z"/>
        <path class="cls-7" d="M682,955.4h-8.3l-13.6-29.2-3.9-9.4v38.5h-5.9v-46.8h8.2l13,27.6,4.7,10.7v-38.3h5.9v46.8h0Z"/>
        <path class="cls-7" d="M715,955.4v-4.8c-2.1,1.9-4.1,3.3-6.1,4.2-2,.9-4.1,1.3-6.3,1.3s-3.8-.3-5.3-.8c-1.5-.5-2.7-1.2-3.6-2.2s-1.6-2-2.1-3.2-.7-2.6-.7-4c0-3.6,1.3-6.4,4-8.5s6.7-3.1,11.9-3.1h7.4v-3.2c0-2.1-.7-3.8-2-5.1-1.4-1.3-3.4-1.9-6.2-1.9s-4,.2-6,.7-4,1.1-6.1,1.9v-5.6c.8-.3,1.7-.6,2.6-.8,1-.3,2-.5,3.1-.7,1.1-.2,2.2-.4,3.4-.5s2.3-.2,3.5-.2c2.2,0,4.1.2,5.9.7,1.7.5,3.2,1.2,4.4,2.2s2.1,2.2,2.8,3.7,1,3.2,1,5.2v24.8h-5.6ZM714.3,939h-7.9c-1.5,0-2.9.2-4,.5-1.1.3-2,.8-2.8,1.3-.7.6-1.2,1.3-1.6,2.1-.3.8-.5,1.7-.5,2.7s.1,1.3.3,2,.6,1.2,1,1.7,1.1.9,1.9,1.2c.8.3,1.7.4,2.8.4s3.1-.4,4.9-1.3,3.8-2.2,5.8-4.1v-6.4h0Z"/>
        <path class="cls-7" d="M757.8,955.4v-25.8c0-1.1,0-2-.1-2.8,0-.7-.2-1.3-.4-1.7s-.4-.7-.7-.9-.6-.2-1-.2-.9.1-1.3.4c-.4.3-.8.8-1.3,1.4-.5.6-1,1.5-1.5,2.6s-1.2,2.4-2,3.9v23.1h-5.7v-25.1c0-1.3,0-2.4-.1-3.2s-.2-1.4-.4-1.9c-.2-.5-.4-.8-.7-.9-.3-.2-.6-.2-1-.2s-.8.1-1.2.4c-.4.2-.8.7-1.3,1.3-.5.6-1,1.5-1.6,2.5s-1.2,2.4-2,4.1v23.1h-5.7v-35.9h4.8l.3,6.8c.6-1.4,1.2-2.5,1.8-3.5.6-1,1.2-1.7,1.8-2.3s1.3-1,2-1.3c.7-.3,1.5-.4,2.3-.4,1.9,0,3.4.6,4.4,1.9,1,1.3,1.5,3.2,1.5,5.9.6-1.2,1.1-2.3,1.7-3.3s1.1-1.8,1.8-2.4c.6-.7,1.3-1.2,2.1-1.5.8-.3,1.7-.5,2.7-.5,4.5,0,6.8,3.5,6.8,10.4v26.2h-5.7,0Z"/>
        <path class="cls-7" d="M802.8,935.5c0,.9,0,1.6,0,2.2,0,.6,0,1.2-.1,1.7h-25.2c0,3.7,1,6.5,3.1,8.5,2,2,5,3,8.9,3s2.1,0,3.2-.1c1,0,2.1-.2,3-.3s1.9-.3,2.8-.5,1.7-.4,2.5-.6v5.1c-1.7.5-3.6.9-5.7,1.2s-4.3.5-6.6.5-5.7-.4-7.9-1.2c-2.2-.8-4-2-5.5-3.6s-2.5-3.5-3.2-5.8-1-4.9-1-7.8.4-4.9,1.1-7.2c.7-2.2,1.8-4.2,3.2-5.9,1.4-1.7,3.1-3.1,5.1-4.1,2-1,4.3-1.5,6.9-1.5s4.7.4,6.7,1.2c1.9.8,3.6,1.9,4.9,3.3s2.3,3.2,3,5.3c.7,2.1,1,4.4,1,6.9h0ZM796.3,934.6c0-1.6,0-3.1-.5-4.4s-1-2.5-1.8-3.4c-.8-1-1.8-1.7-3-2.2-1.2-.5-2.6-.8-4.2-.8s-2.6.3-3.7.8c-1.1.5-2.1,1.3-2.9,2.2-.8,1-1.5,2.1-2,3.4s-.8,2.8-.9,4.4h18.9Z"/>
        <path class="cls-7" d="M882.8,932.3h-30.8v-5.3h30.8v5.3ZM882.8,944.7h-30.8v-5.3h30.8v5.3Z"/>
        <path class="cls-7" d="M952.1,904.8l-1,16.8h-6.2l-1-16.8h8.2Z"/>
        <path class="cls-12" d="M1008,955.4h-6.9l-3.2-10.2h-19.5l-3.3,10.2h-6.6l15.5-46.8h8.7l15.3,46.8ZM996,939.5l-7.9-25-7.9,25h15.8Z"/>
        <path class="cls-12" d="M1044.8,936.8c0,3-.4,5.7-1.2,8-.8,2.3-2,4.3-3.5,6-1.5,1.6-3.4,2.9-5.5,3.8s-4.6,1.3-7.3,1.3-4.3-.2-6.5-.6c-2.2-.4-4.4-1-6.6-1.9v-48.4h6.2v13.9l-.3,6.7c1.8-2.4,3.7-4.1,5.7-5.1,2-1,4.2-1.5,6.6-1.5s3.8.4,5.4,1.3,2.8,2.1,3.9,3.6,1.8,3.5,2.4,5.7c.5,2.2.8,4.7.8,7.4h0ZM1038.4,937.1c0-1.9-.1-3.6-.4-5.2-.3-1.6-.7-2.9-1.3-4-.6-1.1-1.4-2-2.3-2.6s-2-1-3.3-1-1.6.1-2.4.4c-.8.2-1.7.7-2.5,1.2s-1.8,1.4-2.8,2.3-2,2.2-3.1,3.6v17.4c1.2.5,2.5.8,3.7,1.1,1.3.3,2.5.4,3.6.4s2.8-.2,4.1-.7c1.3-.5,2.4-1.2,3.4-2.3,1-1.1,1.8-2.5,2.4-4.2s.9-3.9.9-6.5h0Z"/>
        <path class="cls-12" d="M1055.9,919.5h5.7l.2,6.6c2.1-2.5,4.2-4.4,6.3-5.5,2.1-1.1,4.1-1.7,6.2-1.7,3.7,0,6.5,1.2,8.5,3.6,1.9,2.4,2.8,6,2.7,10.7h-6.3c0-3.2-.4-5.4-1.4-6.8s-2.4-2.1-4.3-2.1-1.7.2-2.5.5c-.8.3-1.7.8-2.6,1.4s-1.8,1.5-2.8,2.5c-1,1-2.1,2.3-3.2,3.7v23.1h-6.3v-35.9h0Z"/>
        <path class="cls-12" d="M1117.8,955.4v-4.8c-2.1,1.9-4.1,3.3-6.1,4.2-2,.9-4.1,1.3-6.3,1.3s-3.8-.3-5.3-.8c-1.4-.5-2.7-1.2-3.6-2.2s-1.6-2-2.1-3.2-.7-2.6-.7-4c0-3.6,1.3-6.4,4-8.5s6.7-3.1,11.9-3.1h7.4v-3.2c0-2.1-.7-3.8-2-5.1-1.4-1.3-3.4-1.9-6.2-1.9s-4,.2-6,.7-4,1.1-6.1,1.9v-5.6c.8-.3,1.7-.6,2.6-.8s2-.5,3.1-.7c1.1-.2,2.2-.4,3.4-.5s2.3-.2,3.5-.2c2.2,0,4.1.2,5.9.7,1.7.5,3.2,1.2,4.4,2.2s2.1,2.2,2.8,3.7,1,3.2,1,5.2v24.8h-5.6ZM1117.1,939h-7.9c-1.6,0-2.9.2-4,.5-1.1.3-2,.8-2.8,1.3-.7.6-1.2,1.3-1.6,2.1-.3.8-.5,1.7-.5,2.7s.1,1.3.3,2,.6,1.2,1,1.7,1.1.9,1.9,1.2c.8.3,1.7.4,2.8.4s3.1-.4,4.9-1.3c1.8-.9,3.8-2.2,5.8-4.1v-6.4h0Z"/>
        <path class="cls-12" d="M1163.8,955.4h-6.2v-22.9c0-2.8-.5-4.8-1.6-6.2-1-1.4-2.5-2.1-4.4-2.1s-1.6.1-2.3.3-1.5.6-2.3,1.2-1.7,1.3-2.6,2.3c-.9,1-2,2.2-3.2,3.6v23.8h-6.2v-50.5h6.2v14.6l-.2,5.7c1-1.2,1.9-2.2,2.9-3,.9-.8,1.9-1.5,2.8-2,.9-.5,1.9-.9,2.9-1.1s2-.3,3-.3c3.6,0,6.3,1.1,8.3,3.3s2.9,5.5,2.9,9.8v23.4h0Z"/>
        <path class="cls-12" d="M1198.3,955.4v-4.8c-2.1,1.9-4.1,3.3-6.1,4.2-2,.9-4.1,1.3-6.3,1.3s-3.8-.3-5.3-.8c-1.4-.5-2.7-1.2-3.6-2.2s-1.6-2-2.1-3.2-.7-2.6-.7-4c0-3.6,1.3-6.4,4-8.5s6.7-3.1,11.9-3.1h7.4v-3.2c0-2.1-.7-3.8-2-5.1-1.4-1.3-3.4-1.9-6.2-1.9s-4,.2-6,.7-4,1.1-6.1,1.9v-5.6c.8-.3,1.7-.6,2.6-.8s2-.5,3.1-.7c1.1-.2,2.2-.4,3.4-.5s2.3-.2,3.5-.2c2.2,0,4.1.2,5.9.7,1.7.5,3.2,1.2,4.4,2.2s2.1,2.2,2.8,3.7,1,3.2,1,5.2v24.8h-5.6ZM1197.6,939h-7.9c-1.6,0-2.9.2-4,.5-1.1.3-2,.8-2.8,1.3-.7.6-1.2,1.3-1.6,2.1-.3.8-.5,1.7-.5,2.7s.1,1.3.3,2,.6,1.2,1,1.7,1.1.9,1.9,1.2c.8.3,1.7.4,2.8.4s3.1-.4,4.9-1.3c1.8-.9,3.8-2.2,5.8-4.1v-6.4h0Z"/>
        <path class="cls-12" d="M1241.1,955.4v-25.8c0-1.1,0-2-.1-2.8,0-.7-.2-1.3-.4-1.7s-.4-.7-.7-.9-.6-.2-1-.2-.9.1-1.3.4c-.4.3-.8.8-1.3,1.4-.5.6-1,1.5-1.5,2.6s-1.2,2.4-2,3.9v23.1h-5.7v-25.1c0-1.3,0-2.4-.1-3.2s-.2-1.4-.4-1.9c-.2-.5-.4-.8-.7-.9-.3-.2-.6-.2-1-.2s-.8.1-1.2.4c-.4.2-.8.7-1.3,1.3s-1,1.5-1.6,2.5-1.2,2.4-2,4.1v23.1h-5.7v-35.9h4.8l.3,6.8c.6-1.4,1.2-2.5,1.8-3.5.6-1,1.2-1.7,1.8-2.3s1.3-1,2-1.3c.7-.3,1.5-.4,2.3-.4,1.9,0,3.4.6,4.4,1.9,1,1.3,1.5,3.2,1.5,5.9.6-1.2,1.1-2.3,1.7-3.3s1.1-1.8,1.8-2.4c.6-.7,1.3-1.2,2.1-1.5.8-.3,1.7-.5,2.7-.5,4.5,0,6.8,3.5,6.8,10.4v26.2h-5.7,0Z"/>
        <path class="cls-7" d="M1274.3,904.8l-1,16.8h-6.2l-1-16.8h8.2Z"/>
        <path class="cls-8" d="M523.5,996.5l-3.2,46.8h-8.3l-5.8-16.6-1.6-5.3-1.7,5.8-5.4,16.2h-8l-3.2-46.8h6l1.8,31.8.5,8.7,2.2-7.4,5.6-17.3h4.4l6.5,18.6,2.2,6.2v-6.4c.1,0,2-34.1,2-34.1h5.7Z"/>
        <path class="cls-8" d="M561.5,1043.3h-6.4v-21.5h-19.6v21.5h-6.4v-46.8h6.4v19.8h19.6v-19.8h6.4v46.8Z"/>
        <path class="cls-8" d="M599.2,1043.3h-26.6v-46.8h26.6v5.4h-20.2v14.5h19.4v5.4h-19.4v16.1h20.2v5.4h0Z"/>
        <path class="cls-8" d="M643.2,1043.3h-7.2l-7-14.9c-.5-1.1-1.1-2.1-1.6-2.8s-1.1-1.3-1.8-1.8-1.3-.8-2.1-1-1.6-.3-2.5-.3h-3v20.8h-6.4v-46.8h12.5c2.7,0,5,.3,7,.9,2,.6,3.6,1.4,4.8,2.5s2.2,2.4,2.8,3.9.9,3.2.9,5-.2,2.8-.6,4.1-1.1,2.5-1.9,3.5c-.8,1.1-1.9,2-3.2,2.8-1.2.8-2.7,1.3-4.3,1.7,1.3.5,2.4,1.2,3.3,2.4.9,1.1,1.8,2.6,2.8,4.5l7.4,15.4h0ZM633.1,1009.4c0-2.5-.8-4.4-2.3-5.6s-3.8-1.9-6.6-1.9h-6v15.5h5.2c1.5,0,2.9-.2,4.1-.5s2.2-.9,3.1-1.5,1.5-1.5,2-2.5c.5-1,.7-2.1.7-3.4h0Z"/>
        <path class="cls-8" d="M679.7,1043.3h-26.6v-46.8h26.6v5.4h-20.2v14.5h19.4v5.4h-19.4v16.1h20.2v5.4h0Z"/>
        <path class="cls-7" d="M743.4,1001.9h-10.8v-5.4h28v5.4h-10.8v35.9h10.8v5.4h-28v-5.4h10.8v-36h0Z"/>
        <path class="cls-7" d="M770.7,1026.1c0-3,.4-5.8,1.2-8.1.8-2.4,2-4.4,3.6-6s3.4-2.9,5.5-3.7,4.6-1.3,7.2-1.3,2.3,0,3.4.2,2.2.4,3.3.7v-15.1h6.3v50.5h-5.6l-.2-6.8c-1.7,2.5-3.6,4.4-5.7,5.6s-4.2,1.8-6.6,1.8-3.9-.4-5.4-1.3-2.9-2.1-3.9-3.6c-1-1.6-1.8-3.4-2.3-5.6-.5-2.2-.8-4.6-.8-7.3h0ZM777,1025.7c0,4.3.6,7.6,1.9,9.7s3.1,3.2,5.4,3.2,3.2-.7,5-2.1,3.6-3.5,5.5-6.3v-16.7c-1-.5-2.2-.8-3.4-1.1-1.2-.2-2.5-.4-3.7-.4-3.4,0-6,1.1-7.9,3.3-1.9,2.2-2.8,5.6-2.8,10.3h0Z"/>
        <path class="cls-7" d="M882.8,1020.2h-30.8v-5.3h30.8v5.3ZM882.8,1032.6h-30.8v-5.3h30.8v5.3Z"/>
        <path class="cls-18" d="M963,1029.1c0,2.1-.4,4-1.2,5.8s-2.1,3.4-3.8,4.7c-1.7,1.3-3.8,2.4-6.3,3.2-2.5.8-5.5,1.2-8.8,1.2s-3.5,0-5-.2-2.9-.3-4.2-.5v-5.6c1.5.3,3,.5,4.7.6,1.7.1,3.3.2,5,.2s4.3-.2,6-.6,3-1,4.1-1.8,1.8-1.7,2.3-2.9.7-2.4.7-3.8-.3-2.4-.9-3.4-1.4-1.8-2.4-2.4c-1-.6-2.3-1.1-3.7-1.5-1.4-.3-3-.5-4.7-.5h-5.3v-5.1h5.4c1.4,0,2.7-.2,3.8-.5,1.2-.4,2.2-.9,3-1.6.8-.7,1.5-1.5,1.9-2.6s.7-2.2.7-3.5c0-2.5-.8-4.3-2.3-5.5-1.5-1.1-3.8-1.7-6.7-1.7s-3.2.2-4.9.5c-1.7.3-3.5.8-5.4,1.4v-5.4c.8-.3,1.7-.5,2.6-.8s1.8-.4,2.8-.6,1.8-.3,2.7-.4c.9,0,1.8-.1,2.6-.1,2.5,0,4.7.3,6.5.8,1.9.5,3.5,1.3,4.7,2.3,1.3,1,2.2,2.2,2.9,3.7.6,1.4,1,3,1,4.8,0,2.7-.7,4.9-2.1,6.7s-3.2,3.2-5.6,4.3c1.2.2,2.4.6,3.6,1.1,1.2.6,2.2,1.3,3.2,2.2s1.7,2,2.3,3.2c.6,1.2.9,2.6.9,4h0Z"/>
        <path class="cls-18" d="M1004.2,1031.6c0,2-.4,3.7-1.2,5.3s-1.9,2.8-3.4,3.9-3.2,1.8-5.2,2.4c-2,.6-4.1.8-6.4.8s-4.8-.3-6.7-.9-3.6-1.4-4.9-2.4c-1.3-1-2.3-2.2-3-3.7s-1-3-1-4.7c0-2.9.8-5.3,2.4-7.4,1.6-2.1,4.1-4,7.4-5.7-3-1.5-5.3-3.3-6.7-5.2-1.4-1.9-2.1-4.1-2.1-6.5s.3-3,.9-4.4c.6-1.4,1.6-2.7,2.8-3.8,1.2-1.1,2.8-2,4.7-2.6,1.9-.7,4.1-1,6.7-1s4.5.3,6.3.8,3.4,1.2,4.6,2.2,2.2,2.1,2.8,3.5.9,2.9.9,4.5c0,2.7-.8,5-2.3,6.9s-3.7,3.6-6.5,5c1.4.7,2.7,1.5,3.9,2.3s2.2,1.8,3.1,2.8c.9,1,1.6,2.2,2.1,3.4s.7,2.7.7,4.2h0ZM997.4,1032c0-.9-.1-1.7-.4-2.6s-.8-1.7-1.5-2.5c-.7-.8-1.7-1.6-3-2.4-1.2-.8-2.8-1.7-4.7-2.5-1.6.8-3,1.6-4.1,2.3-1.1.8-2,1.6-2.7,2.4-.7.8-1.2,1.6-1.5,2.5s-.4,1.8-.4,2.7.2,2,.7,2.8c.5.8,1.1,1.5,1.9,2.1s1.8,1,2.9,1.3,2.3.4,3.7.4,2.5-.1,3.6-.4,2.1-.7,2.9-1.2c.8-.5,1.5-1.2,2-2,.5-.8.7-1.8.7-2.9h0ZM996.8,1007.4c0-2.1-.8-3.7-2.2-4.7s-3.6-1.6-6.3-1.6-4.8.5-6.2,1.5-2.2,2.6-2.2,4.6.2,1.8.5,2.6c.4.8.9,1.5,1.7,2.2s1.7,1.4,2.8,2,2.5,1.3,4,2c2.7-1.3,4.7-2.6,6-4s2-3,2-4.8h0Z"/>
        <path class="cls-18" d="M1044.5,1031.6c0,2-.4,3.7-1.2,5.3s-1.9,2.8-3.4,3.9c-1.5,1.1-3.2,1.8-5.2,2.4s-4.1.8-6.4.8-4.8-.3-6.7-.9-3.6-1.4-4.9-2.4c-1.3-1-2.3-2.2-3-3.7s-1-3-1-4.7c0-2.9.8-5.3,2.4-7.4,1.6-2.1,4.1-4,7.4-5.7-3-1.5-5.3-3.3-6.7-5.2-1.4-1.9-2.1-4.1-2.1-6.5s.3-3,.9-4.4c.6-1.4,1.6-2.7,2.8-3.8,1.2-1.1,2.8-2,4.7-2.6,1.9-.7,4.1-1,6.7-1s4.5.3,6.3.8,3.4,1.2,4.6,2.2,2.2,2.1,2.8,3.5.9,2.9.9,4.5c0,2.7-.8,5-2.3,6.9s-3.7,3.6-6.5,5c1.4.7,2.7,1.5,3.9,2.3s2.2,1.8,3.1,2.8c.9,1,1.6,2.2,2.1,3.4.5,1.3.7,2.7.7,4.2h0ZM1037.7,1032c0-.9-.1-1.7-.4-2.6s-.8-1.7-1.5-2.5c-.7-.8-1.7-1.6-3-2.4-1.2-.8-2.8-1.7-4.7-2.5-1.6.8-3,1.6-4.1,2.3-1.1.8-2,1.6-2.7,2.4-.7.8-1.2,1.6-1.5,2.5s-.4,1.8-.4,2.7.2,2,.7,2.8c.5.8,1.1,1.5,1.9,2.1s1.8,1,2.9,1.3c1.1.3,2.3.4,3.7.4s2.5-.1,3.6-.4,2.1-.7,2.9-1.2c.8-.5,1.5-1.2,1.9-2,.5-.8.7-1.8.7-2.9h0ZM1037.1,1007.4c0-2.1-.8-3.7-2.2-4.7s-3.6-1.6-6.3-1.6-4.8.5-6.2,1.5-2.2,2.6-2.2,4.6.2,1.8.5,2.6c.4.8.9,1.5,1.7,2.2s1.7,1.4,2.8,2c1.1.7,2.5,1.3,4,2,2.7-1.3,4.7-2.6,6-4s2-3,2-4.8h0Z"/>
      </g>
      <g>
        <path class="cls-14" d="M2828.3,96.7h-131.5s-56.7-1.1-56.7,91.3,48.2,91.3,48.2,91.3h38v-45.4s-2.8-51.6,47.6-51.6h104.9s40,1.1,40-40V46.2s-3.7-45.9-76.3-45.9-30.6,0-30.6,0c0,0-75.4-6.8-75.4,41.4s0,43.7,0,43.7h91.3l.6,11.3h0Z"/>
        <path class="cls-17" d="M2830.6,279.9h131.5s56.7,1.1,56.7-91.3-48.2-91.3-48.2-91.3h-38v45.4s2.8,51.6-47.6,51.6h-104.9s-40-1.1-40,40v96.1s3.7,45.9,76.2,45.9,30.6,0,30.6,0c0,0,75.4,6.8,75.4-41.4s0-43.7,0-43.7h-91.3l-.6-11.3h0Z"/>
        <path class="cls-15" d="M2798.1,46.8c0,10.3-8.4,18.7-18.7,18.7s-18.7-8.4-18.7-18.7,8.4-18.7,18.7-18.7,18.7,8.4,18.7,18.7Z"/>
        <path class="cls-15" d="M2860.8,329.8c0-10.3,8.4-18.7,18.7-18.7s18.7,8.4,18.7,18.7-8.4,18.7-18.7,18.7-18.7-8.4-18.7-18.7Z"/>
      </g>
      <g>
        <path class="cls-6" d="M514.9,1565.1v-179h46.5v19.2c6.4-8.1,12.3-13.5,17.7-16.4,7.2-3.8,15.3-5.7,24-5.7,17.3,0,30.7,6.6,40.2,19.9,9.5,13.3,14.2,29.7,14.2,49.2s-5.2,38-15.5,49.4c-10.3,11.4-23.4,17-39.2,17s-14.6-1.3-20.9-3.9c-6.3-2.6-11.9-6.5-16.9-11.6v61.9h-50.2ZM564.7,1451.4c0,10.3,2.2,17.9,6.5,22.8,4.3,5,9.8,7.4,16.4,7.4s10.6-2.4,14.5-7.1c3.9-4.8,5.9-12.8,5.9-24.2s-2-18.2-6.1-23.1c-4.1-4.9-9-7.4-14.9-7.4s-11.6,2.5-15.9,7.4c-4.2,5-6.3,13-6.3,24.2Z"/>
        <path class="cls-6" d="M817.9,1336.8v179h-46.5v-19.2c-6.5,8.1-12.5,13.6-17.8,16.5-7.2,3.7-15.1,5.6-23.9,5.6-17.7,0-31.1-6.7-40.5-20.1-9.3-13.4-14-29.7-14-49s5.1-37.9,15.4-49.3c10.3-11.4,23.4-17.1,39.2-17.1s14.7,1.3,21.1,3.9c6.3,2.6,11.9,6.5,16.8,11.7v-62h50.2ZM768.1,1450.6c0-10.2-2.2-17.8-6.5-22.8-4.3-5-9.8-7.5-16.4-7.5s-10.6,2.4-14.5,7.2c-3.9,4.8-5.9,12.9-5.9,24.2s2,18.3,6,23.3,9,7.4,15,7.4,11.6-2.5,15.9-7.4c4.2-5,6.3-13.1,6.3-24.3Z"/>
        <path class="cls-6" d="M848.5,1386.2h46.4v18.9c6.7-7.9,13.4-13.5,20.2-16.8,6.8-3.3,15-5,24.6-5s18.5,1.8,24.6,5.5,11,9.1,14.8,16.4c7.8-8.5,14.9-14.2,21.3-17.3,6.4-3.1,14.3-4.6,23.8-4.6,13.9,0,24.7,4.1,32.5,12.4,7.8,8.3,11.7,21.2,11.7,38.8v81.4h-49.8v-73.9c0-5.9-1.1-10.2-3.4-13.1-3.3-4.5-7.5-6.7-12.4-6.7s-10.5,2.1-14.1,6.3c-3.6,4.2-5.4,11-5.4,20.4v66.9h-49.8v-71.4c0-5.7-.3-9.6-1-11.6-1.1-3.3-2.9-5.9-5.5-7.9-2.6-2-5.7-3-9.2-3-5.7,0-10.4,2.2-14.1,6.5-3.7,4.3-5.5,11.4-5.5,21.2v66.2h-49.8v-129.6Z"/>
        <path class="cls-6" d="M1088.6,1431.3h72.3v38.5h-72.3v-38.5Z"/>
        <path class="cls-6" d="M1317.9,1336.8v179h-46.5v-19.2c-6.5,8.1-12.5,13.6-17.8,16.5-7.2,3.7-15.1,5.6-23.9,5.6-17.7,0-31.1-6.7-40.5-20.1-9.3-13.4-14-29.7-14-49s5.1-37.9,15.4-49.3c10.3-11.4,23.4-17.1,39.2-17.1s14.7,1.3,21.1,3.9c6.3,2.6,11.9,6.5,16.8,11.7v-62h50.2ZM1268.1,1450.6c0-10.2-2.2-17.8-6.5-22.8-4.3-5-9.8-7.5-16.4-7.5s-10.6,2.4-14.5,7.2c-3.9,4.8-5.9,12.9-5.9,24.2s2,18.3,6,23.3,9,7.4,15,7.4,11.6-2.5,15.9-7.4c4.2-5,6.3-13.1,6.3-24.3Z"/>
        <path class="cls-6" d="M1393.4,1428.2l-47.5-5c1.8-8.3,4.4-14.8,7.8-19.6,3.4-4.8,8.2-8.9,14.6-12.4,4.6-2.5,10.8-4.5,18.8-5.9,8-1.4,16.6-2.1,25.9-2.1,14.9,0,26.9.8,35.9,2.5,9,1.7,16.6,5.1,22.6,10.4,4.2,3.7,7.6,8.8,10,15.6,2.4,6.7,3.7,13.1,3.7,19.2v57.2c0,6.1.4,10.9,1.2,14.3.8,3.5,2.5,7.9,5.1,13.2h-46.6c-1.9-3.3-3.1-5.9-3.7-7.6-.6-1.8-1.1-4.5-1.7-8.2-6.5,6.3-13,10.7-19.4,13.4-8.8,3.6-19,5.4-30.6,5.4s-27.2-3.6-35.2-10.7c-8-7.2-12-16-12-26.5s2.9-17.9,8.7-24.3c5.8-6.3,16.4-11.1,32-14.2,18.6-3.7,30.7-6.4,36.3-7.9,5.5-1.5,11.4-3.5,17.6-5.9,0-6.1-1.3-10.4-3.8-12.8-2.5-2.4-7-3.7-13.3-3.7s-14.2,1.3-18.3,3.9c-3.2,2-5.7,5.9-7.7,11.5ZM1436.5,1454.3c-6.8,2.4-14,4.6-21.4,6.5-10.1,2.7-16.5,5.3-19.2,7.9-2.8,2.7-4.2,5.7-4.2,9.2s1.4,7.1,4.1,9.6c2.7,2.5,6.7,3.7,12,3.7s10.7-1.3,15.4-4,8.1-6,10.1-9.8c2-3.9,3-8.9,3-15.1v-7.9Z"/>
        <path class="cls-6" d="M1570.6,1336.8v49.3h27.3v36.4h-27.3v45.9c0,5.5.5,9.2,1.6,11,1.6,2.8,4.5,4.1,8.5,4.1s8.8-1.1,15.4-3.2l3.7,34.3c-12.3,2.7-23.8,4-34.4,4s-21.5-1.6-27.3-4.8-10.2-8-13-14.4c-2.8-6.5-4.2-16.9-4.2-31.4v-45.6h-18.3v-36.4h18.3v-23.8l49.8-25.5Z"/>
        <path class="cls-6" d="M1666.9,1428.2l-47.5-5c1.8-8.3,4.4-14.8,7.8-19.6,3.4-4.8,8.2-8.9,14.6-12.4,4.6-2.5,10.8-4.5,18.8-5.9,8-1.4,16.6-2.1,25.9-2.1,14.9,0,26.9.8,35.9,2.5,9,1.7,16.6,5.1,22.6,10.4,4.2,3.7,7.6,8.8,10,15.6,2.4,6.7,3.7,13.1,3.7,19.2v57.2c0,6.1.4,10.9,1.2,14.3.8,3.5,2.5,7.9,5.1,13.2h-46.6c-1.9-3.3-3.1-5.9-3.7-7.6-.6-1.8-1.1-4.5-1.7-8.2-6.5,6.3-13,10.7-19.4,13.4-8.8,3.6-19,5.4-30.6,5.4s-27.2-3.6-35.2-10.7c-8-7.2-12-16-12-26.5s2.9-17.9,8.7-24.3c5.8-6.3,16.4-11.1,32-14.2,18.6-3.7,30.7-6.4,36.3-7.9,5.5-1.5,11.4-3.5,17.6-5.9,0-6.1-1.3-10.4-3.8-12.8-2.5-2.4-7-3.7-13.3-3.7s-14.2,1.3-18.3,3.9c-3.2,2-5.7,5.9-7.7,11.5ZM1710,1454.3c-6.8,2.4-14,4.6-21.4,6.5-10.1,2.7-16.5,5.3-19.2,7.9-2.8,2.7-4.2,5.7-4.2,9.2s1.4,7.1,4.1,9.6c2.7,2.5,6.7,3.7,12,3.7s10.7-1.3,15.4-4,8.1-6,10.1-9.8c2-3.9,3-8.9,3-15.1v-7.9Z"/>
        <path class="cls-6" d="M1788.8,1386.2h46.5v21.2c4.5-9.2,9.1-15.5,13.9-19,4.8-3.5,10.6-5.2,17.6-5.2s15.3,2.3,24,6.8l-15.4,35.4c-5.9-2.4-10.5-3.7-13.9-3.7-6.5,0-11.6,2.7-15.1,8.1-5.1,7.6-7.7,21.7-7.7,42.5v43.5h-49.9v-129.6Z"/>
        <path class="cls-6" d="M2047.3,1463.3h-99.6c.9,8,3.1,13.9,6.5,17.8,4.8,5.6,11.1,8.4,18.8,8.4s9.5-1.2,13.9-3.7c2.7-1.5,5.6-4.3,8.7-8.2l48.9,4.5c-7.5,13-16.5,22.4-27.1,28-10.6,5.7-25.8,8.5-45.5,8.5s-30.7-2.4-40.5-7.3c-9.8-4.8-18-12.5-24.5-23.1s-9.7-22.9-9.7-37.2c0-20.3,6.5-36.7,19.5-49.2,13-12.5,30.9-18.8,53.8-18.8s33.2,2.8,43.9,8.4,18.9,13.8,24.5,24.4c5.6,10.7,8.4,24.5,8.4,41.6v5.6ZM1996.7,1439.5c-1-9.6-3.6-16.5-7.8-20.6s-9.7-6.2-16.5-6.2-14.2,3.1-18.9,9.4c-3,3.9-4.9,9.7-5.7,17.5h49Z"/>
        <path class="cls-6" d="M2115.4,1428.2l-47.5-5c1.8-8.3,4.4-14.8,7.8-19.6,3.4-4.8,8.2-8.9,14.6-12.4,4.6-2.5,10.8-4.5,18.8-5.9,8-1.4,16.6-2.1,25.9-2.1,14.9,0,26.9.8,35.9,2.5,9,1.7,16.6,5.1,22.6,10.4,4.2,3.7,7.6,8.8,10,15.6,2.4,6.7,3.7,13.1,3.7,19.2v57.2c0,6.1.4,10.9,1.2,14.3s2.5,7.9,5.1,13.2h-46.6c-1.9-3.3-3.1-5.9-3.7-7.6-.6-1.8-1.1-4.5-1.7-8.2-6.5,6.3-13,10.7-19.4,13.4-8.8,3.6-19,5.4-30.6,5.4s-27.2-3.6-35.2-10.7c-8-7.2-12-16-12-26.5s2.9-17.9,8.7-24.3c5.8-6.3,16.4-11.1,32-14.2,18.6-3.7,30.7-6.4,36.3-7.9,5.5-1.5,11.4-3.5,17.6-5.9,0-6.1-1.3-10.4-3.8-12.8-2.5-2.4-7-3.7-13.3-3.7s-14.2,1.3-18.3,3.9c-3.2,2-5.7,5.9-7.7,11.5ZM2158.5,1454.3c-6.8,2.4-14,4.6-21.4,6.5-10.1,2.7-16.5,5.3-19.2,7.9-2.8,2.7-4.2,5.7-4.2,9.2s1.4,7.1,4.1,9.6,6.7,3.7,12,3.7,10.7-1.3,15.4-4c4.8-2.7,8.1-6,10.1-9.8,2-3.9,3-8.9,3-15.1v-7.9Z"/>
        <path class="cls-6" d="M2373.3,1336.8v179h-46.5v-19.2c-6.5,8.1-12.5,13.6-17.8,16.5-7.2,3.7-15.1,5.6-23.9,5.6-17.7,0-31.1-6.7-40.5-20.1s-14-29.7-14-49,5.1-37.9,15.4-49.3c10.3-11.4,23.4-17.1,39.2-17.1s14.8,1.3,21.1,3.9c6.3,2.6,11.9,6.5,16.8,11.7v-62h50.2ZM2323.5,1450.6c0-10.2-2.2-17.8-6.5-22.8-4.3-5-9.8-7.5-16.4-7.5s-10.6,2.4-14.5,7.2c-3.9,4.8-5.9,12.9-5.9,24.2s2,18.3,6,23.3c4,4.9,9,7.4,15,7.4s11.6-2.5,15.9-7.4c4.2-5,6.3-13.1,6.3-24.3Z"/>
        <path class="cls-6" d="M2547.5,1463.3h-99.6c.9,8,3.1,13.9,6.5,17.8,4.8,5.6,11.1,8.4,18.8,8.4s9.5-1.2,13.9-3.7c2.7-1.5,5.6-4.3,8.7-8.2l49,4.5c-7.5,13-16.5,22.4-27.1,28-10.6,5.7-25.8,8.5-45.5,8.5s-30.7-2.4-40.5-7.3c-9.8-4.8-18-12.5-24.5-23.1-6.5-10.5-9.7-22.9-9.7-37.2,0-20.3,6.5-36.7,19.5-49.2,13-12.5,30.9-18.8,53.8-18.8s33.2,2.8,43.9,8.4,18.9,13.8,24.5,24.4c5.6,10.7,8.4,24.5,8.4,41.6v5.6ZM2497,1439.5c-1-9.6-3.6-16.5-7.8-20.6s-9.7-6.2-16.5-6.2-14.2,3.1-18.9,9.4c-3,3.9-4.9,9.7-5.7,17.5h49Z"/>
        <path class="cls-6" d="M2570.8,1386.2h46.5v21.2c4.5-9.2,9.1-15.5,13.9-19,4.8-3.5,10.6-5.2,17.6-5.2s15.3,2.3,24,6.8l-15.4,35.4c-5.9-2.4-10.5-3.7-13.9-3.7-6.5,0-11.6,2.7-15.1,8.1-5.1,7.6-7.7,21.7-7.7,42.5v43.5h-49.9v-129.6Z"/>
      </g>
    </g>
  </g>
</svg>