<?xml version="1.0" encoding="UTF-8"?>
<svg id="Layer_2" data-name="Layer 2" xmlns="http://www.w3.org/2000/svg" viewBox="0 0 3119.92 1999.52">
  <defs>
    <style>
      .cls-1 {
        fill: #fff;
      }

      .cls-2 {
        fill: #ffd645;
      }

      .cls-3 {
        fill: #f68c6c;
      }

      .cls-4 {
        fill: #f47521;
      }

      .cls-5 {
        fill: #13191c;
      }

      .cls-6 {
        fill: #f5f5f5;
      }

      .cls-7 {
        fill: #4eba6f;
      }

      .cls-8 {
        fill: #8fd8f8;
      }

      .cls-9 {
        fill: #b993c4;
      }

      .cls-10 {
        fill: #d4d4d4;
      }

      .cls-11 {
        fill: #afd281;
      }

      .cls-12 {
        fill: #3f525c;
      }

      .cls-13 {
        fill: #878787;
      }

      .cls-14 {
        fill: #e8e8e8;
      }

      .cls-15 {
        fill: #f7941d;
      }

      .cls-16 {
        fill: #3772a4;
      }

      .cls-17 {
        fill: #3d5059;
      }

      .cls-18 {
        fill: #010101;
      }

      .cls-19 {
        fill: #263238;
      }

      .cls-20 {
        fill: #c0bfbf;
      }
    </style>
  </defs>
  <g id="objects">
    <g id="laptop">
      <path class="cls-18" d="m353.56,188.31h2388.85c48.03,0,87.02,38.99,87.02,87.02v1560.69c0,48.03-38.99,87.02-87.02,87.02H353.56c-48.03,0-87.02-38.99-87.02-87.02V275.33c0-48.03,38.99-87.02,87.02-87.02Z"/>
      <path class="cls-20" d="m.18,1967.81s-6.84,31.72,202.98,31.72h2789.43s108.34.83,126.72-31.07v-40.47H0l.18,39.83Z"/>
      <rect class="cls-14" x=".66" y="1907.33" width="3119.26" height="61.12"/>
      <rect class="cls-19" x="341.53" y="268.42" width="2412.93" height="1575.5"/>
      <path class="cls-20" d="m1838.78,1922.61c0,8.43-6.84,15.28-15.28,15.28h-526.42c-8.44,0-15.28-6.84-15.28-15.28h0c0-8.44,6.84-15.28,15.28-15.28h526.42c8.44,0,15.28,6.84,15.28,15.28h0Z"/>
    </g>
    <g id="text-editor">
      <rect class="cls-17" x="340.91" y="306.17" width="68.94" height="1575.5"/>
      <rect class="cls-5" x="409.85" y="306.17" width="2343.99" height="68.92"/>
      <g>
        <rect class="cls-12" x="409.85" y="306.17" width="524.31" height="68.92"/>
        <rect class="cls-7" x="409.85" y="306.17" width="21.35" height="68.92"/>
      </g>
      <g>
        <rect class="cls-19" x="932.35" y="306.17" width="370.18" height="68.92"/>
        <rect class="cls-15" x="932.35" y="306.17" width="21.35" height="68.92"/>
      </g>
      <rect class="cls-13" x="2663.32" y="314.48" width="80.12" height="60.61"/>
      <rect class="cls-13" x="2572.86" y="314.48" width="80.12" height="60.61"/>
      <rect class="cls-13" x="2480.12" y="314.48" width="80.12" height="60.61"/>
      <path class="cls-1" d="m2709.05,361.79l-2.79-5.12c-1.11-1.99-1.83-3.36-2.56-4.85h-.11c-.61,1.49-1.3,2.86-2.33,4.85l-2.56,5.12h-5.39l7.64-13.02-7.33-12.72h5.39l2.79,5.31c.84,1.6,1.45,2.86,2.14,4.32h.08c.69-1.6,1.22-2.75,2.02-4.32l2.75-5.31h5.39l-7.52,12.57,7.83,13.18h-5.42Z"/>
      <rect class="cls-10" x="2596.62" y="331.49" width="30.32" height="21.4"/>
      <rect class="cls-1" x="2587.8" y="338.92" width="30.32" height="21.4"/>
      <rect class="cls-1" x="2503.83" y="342.19" width="32.71" height="7.43"/>
    </g>
    <g>
      <path class="cls-9" d="m501.75,562.38h-10.77v-5.37h27.97v5.37h-10.77v35.95h10.77v5.44h-27.97v-5.44h10.77v-35.95Z"/>
      <path class="cls-9" d="m561.16,603.77h-8.3l-13.63-29.15-3.93-9.37v38.52h-5.94v-46.75h8.19l12.98,27.61,4.69,10.69v-38.31h5.94v46.75Z"/>
      <path class="cls-9" d="m601.04,591.11c0,2.22-.45,4.16-1.36,5.83-.91,1.67-2.17,3.06-3.79,4.17-1.62,1.11-3.57,1.94-5.85,2.49-2.28.55-4.79.82-7.53.82-1.24,0-2.47-.05-3.7-.14-1.23-.1-2.41-.21-3.54-.36-1.13-.14-2.2-.31-3.2-.5-1-.19-1.91-.39-2.72-.61v-6.15c1.79.67,3.8,1.19,6.03,1.57,2.23.38,4.76.57,7.6.57,2.05,0,3.8-.16,5.24-.48,1.44-.32,2.62-.8,3.54-1.43.92-.63,1.59-1.4,2-2.31s.63-1.94.63-3.11c0-1.26-.35-2.34-1.06-3.24s-1.63-1.69-2.77-2.4-2.45-1.35-3.92-1.93c-1.47-.58-2.96-1.19-4.49-1.81-1.53-.62-3.02-1.29-4.49-2.02-1.47-.73-2.77-1.59-3.92-2.58s-2.07-2.15-2.77-3.49c-.7-1.33-1.05-2.92-1.05-4.76,0-1.6.33-3.17,1-4.72.67-1.55,1.71-2.93,3.11-4.13,1.41-1.2,3.21-2.18,5.42-2.92,2.21-.74,4.83-1.11,7.89-1.11.79,0,1.64.04,2.56.11s1.85.17,2.79.3c.94.13,1.87.28,2.79.45.92.17,1.77.35,2.56.54v5.72c-1.84-.52-3.67-.92-5.51-1.2s-3.61-.41-5.33-.41c-3.65,0-6.33.61-8.05,1.82-1.72,1.22-2.58,2.85-2.58,4.9,0,1.26.35,2.35,1.06,3.25.7.91,1.63,1.72,2.77,2.43,1.14.71,2.45,1.37,3.92,1.95,1.47.58,2.96,1.19,4.49,1.81s3.02,1.3,4.49,2.04c1.47.74,2.77,1.62,3.92,2.63,1.14,1.01,2.07,2.2,2.77,3.56.7,1.36,1.05,2.97,1.05,4.83Z"/>
      <path class="cls-9" d="m639.42,603.77h-26.58v-46.75h26.58v5.37h-20.21v14.49h19.42v5.37h-19.42v16.1h20.21v5.44Z"/>
      <path class="cls-9" d="m683.52,603.77h-7.19l-6.97-14.95c-.52-1.14-1.06-2.09-1.61-2.84-.55-.75-1.14-1.35-1.77-1.79-.63-.44-1.32-.76-2.07-.95-.75-.19-1.59-.29-2.52-.29h-3v20.82h-6.37v-46.75h12.52c2.72,0,5.05.3,7.01.89,1.96.6,3.56,1.43,4.81,2.5s2.17,2.37,2.75,3.88c.58,1.51.88,3.19.88,5.03,0,1.45-.21,2.83-.64,4.13-.43,1.3-1.07,2.48-1.91,3.54-.85,1.06-1.9,1.98-3.15,2.75-1.25.78-2.69,1.35-4.31,1.74,1.31.45,2.43,1.25,3.34,2.38.92,1.13,1.85,2.64,2.81,4.53l7.4,15.38Zm-10.19-33.91c0-2.5-.78-4.38-2.34-5.62-1.56-1.24-3.76-1.86-6.6-1.86h-6.01v15.45h5.15c1.5,0,2.86-.17,4.06-.52s2.23-.86,3.08-1.54,1.5-1.51,1.97-2.5c.46-.99.7-2.13.7-3.42Z"/>
      <path class="cls-9" d="m723.41,562.46h-13.84v41.31h-6.44v-41.31h-13.84v-5.44h34.12v5.44Z"/>
      <path class="cls-1" d="m801.42,603.27c-1.41.36-2.86.61-4.36.77-1.5.15-3.03.23-4.58.23-4.51,0-7.87-1.02-10.09-3.06-2.22-2.04-3.33-5.17-3.33-9.39v-18.74h-10.05v-5.22h10.05v-9.87l6.22-1.61v11.48h16.13v5.22h-16.13v18.24c0,2.58.69,4.5,2.06,5.78,1.37,1.28,3.39,1.91,6.06,1.91,1.14,0,2.4-.09,3.75-.27,1.36-.18,2.78-.46,4.26-.84v5.37Z"/>
      <path class="cls-1" d="m835.82,603.77l-.14-4.83c-1.96,1.93-3.94,3.33-5.96,4.19-2.01.86-4.13,1.29-6.35,1.29-2.05,0-3.8-.26-5.26-.79-1.45-.52-2.65-1.25-3.59-2.16s-1.63-2-2.07-3.24c-.44-1.24-.66-2.59-.66-4.04,0-3.6,1.34-6.42,4.02-8.46s6.65-3.06,11.89-3.06h7.44v-3.15c0-2.12-.68-3.82-2.04-5.1-1.36-1.28-3.43-1.91-6.22-1.91-2.03,0-4.02.23-5.99.68-1.97.45-4,1.1-6.1,1.93v-5.62c.79-.29,1.66-.57,2.63-.84.97-.27,1.99-.52,3.06-.73,1.07-.21,2.19-.39,3.36-.52,1.17-.13,2.35-.2,3.54-.2,2.17,0,4.12.24,5.87.71,1.74.48,3.21,1.21,4.42,2.18s2.13,2.21,2.77,3.68.97,3.22.97,5.22v24.75h-5.58Zm-.68-16.35h-7.9c-1.55,0-2.89.16-4.01.46-1.12.31-2.04.75-2.75,1.32-.72.57-1.25,1.26-1.59,2.06-.35.8-.52,1.7-.52,2.7,0,.69.11,1.35.32,1.99s.56,1.19,1.04,1.68c.48.49,1.1.88,1.86,1.16.76.29,1.69.43,2.79.43,1.43,0,3.07-.43,4.92-1.3,1.85-.87,3.8-2.25,5.85-4.13v-6.37Z"/>
      <path class="cls-1" d="m883.72,585.17c0,2.98-.41,5.65-1.23,7.99-.82,2.35-1.99,4.34-3.5,5.97-1.51,1.63-3.36,2.89-5.53,3.76-2.17.87-4.61,1.31-7.33,1.31-2.12,0-4.29-.2-6.51-.61-2.22-.41-4.41-1.05-6.58-1.93v-48.43h6.22v13.91l-.29,6.65c1.79-2.41,3.7-4.11,5.74-5.1,2.04-.99,4.23-1.48,6.56-1.48,2.05,0,3.85.43,5.4,1.29s2.85,2.07,3.9,3.63c1.05,1.56,1.84,3.45,2.36,5.65.52,2.21.79,4.67.79,7.39Zm-6.37.29c0-1.88-.14-3.61-.41-5.19-.27-1.57-.71-2.92-1.31-4.04-.6-1.12-1.36-2-2.29-2.63s-2.04-.95-3.33-.95c-.79,0-1.59.12-2.4.38-.81.25-1.65.67-2.52,1.25-.87.58-1.79,1.36-2.75,2.32s-2,2.16-3.09,3.59v17.42c1.22.48,2.46.85,3.72,1.13,1.26.27,2.47.41,3.61.41,1.43,0,2.79-.23,4.09-.68,1.3-.45,2.44-1.21,3.43-2.27.99-1.06,1.78-2.47,2.36-4.22.58-1.75.88-3.93.88-6.53Z"/>
      <path class="cls-1" d="m905.54,558.34h-10.62v-5.12h16.92v45.35h10.69v5.19h-28.79v-5.19h11.8v-40.24Z"/>
      <path class="cls-1" d="m963.91,583.92c0,.88-.01,1.62-.04,2.22-.02.6-.06,1.16-.11,1.68h-25.22c0,3.67,1.03,6.49,3.08,8.46,2.05,1.97,5.01,2.95,8.87,2.95,1.05,0,2.1-.04,3.15-.12,1.05-.08,2.06-.2,3.04-.34.98-.14,1.91-.3,2.81-.48s1.72-.38,2.49-.59v5.11c-1.69.48-3.61.86-5.74,1.16-2.13.3-4.35.45-6.63.45-3.08,0-5.72-.42-7.94-1.25-2.22-.83-4.04-2.04-5.46-3.63s-2.47-3.53-3.15-5.83-1.02-4.91-1.02-7.82c0-2.53.36-4.92,1.09-7.17.73-2.25,1.79-4.23,3.18-5.94,1.4-1.7,3.11-3.06,5.13-4.06,2.03-1,4.33-1.5,6.9-1.5s4.72.39,6.65,1.18c1.93.79,3.56,1.9,4.88,3.34,1.32,1.44,2.33,3.2,3,5.26.68,2.06,1.02,4.37,1.02,6.92Zm-6.47-.89c.07-1.6-.08-3.06-.46-4.38-.38-1.32-.97-2.46-1.77-3.42-.8-.95-1.79-1.7-2.99-2.24-1.19-.54-2.58-.8-4.15-.8-1.36,0-2.6.26-3.72.79-1.12.52-2.09,1.26-2.9,2.22-.81.95-1.47,2.1-1.97,3.43-.5,1.33-.81,2.8-.93,4.4h18.89Z"/>
      <path class="cls-1" d="m1008.4,618.43h-40.27v-5.15h40.27v5.15Z"/>
      <path class="cls-1" d="m1042.56,593.97c0,1.26-.21,2.4-.64,3.4-.43,1-1.01,1.89-1.75,2.67-.74.77-1.6,1.44-2.58,1.98-.98.55-2.02,1-3.13,1.36-1.11.36-2.25.62-3.42.79-1.17.17-2.31.25-3.43.25-2.43,0-4.67-.11-6.71-.32-2.04-.21-4.04-.56-5.99-1.04v-5.72c2.1.6,4.18,1.05,6.26,1.36,2.07.31,4.14.46,6.19.46,2.98,0,5.19-.41,6.62-1.22s2.15-1.97,2.15-3.47c0-.64-.11-1.22-.34-1.73s-.64-1-1.23-1.47c-.6-.46-1.52-.95-2.77-1.45-1.25-.5-2.96-1.07-5.13-1.72-1.62-.48-3.12-1.02-4.49-1.63-1.37-.61-2.56-1.33-3.56-2.16-1-.83-1.79-1.81-2.36-2.93s-.86-2.44-.86-3.97c0-1,.23-2.1.7-3.29s1.26-2.3,2.38-3.33c1.12-1.03,2.63-1.88,4.54-2.56,1.91-.68,4.29-1.02,7.15-1.02,1.41,0,2.97.08,4.69.23s3.5.42,5.37.8v5.54c-1.96-.48-3.81-.83-5.56-1.05-1.75-.23-3.27-.34-4.56-.34-1.55,0-2.86.12-3.92.36-1.06.24-1.92.57-2.58.98-.66.42-1.13.91-1.41,1.47s-.43,1.16-.43,1.81.12,1.23.38,1.75c.25.53.72,1.03,1.4,1.52.68.49,1.63.98,2.84,1.47,1.22.49,2.8,1.02,4.76,1.59,2.12.62,3.91,1.27,5.37,1.95,1.45.68,2.63,1.44,3.54,2.27.91.83,1.56,1.78,1.95,2.83.39,1.05.59,2.24.59,3.58Z"/>
      <path class="cls-1" d="m1083.34,603.27c-1.41.36-2.86.61-4.36.77-1.5.15-3.03.23-4.58.23-4.51,0-7.87-1.02-10.09-3.06-2.22-2.04-3.33-5.17-3.33-9.39v-18.74h-10.05v-5.22h10.05v-9.87l6.22-1.61v11.48h16.13v5.22h-16.13v18.24c0,2.58.69,4.5,2.06,5.78,1.37,1.28,3.39,1.91,6.06,1.91,1.14,0,2.4-.09,3.75-.27,1.36-.18,2.78-.46,4.26-.84v5.37Z"/>
      <path class="cls-1" d="m1123.54,603.77h-5.58l-.21-5.79c-1.07,1.24-2.09,2.27-3.06,3.09-.97.82-1.93,1.48-2.88,1.98-.95.5-1.91.85-2.88,1.06-.97.2-1.99.3-3.06.3-3.7,0-6.49-1.08-8.37-3.25-1.88-2.17-2.83-5.45-2.83-9.84v-23.46h6.22v22.96c0,5.51,2.08,8.26,6.22,8.26.76,0,1.51-.11,2.24-.34s1.49-.62,2.29-1.18c.8-.56,1.66-1.32,2.58-2.27.92-.95,1.95-2.16,3.09-3.61v-23.82h6.22v35.91Z"/>
      <path class="cls-1" d="m1133.13,586.56c0-3.05.42-5.76,1.25-8.14.83-2.37,2.02-4.38,3.56-6.01,1.54-1.63,3.38-2.87,5.54-3.72,2.16-.85,4.56-1.27,7.21-1.27,1.14,0,2.27.07,3.38.21,1.11.14,2.2.37,3.27.68v-15.09h6.26v50.54h-5.58l-.21-6.8c-1.74,2.53-3.62,4.4-5.65,5.62-2.03,1.22-4.22,1.82-6.58,1.82-2.05,0-3.86-.43-5.42-1.29s-2.86-2.07-3.9-3.63c-1.04-1.56-1.82-3.44-2.34-5.63-.52-2.19-.79-4.63-.79-7.3Zm6.37-.39c0,4.34.64,7.58,1.91,9.71s3.08,3.2,5.42,3.2c1.57,0,3.24-.7,4.99-2.11,1.75-1.41,3.59-3.49,5.53-6.26v-16.67c-1.03-.48-2.16-.84-3.4-1.09-1.24-.25-2.47-.38-3.68-.38-3.39,0-6.03,1.1-7.92,3.29-1.9,2.19-2.84,5.63-2.84,10.3Z"/>
      <path class="cls-1" d="m1205.56,583.92c0,.88-.01,1.62-.04,2.22-.02.6-.06,1.16-.11,1.68h-25.22c0,3.67,1.03,6.49,3.08,8.46,2.05,1.97,5.01,2.95,8.87,2.95,1.05,0,2.1-.04,3.15-.12,1.05-.08,2.06-.2,3.04-.34.98-.14,1.91-.3,2.81-.48s1.72-.38,2.49-.59v5.11c-1.69.48-3.61.86-5.74,1.16-2.13.3-4.35.45-6.63.45-3.08,0-5.72-.42-7.94-1.25-2.22-.83-4.04-2.04-5.46-3.63s-2.47-3.53-3.15-5.83-1.02-4.91-1.02-7.82c0-2.53.36-4.92,1.09-7.17.73-2.25,1.79-4.23,3.18-5.94,1.4-1.7,3.11-3.06,5.13-4.06,2.03-1,4.33-1.5,6.9-1.5s4.72.39,6.65,1.18c1.93.79,3.56,1.9,4.88,3.34,1.32,1.44,2.33,3.2,3,5.26.68,2.06,1.02,4.37,1.02,6.92Zm-6.47-.89c.07-1.6-.08-3.06-.46-4.38-.38-1.32-.97-2.46-1.77-3.42-.8-.95-1.79-1.7-2.99-2.24-1.19-.54-2.58-.8-4.15-.8-1.36,0-2.6.26-3.72.79-1.12.52-2.09,1.26-2.9,2.22-.81.95-1.47,2.1-1.97,3.43-.5,1.33-.81,2.8-.93,4.4h18.89Z"/>
      <path class="cls-1" d="m1215.5,567.86h5.54l.25,5.79c1.05-1.24,2.06-2.27,3.04-3.09.98-.82,1.94-1.48,2.88-1.98.94-.5,1.9-.85,2.88-1.06.98-.2,1.99-.3,3.04-.3,3.7,0,6.49,1.09,8.39,3.27s2.84,5.47,2.84,9.85v23.43h-6.22v-22.93c0-2.81-.53-4.89-1.57-6.24-1.05-1.35-2.61-2.02-4.69-2.02-.76,0-1.51.11-2.24.34-.73.23-1.48.62-2.27,1.18-.79.56-1.64,1.32-2.56,2.27-.92.95-1.95,2.15-3.09,3.58v23.82h-6.22v-35.91Z"/>
      <path class="cls-1" d="m1284.71,603.27c-1.41.36-2.86.61-4.36.77-1.5.15-3.03.23-4.58.23-4.51,0-7.87-1.02-10.09-3.06-2.22-2.04-3.33-5.17-3.33-9.39v-18.74h-10.05v-5.22h10.05v-9.87l6.22-1.61v11.48h16.13v5.22h-16.13v18.24c0,2.58.69,4.5,2.06,5.78,1.37,1.28,3.39,1.91,6.06,1.91,1.14,0,2.4-.09,3.75-.27,1.36-.18,2.78-.46,4.26-.84v5.37Z"/>
      <path class="cls-1" d="m1357.82,618.79c-10.99-10.18-16.49-21.44-16.49-33.76,0-2.88.29-5.76.88-8.64.58-2.87,1.53-5.75,2.83-8.64,1.3-2.88,3.02-5.77,5.15-8.66,2.13-2.88,4.73-5.75,7.78-8.58l3.61,3.68c-9.25,9.13-13.88,19.25-13.88,30.37,0,5.53,1.17,10.85,3.51,15.95,2.34,5.1,5.79,9.92,10.37,14.45l-3.75,3.83Z"/>
      <path class="cls-1" d="m1406.93,603.77h-8.3l-13.63-29.15-3.93-9.37v38.52h-5.94v-46.75h8.19l12.98,27.61,4.69,10.69v-38.31h5.94v46.75Z"/>
      <path class="cls-1" d="m1439.94,603.77l-.14-4.83c-1.96,1.93-3.94,3.33-5.96,4.19-2.01.86-4.13,1.29-6.35,1.29-2.05,0-3.8-.26-5.26-.79-1.45-.52-2.65-1.25-3.59-2.16s-1.63-2-2.07-3.24c-.44-1.24-.66-2.59-.66-4.04,0-3.6,1.34-6.42,4.02-8.46s6.65-3.06,11.89-3.06h7.44v-3.15c0-2.12-.68-3.82-2.04-5.1-1.36-1.28-3.43-1.91-6.22-1.91-2.03,0-4.02.23-5.99.68-1.97.45-4,1.1-6.1,1.93v-5.62c.79-.29,1.66-.57,2.63-.84.97-.27,1.99-.52,3.06-.73,1.07-.21,2.19-.39,3.36-.52,1.17-.13,2.35-.2,3.54-.2,2.17,0,4.12.24,5.87.71,1.74.48,3.21,1.21,4.42,2.18s2.13,2.21,2.77,3.68.97,3.22.97,5.22v24.75h-5.58Zm-.68-16.35h-7.9c-1.55,0-2.89.16-4.01.46-1.12.31-2.04.75-2.75,1.32-.72.57-1.25,1.26-1.59,2.06-.35.8-.52,1.7-.52,2.7,0,.69.11,1.35.32,1.99s.56,1.19,1.04,1.68c.48.49,1.1.88,1.86,1.16.76.29,1.69.43,2.79.43,1.43,0,3.07-.43,4.92-1.3,1.85-.87,3.8-2.25,5.85-4.13v-6.37Z"/>
      <path class="cls-1" d="m1482.76,603.77v-25.79c0-1.12-.04-2.04-.13-2.75-.08-.71-.21-1.28-.39-1.7-.18-.42-.41-.71-.68-.88-.27-.17-.61-.25-1.02-.25-.48,0-.92.14-1.32.43-.41.29-.84.75-1.31,1.4-.46.64-.98,1.5-1.54,2.56-.56,1.06-1.22,2.37-1.99,3.92v23.07h-5.69v-25.11c0-1.31-.04-2.37-.13-3.18s-.21-1.44-.39-1.9c-.18-.45-.41-.76-.7-.93-.29-.17-.63-.25-1.04-.25-.43,0-.83.12-1.22.36-.38.24-.8.67-1.27,1.29-.47.62-.98,1.47-1.56,2.54s-1.25,2.44-2.04,4.11v23.07h-5.72v-35.91h4.76l.29,6.83c.62-1.36,1.22-2.52,1.81-3.47.58-.95,1.19-1.72,1.81-2.31s1.28-1.01,1.99-1.29c.7-.27,1.48-.41,2.34-.41,1.93,0,3.4.63,4.4,1.9,1,1.26,1.5,3.22,1.5,5.87.57-1.24,1.13-2.34,1.68-3.31.55-.97,1.14-1.78,1.77-2.43.63-.66,1.33-1.16,2.09-1.5.76-.35,1.65-.52,2.65-.52,4.51,0,6.76,3.47,6.76,10.41v26.15h-5.72Z"/>
      <path class="cls-1" d="m1527.75,583.92c0,.88-.01,1.62-.04,2.22-.02.6-.06,1.16-.11,1.68h-25.22c0,3.67,1.03,6.49,3.08,8.46,2.05,1.97,5.01,2.95,8.87,2.95,1.05,0,2.1-.04,3.15-.12,1.05-.08,2.06-.2,3.04-.34.98-.14,1.91-.3,2.81-.48s1.72-.38,2.49-.59v5.11c-1.69.48-3.61.86-5.74,1.16-2.13.3-4.35.45-6.63.45-3.08,0-5.72-.42-7.94-1.25-2.22-.83-4.04-2.04-5.46-3.63s-2.47-3.53-3.15-5.83-1.02-4.91-1.02-7.82c0-2.53.36-4.92,1.09-7.17.73-2.25,1.79-4.23,3.18-5.94,1.4-1.7,3.11-3.06,5.13-4.06,2.03-1,4.33-1.5,6.9-1.5s4.72.39,6.65,1.18c1.93.79,3.56,1.9,4.88,3.34,1.32,1.44,2.33,3.2,3,5.26.68,2.06,1.02,4.37,1.02,6.92Zm-6.47-.89c.07-1.6-.08-3.06-.46-4.38-.38-1.32-.97-2.46-1.77-3.42-.8-.95-1.79-1.7-2.99-2.24-1.19-.54-2.58-.8-4.15-.8-1.36,0-2.6.26-3.72.79-1.12.52-2.09,1.26-2.9,2.22-.81.95-1.47,2.1-1.97,3.43-.5,1.33-.81,2.8-.93,4.4h18.89Z"/>
      <path class="cls-1" d="m1540.49,611.1c1.22.05,2.4-.06,3.54-.32,1.14-.26,2.15-.65,3.02-1.16.87-.51,1.57-1.15,2.09-1.91.52-.76.79-1.63.79-2.61s-.17-1.81-.52-2.43-.73-1.19-1.16-1.72-.82-1.08-1.16-1.68c-.35-.6-.52-1.39-.52-2.4,0-.5.09-1.02.29-1.57.19-.55.48-1.05.88-1.5.39-.45.89-.82,1.5-1.11.61-.29,1.33-.43,2.16-.43s1.64.17,2.41.52c.78.35,1.45.88,2.04,1.59.58.72,1.05,1.61,1.4,2.68.34,1.07.52,2.34.52,3.79,0,1.98-.36,3.88-1.09,5.71-.73,1.82-1.81,3.44-3.25,4.85-1.44,1.41-3.24,2.53-5.4,3.36s-4.67,1.25-7.53,1.25v-4.9Z"/>
      <path class="cls-1" d="m1648.11,602.01c-3.74,1.55-7.67,2.33-11.77,2.33-6.61,0-11.68-1.97-15.22-5.92-3.54-3.95-5.31-9.78-5.31-17.51,0-3.74.49-7.13,1.47-10.16s2.37-5.6,4.19-7.71c1.81-2.11,4.01-3.74,6.58-4.88s5.46-1.72,8.66-1.72c2.17,0,4.19.19,6.04.55,1.86.37,3.65.94,5.37,1.7v6.26c-1.69-.93-3.45-1.64-5.26-2.13-1.81-.49-3.79-.73-5.94-.73s-4.18.41-5.96,1.23-3.29,2.02-4.52,3.58c-1.24,1.56-2.19,3.47-2.86,5.72-.67,2.25-1,4.82-1,7.71,0,6.06,1.23,10.62,3.68,13.7,2.46,3.08,6.06,4.61,10.8,4.61,2,0,3.92-.23,5.76-.7,1.83-.46,3.6-1.11,5.29-1.95v6.01Z"/>
      <path class="cls-1" d="m1689.78,585.53c0,2.79-.39,5.35-1.18,7.67s-1.92,4.32-3.4,5.97-3.28,2.94-5.4,3.86c-2.12.92-4.53,1.38-7.23,1.38s-4.88-.4-6.92-1.2-3.77-1.97-5.19-3.52-2.5-3.47-3.25-5.76c-.75-2.29-1.13-4.92-1.13-7.91,0-2.79.39-5.33,1.18-7.64.79-2.3,1.92-4.28,3.4-5.94,1.48-1.66,3.28-2.95,5.4-3.86s4.53-1.38,7.23-1.38,4.88.4,6.92,1.2,3.77,1.97,5.19,3.5c1.42,1.54,2.5,3.45,3.25,5.74s1.13,4.91,1.13,7.87Zm-6.37.29c0-2.22-.25-4.16-.73-5.81s-1.19-3.04-2.09-4.15c-.91-1.11-2.01-1.94-3.31-2.5-1.3-.56-2.75-.84-4.35-.84-1.86,0-3.45.36-4.78,1.09s-2.41,1.7-3.25,2.92c-.85,1.22-1.47,2.63-1.86,4.24-.39,1.61-.59,3.3-.59,5.06,0,2.22.24,4.16.73,5.83.49,1.67,1.19,3.06,2.09,4.17.91,1.11,2,1.94,3.29,2.5,1.29.56,2.74.84,4.36.84,1.86,0,3.45-.36,4.77-1.09,1.32-.73,2.41-1.7,3.25-2.92s1.47-2.63,1.86-4.24.59-3.31.59-5.1Z"/>
      <path class="cls-1" d="m1698.8,567.86h5.54l.25,5.79c1.05-1.24,2.06-2.27,3.04-3.09.98-.82,1.94-1.48,2.88-1.98.94-.5,1.9-.85,2.88-1.06.98-.2,1.99-.3,3.04-.3,3.7,0,6.49,1.09,8.39,3.27s2.84,5.47,2.84,9.85v23.43h-6.22v-22.93c0-2.81-.53-4.89-1.57-6.24-1.05-1.35-2.61-2.02-4.69-2.02-.76,0-1.51.11-2.24.34-.73.23-1.48.62-2.27,1.18-.79.56-1.64,1.32-2.56,2.27-.92.95-1.95,2.15-3.09,3.58v23.82h-6.22v-35.91Z"/>
      <path class="cls-1" d="m1768.01,603.27c-1.41.36-2.86.61-4.36.77-1.5.15-3.03.23-4.58.23-4.51,0-7.87-1.02-10.09-3.06-2.22-2.04-3.33-5.17-3.33-9.39v-18.74h-10.05v-5.22h10.05v-9.87l6.22-1.61v11.48h16.13v5.22h-16.13v18.24c0,2.58.69,4.5,2.06,5.78,1.37,1.28,3.39,1.91,6.06,1.91,1.14,0,2.4-.09,3.75-.27,1.36-.18,2.78-.46,4.26-.84v5.37Z"/>
      <path class="cls-1" d="m1802.42,603.77l-.14-4.83c-1.96,1.93-3.94,3.33-5.96,4.19-2.01.86-4.13,1.29-6.35,1.29-2.05,0-3.8-.26-5.26-.79-1.45-.52-2.65-1.25-3.59-2.16s-1.63-2-2.07-3.24c-.44-1.24-.66-2.59-.66-4.04,0-3.6,1.34-6.42,4.02-8.46s6.65-3.06,11.89-3.06h7.44v-3.15c0-2.12-.68-3.82-2.04-5.1-1.36-1.28-3.43-1.91-6.22-1.91-2.03,0-4.02.23-5.99.68-1.97.45-4,1.1-6.1,1.93v-5.62c.79-.29,1.66-.57,2.63-.84.97-.27,1.99-.52,3.06-.73,1.07-.21,2.19-.39,3.36-.52,1.17-.13,2.35-.2,3.54-.2,2.17,0,4.12.24,5.87.71,1.74.48,3.21,1.21,4.42,2.18s2.13,2.21,2.77,3.68.97,3.22.97,5.22v24.75h-5.58Zm-.68-16.35h-7.9c-1.55,0-2.89.16-4.01.46-1.12.31-2.04.75-2.75,1.32-.72.57-1.25,1.26-1.59,2.06-.35.8-.52,1.7-.52,2.7,0,.69.11,1.35.32,1.99s.56,1.19,1.04,1.68c.48.49,1.1.88,1.86,1.16.76.29,1.69.43,2.79.43,1.43,0,3.07-.43,4.92-1.3,1.85-.87,3.8-2.25,5.85-4.13v-6.37Z"/>
      <path class="cls-1" d="m1847.52,602.44c-1.62.62-3.29,1.08-4.99,1.38s-3.46.45-5.28.45c-5.68,0-10.04-1.54-13.11-4.61-3.06-3.08-4.6-7.57-4.6-13.48,0-2.84.44-5.41,1.32-7.73.88-2.31,2.12-4.29,3.72-5.94,1.6-1.65,3.51-2.92,5.72-3.81,2.22-.89,4.66-1.34,7.33-1.34,1.86,0,3.6.13,5.22.39,1.62.26,3.17.69,4.65,1.29v5.94c-1.55-.81-3.13-1.4-4.74-1.77-1.61-.37-3.27-.55-4.99-.55-1.6,0-3.11.3-4.52.91s-2.66,1.48-3.74,2.63-1.92,2.54-2.54,4.18c-.62,1.65-.93,3.51-.93,5.58,0,4.34,1.05,7.59,3.17,9.75s5.04,3.24,8.78,3.24c1.69,0,3.33-.19,4.92-.57,1.59-.38,3.12-.95,4.6-1.72v5.79Z"/>
      <path class="cls-1" d="m1888.83,603.27c-1.41.36-2.86.61-4.36.77-1.5.15-3.03.23-4.58.23-4.51,0-7.87-1.02-10.09-3.06-2.22-2.04-3.33-5.17-3.33-9.39v-18.74h-10.05v-5.22h10.05v-9.87l6.22-1.61v11.48h16.13v5.22h-16.13v18.24c0,2.58.69,4.5,2.06,5.78,1.37,1.28,3.39,1.91,6.06,1.91,1.14,0,2.4-.09,3.75-.27,1.36-.18,2.78-.46,4.26-.84v5.37Z"/>
      <path class="cls-1" d="m1930.5,603.77h-8.3l-13.63-29.15-3.93-9.37v38.52h-5.94v-46.75h8.19l12.98,27.61,4.69,10.69v-38.31h5.94v46.75Z"/>
      <path class="cls-1" d="m1963.52,603.77l-.14-4.83c-1.96,1.93-3.94,3.33-5.96,4.19-2.01.86-4.13,1.29-6.35,1.29-2.05,0-3.8-.26-5.26-.79-1.45-.52-2.65-1.25-3.59-2.16s-1.63-2-2.07-3.24c-.44-1.24-.66-2.59-.66-4.04,0-3.6,1.34-6.42,4.02-8.46s6.65-3.06,11.89-3.06h7.44v-3.15c0-2.12-.68-3.82-2.04-5.1-1.36-1.28-3.43-1.91-6.22-1.91-2.03,0-4.02.23-5.99.68-1.97.45-4,1.1-6.1,1.93v-5.62c.79-.29,1.66-.57,2.63-.84.97-.27,1.99-.52,3.06-.73,1.07-.21,2.19-.39,3.36-.52,1.17-.13,2.35-.2,3.54-.2,2.17,0,4.12.24,5.87.71,1.74.48,3.21,1.21,4.42,2.18s2.13,2.21,2.77,3.68.97,3.22.97,5.22v24.75h-5.58Zm-.68-16.35h-7.9c-1.55,0-2.89.16-4.01.46-1.12.31-2.04.75-2.75,1.32-.72.57-1.25,1.26-1.59,2.06-.35.8-.52,1.7-.52,2.7,0,.69.11,1.35.32,1.99s.56,1.19,1.04,1.68c.48.49,1.1.88,1.86,1.16.76.29,1.69.43,2.79.43,1.43,0,3.07-.43,4.92-1.3,1.85-.87,3.8-2.25,5.85-4.13v-6.37Z"/>
      <path class="cls-1" d="m2006.33,603.77v-25.79c0-1.12-.04-2.04-.13-2.75-.08-.71-.21-1.28-.39-1.7-.18-.42-.41-.71-.68-.88-.27-.17-.61-.25-1.02-.25-.48,0-.92.14-1.32.43-.41.29-.84.75-1.31,1.4-.46.64-.98,1.5-1.54,2.56-.56,1.06-1.22,2.37-1.99,3.92v23.07h-5.69v-25.11c0-1.31-.04-2.37-.13-3.18s-.21-1.44-.39-1.9c-.18-.45-.41-.76-.7-.93-.29-.17-.63-.25-1.04-.25-.43,0-.83.12-1.22.36-.38.24-.8.67-1.27,1.29-.47.62-.98,1.47-1.56,2.54s-1.25,2.44-2.04,4.11v23.07h-5.72v-35.91h4.76l.29,6.83c.62-1.36,1.22-2.52,1.81-3.47.58-.95,1.19-1.72,1.81-2.31s1.28-1.01,1.99-1.29c.7-.27,1.48-.41,2.34-.41,1.93,0,3.4.63,4.4,1.9,1,1.26,1.5,3.22,1.5,5.87.57-1.24,1.13-2.34,1.68-3.31.55-.97,1.14-1.78,1.77-2.43.63-.66,1.33-1.16,2.09-1.5.76-.35,1.65-.52,2.65-.52,4.51,0,6.76,3.47,6.76,10.41v26.15h-5.72Z"/>
      <path class="cls-1" d="m2051.32,583.92c0,.88-.01,1.62-.04,2.22-.02.6-.06,1.16-.11,1.68h-25.22c0,3.67,1.03,6.49,3.08,8.46,2.05,1.97,5.01,2.95,8.87,2.95,1.05,0,2.1-.04,3.15-.12,1.05-.08,2.06-.2,3.04-.34.98-.14,1.91-.3,2.81-.48s1.72-.38,2.49-.59v5.11c-1.69.48-3.61.86-5.74,1.16-2.13.3-4.35.45-6.63.45-3.08,0-5.72-.42-7.94-1.25-2.22-.83-4.04-2.04-5.46-3.63s-2.47-3.53-3.15-5.83-1.02-4.91-1.02-7.82c0-2.53.36-4.92,1.09-7.17.73-2.25,1.79-4.23,3.18-5.94,1.4-1.7,3.11-3.06,5.13-4.06,2.03-1,4.33-1.5,6.9-1.5s4.72.39,6.65,1.18c1.93.79,3.56,1.9,4.88,3.34,1.32,1.44,2.33,3.2,3,5.26.68,2.06,1.02,4.37,1.02,6.92Zm-6.47-.89c.07-1.6-.08-3.06-.46-4.38-.38-1.32-.97-2.46-1.77-3.42-.8-.95-1.79-1.7-2.99-2.24-1.19-.54-2.58-.8-4.15-.8-1.36,0-2.6.26-3.72.79-1.12.52-2.09,1.26-2.9,2.22-.81.95-1.47,2.1-1.97,3.43-.5,1.33-.81,2.8-.93,4.4h18.89Z"/>
      <path class="cls-1" d="m2064.06,611.1c1.22.05,2.4-.06,3.54-.32,1.14-.26,2.15-.65,3.02-1.16.87-.51,1.57-1.15,2.09-1.91.52-.76.79-1.63.79-2.61s-.17-1.81-.52-2.43-.73-1.19-1.16-1.72-.82-1.08-1.16-1.68c-.35-.6-.52-1.39-.52-2.4,0-.5.09-1.02.29-1.57.19-.55.48-1.05.88-1.5.39-.45.89-.82,1.5-1.11.61-.29,1.33-.43,2.16-.43s1.64.17,2.41.52c.78.35,1.45.88,2.04,1.59.58.72,1.05,1.61,1.4,2.68.34,1.07.52,2.34.52,3.79,0,1.98-.36,3.88-1.09,5.71-.73,1.82-1.81,3.44-3.25,4.85-1.44,1.41-3.24,2.53-5.4,3.36s-4.67,1.25-7.53,1.25v-4.9Z"/>
      <path class="cls-1" d="m2171.68,602.01c-3.74,1.55-7.67,2.33-11.77,2.33-6.61,0-11.68-1.97-15.22-5.92-3.54-3.95-5.31-9.78-5.31-17.51,0-3.74.49-7.13,1.47-10.16s2.37-5.6,4.19-7.71c1.81-2.11,4.01-3.74,6.58-4.88s5.46-1.72,8.66-1.72c2.17,0,4.19.19,6.04.55,1.86.37,3.65.94,5.37,1.7v6.26c-1.69-.93-3.45-1.64-5.26-2.13-1.81-.49-3.79-.73-5.94-.73s-4.18.41-5.96,1.23-3.29,2.02-4.52,3.58c-1.24,1.56-2.19,3.47-2.86,5.72-.67,2.25-1,4.82-1,7.71,0,6.06,1.23,10.62,3.68,13.7,2.46,3.08,6.06,4.61,10.8,4.61,2,0,3.92-.23,5.76-.7,1.83-.46,3.6-1.11,5.29-1.95v6.01Z"/>
      <path class="cls-1" d="m2194.33,573.01h-10.62v-5.15h16.92v30.72h10.69v5.19h-28.79v-5.19h11.8v-25.57Zm2.18-20.21c.69,0,1.33.13,1.93.38.6.25,1.12.6,1.56,1.06.44.45.79.97,1.04,1.56.25.58.38,1.22.38,1.91s-.12,1.3-.38,1.9c-.25.6-.6,1.12-1.04,1.57-.44.45-.96.8-1.56,1.06-.6.25-1.24.38-1.93.38s-1.34-.12-1.93-.38c-.6-.25-1.12-.6-1.56-1.06-.44-.45-.79-.98-1.04-1.57-.25-.6-.38-1.23-.38-1.9s.12-1.33.38-1.91c.25-.58.6-1.1,1.04-1.56.44-.45.96-.81,1.56-1.06.6-.25,1.24-.38,1.93-.38Z"/>
      <path class="cls-1" d="m2251.3,603.27c-1.41.36-2.86.61-4.36.77-1.5.15-3.03.23-4.58.23-4.51,0-7.87-1.02-10.09-3.06-2.22-2.04-3.33-5.17-3.33-9.39v-18.74h-10.05v-5.22h10.05v-9.87l6.22-1.61v11.48h16.13v5.22h-16.13v18.24c0,2.58.69,4.5,2.06,5.78,1.37,1.28,3.39,1.91,6.06,1.91,1.14,0,2.4-.09,3.75-.27,1.36-.18,2.78-.46,4.26-.84v5.37Z"/>
      <path class="cls-1" d="m2294.58,567.86l-12.23,32.12c-1.26,3.27-2.57,6.08-3.92,8.44-1.35,2.36-2.82,4.3-4.42,5.81s-3.35,2.63-5.26,3.34c-1.91.71-4.04,1.07-6.4,1.07-.62,0-1.18-.01-1.68-.04-.5-.02-1.05-.06-1.65-.11v-5.65c.52.07,1.1.14,1.72.2.62.06,1.28.09,1.97.09,1.15,0,2.21-.17,3.2-.5.99-.33,1.92-.88,2.81-1.63.88-.75,1.73-1.72,2.54-2.92.81-1.19,1.6-2.64,2.36-4.33l-14.34-35.91h7.08l9.08,23.75,1.82,5.58,2.08-5.72,8.41-23.61h6.83Z"/>
      <path class="cls-1" d="m2305.71,611.1c1.22.05,2.4-.06,3.54-.32,1.14-.26,2.15-.65,3.02-1.16.87-.51,1.57-1.15,2.09-1.91.52-.76.79-1.63.79-2.61s-.17-1.81-.52-2.43-.73-1.19-1.16-1.72-.82-1.08-1.16-1.68c-.35-.6-.52-1.39-.52-2.4,0-.5.09-1.02.29-1.57.19-.55.48-1.05.88-1.5.39-.45.89-.82,1.5-1.11.61-.29,1.33-.43,2.16-.43s1.64.17,2.41.52c.78.35,1.45.88,2.04,1.59.58.72,1.05,1.61,1.4,2.68.34,1.07.52,2.34.52,3.79,0,1.98-.36,3.88-1.09,5.71-.73,1.82-1.81,3.44-3.25,4.85-1.44,1.41-3.24,2.53-5.4,3.36s-4.67,1.25-7.53,1.25v-4.9Z"/>
      <path class="cls-1" d="m2413.33,602.01c-3.74,1.55-7.67,2.33-11.77,2.33-6.61,0-11.68-1.97-15.22-5.92-3.54-3.95-5.31-9.78-5.31-17.51,0-3.74.49-7.13,1.47-10.16s2.37-5.6,4.19-7.71c1.81-2.11,4.01-3.74,6.58-4.88s5.46-1.72,8.66-1.72c2.17,0,4.19.19,6.04.55,1.86.37,3.65.94,5.37,1.7v6.26c-1.69-.93-3.45-1.64-5.26-2.13-1.81-.49-3.79-.73-5.94-.73s-4.18.41-5.96,1.23-3.29,2.02-4.52,3.58c-1.24,1.56-2.19,3.47-2.86,5.72-.67,2.25-1,4.82-1,7.71,0,6.06,1.23,10.62,3.68,13.7,2.46,3.08,6.06,4.61,10.8,4.61,2,0,3.92-.23,5.76-.7,1.83-.46,3.6-1.11,5.29-1.95v6.01Z"/>
      <path class="cls-1" d="m2455,585.53c0,2.79-.39,5.35-1.18,7.67s-1.92,4.32-3.4,5.97-3.28,2.94-5.4,3.86c-2.12.92-4.53,1.38-7.23,1.38s-4.88-.4-6.92-1.2-3.77-1.97-5.19-3.52-2.5-3.47-3.25-5.76c-.75-2.29-1.13-4.92-1.13-7.91,0-2.79.39-5.33,1.18-7.64.79-2.3,1.92-4.28,3.4-5.94,1.48-1.66,3.28-2.95,5.4-3.86s4.53-1.38,7.23-1.38,4.88.4,6.92,1.2,3.77,1.97,5.19,3.5c1.42,1.54,2.5,3.45,3.25,5.74s1.13,4.91,1.13,7.87Zm-6.37.29c0-2.22-.25-4.16-.73-5.81s-1.19-3.04-2.09-4.15c-.91-1.11-2.01-1.94-3.31-2.5-1.3-.56-2.75-.84-4.35-.84-1.86,0-3.45.36-4.78,1.09s-2.41,1.7-3.25,2.92c-.85,1.22-1.47,2.63-1.86,4.24-.39,1.61-.59,3.3-.59,5.06,0,2.22.24,4.16.73,5.83.49,1.67,1.19,3.06,2.09,4.17.91,1.11,2,1.94,3.29,2.5,1.29.56,2.74.84,4.36.84,1.86,0,3.45-.36,4.77-1.09,1.32-.73,2.41-1.7,3.25-2.92s1.47-2.63,1.86-4.24.59-3.31.59-5.1Z"/>
      <path class="cls-1" d="m2492.88,603.77h-5.58l-.21-5.79c-1.07,1.24-2.09,2.27-3.06,3.09-.97.82-1.93,1.48-2.88,1.98-.95.5-1.91.85-2.88,1.06-.97.2-1.99.3-3.06.3-3.7,0-6.49-1.08-8.37-3.25-1.88-2.17-2.83-5.45-2.83-9.84v-23.46h6.22v22.96c0,5.51,2.08,8.26,6.22,8.26.76,0,1.51-.11,2.24-.34s1.49-.62,2.29-1.18c.8-.56,1.66-1.32,2.58-2.27.92-.95,1.95-2.16,3.09-3.61v-23.82h6.22v35.91Z"/>
      <path class="cls-1" d="m2504.29,567.86h5.54l.25,5.79c1.05-1.24,2.06-2.27,3.04-3.09.98-.82,1.94-1.48,2.88-1.98.94-.5,1.9-.85,2.88-1.06.98-.2,1.99-.3,3.04-.3,3.7,0,6.49,1.09,8.39,3.27s2.84,5.47,2.84,9.85v23.43h-6.22v-22.93c0-2.81-.53-4.89-1.57-6.24-1.05-1.35-2.61-2.02-4.69-2.02-.76,0-1.51.11-2.24.34-.73.23-1.48.62-2.27,1.18-.79.56-1.64,1.32-2.56,2.27-.92.95-1.95,2.15-3.09,3.58v23.82h-6.22v-35.91Z"/>
      <path class="cls-1" d="m2573.5,603.27c-1.41.36-2.86.61-4.36.77-1.5.15-3.03.23-4.58.23-4.51,0-7.87-1.02-10.09-3.06-2.22-2.04-3.33-5.17-3.33-9.39v-18.74h-10.05v-5.22h10.05v-9.87l6.22-1.61v11.48h16.13v5.22h-16.13v18.24c0,2.58.69,4.5,2.06,5.78,1.37,1.28,3.39,1.91,6.06,1.91,1.14,0,2.4-.09,3.75-.27,1.36-.18,2.78-.46,4.26-.84v5.37Z"/>
      <path class="cls-1" d="m2586.31,567.86h5.69l.18,6.62c2.12-2.55,4.21-4.4,6.28-5.54,2.06-1.14,4.14-1.72,6.24-1.72,3.72,0,6.54,1.2,8.46,3.61,1.92,2.41,2.81,5.99,2.67,10.73h-6.3c.07-3.15-.39-5.43-1.38-6.85-.99-1.42-2.44-2.13-4.35-2.13-.83,0-1.68.15-2.52.45-.85.3-1.72.77-2.61,1.43-.89.66-1.84,1.5-2.84,2.52-1,1.03-2.08,2.27-3.22,3.72v23.07h-6.29v-35.91Z"/>
      <path class="cls-1" d="m2657.06,567.86l-12.23,32.12c-1.26,3.27-2.57,6.08-3.92,8.44-1.35,2.36-2.82,4.3-4.42,5.81s-3.35,2.63-5.26,3.34c-1.91.71-4.04,1.07-6.4,1.07-.62,0-1.18-.01-1.68-.04-.5-.02-1.05-.06-1.65-.11v-5.65c.52.07,1.1.14,1.72.2.62.06,1.28.09,1.97.09,1.15,0,2.21-.17,3.2-.5.99-.33,1.92-.88,2.81-1.63.88-.75,1.73-1.72,2.54-2.92.81-1.19,1.6-2.64,2.36-4.33l-14.34-35.91h7.08l9.08,23.75,1.82,5.58,2.08-5.72,8.41-23.61h6.83Z"/>
      <path class="cls-1" d="m2672.72,550.51c10.99,10.18,16.49,21.51,16.49,33.98,0,2.58-.26,5.25-.79,8.01-.53,2.77-1.42,5.6-2.68,8.49-1.26,2.9-2.96,5.84-5.1,8.82-2.13,2.98-4.82,5.97-8.07,8.98l-3.61-3.68c4.65-4.6,8.12-9.41,10.41-14.42s3.43-10.25,3.43-15.74c0-11.35-4.61-21.56-13.84-30.62l3.76-3.83Z"/>
      <path class="cls-9" d="m524.97,644.92l-15.88,46.75h-8.58l-15.52-46.75h7.19l10.09,31.51,2.86,9.23,2.93-9.23,10.12-31.51h6.8Z"/>
      <path class="cls-9" d="m565.03,691.67h-6.94l-3.25-10.19h-19.46l-3.29,10.19h-6.62l15.52-46.75h8.73l15.31,46.75Zm-12.02-15.88l-7.91-25-7.9,25h15.81Z"/>
      <path class="cls-9" d="m600.62,691.67h-26.9v-46.75h6.47v41.31h20.42v5.44Z"/>
      <path class="cls-9" d="m642.07,675.4c0,2.58-.36,4.91-1.09,6.99-.73,2.09-1.79,3.86-3.2,5.33-1.41,1.47-3.13,2.6-5.17,3.4s-4.38,1.2-7.03,1.2c-2.91,0-5.38-.38-7.4-1.14s-3.68-1.84-4.95-3.24c-1.28-1.4-2.21-3.07-2.79-5.03-.58-1.96-.88-4.14-.88-6.55v-31.44h6.37v30.94c0,1.84.17,3.45.52,4.83s.91,2.54,1.7,3.47c.79.93,1.81,1.63,3.06,2.11,1.25.48,2.78.72,4.6.72,3.39,0,5.88-.98,7.49-2.93s2.41-4.71,2.41-8.26v-30.87h6.37v30.47Z"/>
      <path class="cls-9" d="m679.7,691.67h-26.58v-46.75h26.58v5.37h-20.21v14.49h19.42v5.37h-19.42v16.1h20.21v5.44Z"/>
      <path class="cls-9" d="m721.87,679.01c0,2.22-.45,4.16-1.36,5.83-.91,1.67-2.17,3.06-3.79,4.17-1.62,1.11-3.57,1.94-5.85,2.49-2.28.55-4.79.82-7.53.82-1.24,0-2.47-.05-3.7-.14-1.23-.1-2.41-.21-3.54-.36-1.13-.14-2.2-.31-3.2-.5-1-.19-1.91-.39-2.72-.61v-6.15c1.79.67,3.8,1.19,6.03,1.57,2.23.38,4.76.57,7.6.57,2.05,0,3.8-.16,5.24-.48,1.44-.32,2.62-.8,3.54-1.43.92-.63,1.59-1.4,2-2.31s.63-1.94.63-3.11c0-1.26-.35-2.34-1.06-3.24s-1.63-1.69-2.77-2.4-2.45-1.35-3.92-1.93c-1.47-.58-2.96-1.19-4.49-1.81-1.53-.62-3.02-1.29-4.49-2.02-1.47-.73-2.77-1.59-3.92-2.58s-2.07-2.15-2.77-3.49c-.7-1.33-1.05-2.92-1.05-4.76,0-1.6.33-3.17,1-4.72.67-1.55,1.71-2.93,3.11-4.13,1.41-1.2,3.21-2.18,5.42-2.92,2.21-.74,4.83-1.11,7.89-1.11.79,0,1.64.04,2.56.11s1.85.17,2.79.3c.94.13,1.87.28,2.79.45.92.17,1.77.35,2.56.54v5.72c-1.84-.52-3.67-.92-5.51-1.2s-3.61-.41-5.33-.41c-3.65,0-6.33.61-8.05,1.82-1.72,1.22-2.58,2.85-2.58,4.9,0,1.26.35,2.35,1.06,3.25.7.91,1.63,1.72,2.77,2.43,1.14.71,2.45,1.37,3.92,1.95,1.47.58,2.96,1.19,4.49,1.81s3.02,1.3,4.49,2.04c1.47.74,2.77,1.62,3.92,2.63,1.14,1.01,2.07,2.2,2.77,3.56.7,1.36,1.05,2.97,1.05,4.83Z"/>
      <path class="cls-1" d="m793.98,706.69c-10.99-10.18-16.49-21.44-16.49-33.76,0-2.88.29-5.76.88-8.64.58-2.87,1.53-5.75,2.83-8.64,1.3-2.88,3.02-5.77,5.15-8.66,2.13-2.88,4.73-5.75,7.78-8.58l3.61,3.68c-9.25,9.13-13.88,19.25-13.88,30.37,0,5.53,1.17,10.85,3.51,15.95,2.34,5.1,5.79,9.92,10.37,14.45l-3.75,3.83Z"/>
      <path class="cls-8" d="m831.28,641.13l-1.04,16.78h-6.15l-1-16.78h8.19Z"/>
      <path class="cls-11" d="m887.22,691.67h-6.94l-3.25-10.19h-19.46l-3.29,10.19h-6.62l15.52-46.75h8.73l15.31,46.75Zm-12.02-15.88l-7.91-25-7.9,25h15.81Z"/>
      <path class="cls-11" d="m905.54,646.25h-10.62v-5.12h16.92v45.35h10.69v5.19h-28.79v-5.19h11.8v-40.24Z"/>
      <path class="cls-11" d="m963.91,671.82c0,.88-.01,1.62-.04,2.22-.02.6-.06,1.16-.11,1.68h-25.22c0,3.67,1.03,6.49,3.08,8.46,2.05,1.97,5.01,2.95,8.87,2.95,1.05,0,2.1-.04,3.15-.12,1.05-.08,2.06-.2,3.04-.34.98-.14,1.91-.3,2.81-.48s1.72-.38,2.49-.59v5.11c-1.69.48-3.61.86-5.74,1.16-2.13.3-4.35.45-6.63.45-3.08,0-5.72-.42-7.94-1.25-2.22-.83-4.04-2.04-5.46-3.63s-2.47-3.53-3.15-5.83-1.02-4.91-1.02-7.82c0-2.53.36-4.92,1.09-7.17.73-2.25,1.79-4.23,3.18-5.94,1.4-1.7,3.11-3.06,5.13-4.06,2.03-1,4.33-1.5,6.9-1.5s4.72.39,6.65,1.18c1.93.79,3.56,1.9,4.88,3.34,1.32,1.44,2.33,3.2,3,5.26.68,2.06,1.02,4.37,1.02,6.92Zm-6.47-.89c.07-1.6-.08-3.06-.46-4.38-.38-1.32-.97-2.46-1.77-3.42-.8-.95-1.79-1.7-2.99-2.24-1.19-.54-2.58-.8-4.15-.8-1.36,0-2.6.26-3.72.79-1.12.52-2.09,1.26-2.9,2.22-.81.95-1.47,2.1-1.97,3.43-.5,1.33-.81,2.8-.93,4.4h18.89Z"/>
      <path class="cls-11" d="m1006.22,691.67h-8.26l-9.69-13.7-9.59,13.7h-8.05l13.91-18.03-13.27-17.88h7.98l9.44,13.81,9.26-13.81h7.69l-13.48,18.03,14.06,17.88Z"/>
      <path class="cls-8" d="m1032.66,641.13l-1.04,16.78h-6.15l-1-16.78h8.19Z"/>
      <path class="cls-1" d="m1057.19,699c1.22.05,2.4-.06,3.54-.32,1.14-.26,2.15-.65,3.02-1.16.87-.51,1.57-1.15,2.09-1.91.52-.76.79-1.63.79-2.61s-.17-1.81-.52-2.43-.73-1.19-1.16-1.72-.82-1.08-1.16-1.68c-.35-.6-.52-1.39-.52-2.4,0-.5.09-1.02.29-1.57.19-.55.48-1.05.88-1.5.39-.45.89-.82,1.5-1.11.61-.29,1.33-.43,2.16-.43s1.64.17,2.41.52c.78.35,1.45.88,2.04,1.59.58.72,1.05,1.61,1.4,2.68.34,1.07.52,2.34.52,3.79,0,1.98-.36,3.88-1.09,5.71-.73,1.82-1.81,3.44-3.25,4.85-1.44,1.41-3.24,2.53-5.4,3.36s-4.67,1.25-7.53,1.25v-4.9Z"/>
      <path class="cls-8" d="m1153.48,641.13l-1.04,16.78h-6.15l-1-16.78h8.19Z"/>
      <path class="cls-11" d="m1209.42,691.67h-6.94l-3.25-10.19h-19.46l-3.29,10.19h-6.62l15.52-46.75h8.73l15.31,46.75Zm-12.02-15.88l-7.91-25-7.9,25h15.81Z"/>
      <path class="cls-11" d="m1227.73,646.25h-10.62v-5.12h16.92v45.35h10.69v5.19h-28.79v-5.19h11.8v-40.24Z"/>
      <path class="cls-11" d="m1286.11,671.82c0,.88-.01,1.62-.04,2.22-.02.6-.06,1.16-.11,1.68h-25.22c0,3.67,1.03,6.49,3.08,8.46,2.05,1.97,5.01,2.95,8.87,2.95,1.05,0,2.1-.04,3.15-.12,1.05-.08,2.06-.2,3.04-.34.98-.14,1.91-.3,2.81-.48s1.72-.38,2.49-.59v5.11c-1.69.48-3.61.86-5.74,1.16-2.13.3-4.35.45-6.63.45-3.08,0-5.72-.42-7.94-1.25-2.22-.83-4.04-2.04-5.46-3.63s-2.47-3.53-3.15-5.83-1.02-4.91-1.02-7.82c0-2.53.36-4.92,1.09-7.17.73-2.25,1.79-4.23,3.18-5.94,1.4-1.7,3.11-3.06,5.13-4.06,2.03-1,4.33-1.5,6.9-1.5s4.72.39,6.65,1.18c1.93.79,3.56,1.9,4.88,3.34,1.32,1.44,2.33,3.2,3,5.26.68,2.06,1.02,4.37,1.02,6.92Zm-6.47-.89c.07-1.6-.08-3.06-.46-4.38-.38-1.32-.97-2.46-1.77-3.42-.8-.95-1.79-1.7-2.99-2.24-1.19-.54-2.58-.8-4.15-.8-1.36,0-2.6.26-3.72.79-1.12.52-2.09,1.26-2.9,2.22-.81.95-1.47,2.1-1.97,3.43-.5,1.33-.81,2.8-.93,4.4h18.89Z"/>
      <path class="cls-11" d="m1328.42,691.67h-8.26l-9.69-13.7-9.59,13.7h-8.05l13.91-18.03-13.27-17.88h7.98l9.44,13.81,9.26-13.81h7.69l-13.48,18.03,14.06,17.88Z"/>
      <path class="cls-8" d="m1354.85,641.13l-1.04,16.78h-6.15l-1-16.78h8.19Z"/>
      <path class="cls-1" d="m1379.39,699c1.22.05,2.4-.06,3.54-.32,1.14-.26,2.15-.65,3.02-1.16.87-.51,1.57-1.15,2.09-1.91.52-.76.79-1.63.79-2.61s-.17-1.81-.52-2.43-.73-1.19-1.16-1.72-.82-1.08-1.16-1.68c-.35-.6-.52-1.39-.52-2.4,0-.5.09-1.02.29-1.57.19-.55.48-1.05.88-1.5.39-.45.89-.82,1.5-1.11.61-.29,1.33-.43,2.16-.43s1.64.17,2.41.52c.78.35,1.45.88,2.04,1.59.58.72,1.05,1.61,1.4,2.68.34,1.07.52,2.34.52,3.79,0,1.98-.36,3.88-1.09,5.71-.73,1.82-1.81,3.44-3.25,4.85-1.44,1.41-3.24,2.53-5.4,3.36s-4.67,1.25-7.53,1.25v-4.9Z"/>
      <path class="cls-8" d="m1475.68,641.13l-1.04,16.78h-6.15l-1-16.78h8.19Z"/>
      <path class="cls-11" d="m1527.75,691.67h-8.3l-13.63-29.15-3.93-9.37v38.52h-5.94v-46.75h8.19l12.98,27.61,4.69,10.69v-38.31h5.94v46.75Z"/>
      <path class="cls-11" d="m1568.03,671.82c0,.88-.01,1.62-.04,2.22-.02.6-.06,1.16-.11,1.68h-25.22c0,3.67,1.03,6.49,3.08,8.46,2.05,1.97,5.01,2.95,8.87,2.95,1.05,0,2.1-.04,3.15-.12,1.05-.08,2.06-.2,3.04-.34.98-.14,1.91-.3,2.81-.48s1.72-.38,2.49-.59v5.11c-1.69.48-3.61.86-5.74,1.16-2.13.3-4.35.45-6.63.45-3.08,0-5.72-.42-7.94-1.25-2.22-.83-4.04-2.04-5.46-3.63s-2.47-3.53-3.15-5.83-1.02-4.91-1.02-7.82c0-2.53.36-4.92,1.09-7.17.73-2.25,1.79-4.23,3.18-5.94,1.4-1.7,3.11-3.06,5.13-4.06,2.03-1,4.33-1.5,6.9-1.5s4.72.39,6.65,1.18c1.93.79,3.56,1.9,4.88,3.34,1.32,1.44,2.33,3.2,3,5.26.68,2.06,1.02,4.37,1.02,6.92Zm-6.47-.89c.07-1.6-.08-3.06-.46-4.38-.38-1.32-.97-2.46-1.77-3.42-.8-.95-1.79-1.7-2.99-2.24-1.19-.54-2.58-.8-4.15-.8-1.36,0-2.6.26-3.72.79-1.12.52-2.09,1.26-2.9,2.22-.81.95-1.47,2.1-1.97,3.43-.5,1.33-.81,2.8-.93,4.4h18.89Z"/>
      <path class="cls-11" d="m1611.24,655.76l-5.22,35.91h-7.55l-5.19-15.02-1.04-3.65-1.18,3.86-4.97,14.81h-7.33l-5.19-35.91h6.08l3,24.39.64,5.44,1.54-4.76,5.22-16.13h4.47l5.62,15.92,1.61,4.76.54-5.04,2.79-24.57h6.15Z"/>
      <path class="cls-11" d="m1693.07,644.92l-16.92,30.04v16.7h-6.44v-16.85l-16.92-29.9h7.69l9.3,17.1,3.43,6.87,3.15-6.22,9.41-17.74h7.3Z"/>
      <path class="cls-11" d="m1730.06,673.43c0,2.79-.39,5.35-1.18,7.67s-1.92,4.32-3.4,5.97-3.28,2.94-5.4,3.86c-2.12.92-4.53,1.38-7.23,1.38s-4.88-.4-6.92-1.2-3.77-1.97-5.19-3.52-2.5-3.47-3.25-5.76c-.75-2.29-1.13-4.92-1.13-7.91,0-2.79.39-5.33,1.18-7.64.79-2.3,1.92-4.28,3.4-5.94,1.48-1.66,3.28-2.95,5.4-3.86s4.53-1.38,7.23-1.38,4.88.4,6.92,1.2,3.77,1.97,5.19,3.5c1.42,1.54,2.5,3.45,3.25,5.74s1.13,4.91,1.13,7.87Zm-6.37.29c0-2.22-.25-4.16-.73-5.81s-1.19-3.04-2.09-4.15c-.91-1.11-2.01-1.94-3.31-2.5-1.3-.56-2.75-.84-4.35-.84-1.86,0-3.45.36-4.78,1.09s-2.41,1.7-3.25,2.92c-.85,1.22-1.47,2.63-1.86,4.24-.39,1.61-.59,3.3-.59,5.06,0,2.22.24,4.16.73,5.83.49,1.67,1.19,3.06,2.09,4.17.91,1.11,2,1.94,3.29,2.5,1.29.56,2.74.84,4.36.84,1.86,0,3.45-.36,4.77-1.09,1.32-.73,2.41-1.7,3.25-2.92s1.47-2.63,1.86-4.24.59-3.31.59-5.1Z"/>
      <path class="cls-11" d="m1740.54,655.76h5.69l.18,6.62c2.12-2.55,4.21-4.4,6.28-5.54,2.06-1.14,4.14-1.72,6.24-1.72,3.72,0,6.54,1.2,8.46,3.61,1.92,2.41,2.81,5.99,2.67,10.73h-6.3c.07-3.15-.39-5.43-1.38-6.85-.99-1.42-2.44-2.13-4.35-2.13-.83,0-1.68.15-2.52.45-.85.3-1.72.77-2.61,1.43-.89.66-1.84,1.5-2.84,2.52-1,1.03-2.08,2.27-3.22,3.72v23.07h-6.29v-35.91Z"/>
      <path class="cls-11" d="m1811.65,691.67h-8.55l-16.74-19.24v19.24h-6.22v-50.54h6.22v31.05l16.13-16.42h8.23l-16.85,16.56,17.78,19.35Z"/>
      <path class="cls-8" d="m1838.15,641.13l-1.04,16.78h-6.15l-1-16.78h8.19Z"/>
      <path class="cls-1" d="m1862.69,699c1.22.05,2.4-.06,3.54-.32,1.14-.26,2.15-.65,3.02-1.16.87-.51,1.57-1.15,2.09-1.91.52-.76.79-1.63.79-2.61s-.17-1.81-.52-2.43-.73-1.19-1.16-1.72-.82-1.08-1.16-1.68c-.35-.6-.52-1.39-.52-2.4,0-.5.09-1.02.29-1.57.19-.55.48-1.05.88-1.5.39-.45.89-.82,1.5-1.11.61-.29,1.33-.43,2.16-.43s1.64.17,2.41.52c.78.35,1.45.88,2.04,1.59.58.72,1.05,1.61,1.4,2.68.34,1.07.52,2.34.52,3.79,0,1.98-.36,3.88-1.09,5.71-.73,1.82-1.81,3.44-3.25,4.85-1.44,1.41-3.24,2.53-5.4,3.36s-4.67,1.25-7.53,1.25v-4.9Z"/>
      <path class="cls-8" d="m1958.97,641.13l-1.04,16.78h-6.15l-1-16.78h8.19Z"/>
      <path class="cls-11" d="m2011.41,675.4c0,2.58-.36,4.91-1.09,6.99-.73,2.09-1.79,3.86-3.2,5.33-1.41,1.47-3.13,2.6-5.17,3.4s-4.38,1.2-7.03,1.2c-2.91,0-5.38-.38-7.4-1.14s-3.68-1.84-4.95-3.24c-1.28-1.4-2.21-3.07-2.79-5.03-.58-1.96-.88-4.14-.88-6.55v-31.44h6.37v30.94c0,1.84.17,3.45.52,4.83s.91,2.54,1.7,3.47c.79.93,1.81,1.63,3.06,2.11,1.25.48,2.78.72,4.6.72,3.39,0,5.88-.98,7.49-2.93s2.41-4.71,2.41-8.26v-30.87h6.37v30.47Z"/>
      <path class="cls-11" d="m2020.99,655.76h5.54l.25,5.79c1.05-1.24,2.06-2.27,3.04-3.09.98-.82,1.94-1.48,2.88-1.98.94-.5,1.9-.85,2.88-1.06.98-.2,1.99-.3,3.04-.3,3.7,0,6.49,1.09,8.39,3.27s2.84,5.47,2.84,9.85v23.43h-6.22v-22.93c0-2.81-.53-4.89-1.57-6.24-1.05-1.35-2.61-2.02-4.69-2.02-.76,0-1.51.11-2.24.34-.73.23-1.48.62-2.27,1.18-.79.56-1.64,1.32-2.56,2.27-.92.95-1.95,2.15-3.09,3.58v23.82h-6.22v-35.91Z"/>
      <path class="cls-11" d="m2073.5,660.91h-10.62v-5.15h16.92v30.72h10.69v5.19h-28.79v-5.19h11.8v-25.57Zm2.18-20.21c.69,0,1.33.13,1.93.38.6.25,1.12.6,1.56,1.06.44.45.79.97,1.04,1.56.25.58.38,1.22.38,1.91s-.12,1.3-.38,1.9c-.25.6-.6,1.12-1.04,1.57-.44.45-.96.8-1.56,1.06-.6.25-1.24.38-1.93.38s-1.34-.12-1.93-.38c-.6-.25-1.12-.6-1.56-1.06-.44-.45-.79-.98-1.04-1.57-.25-.6-.38-1.23-.38-1.9s.12-1.33.38-1.91c.25-.58.6-1.1,1.04-1.56.44-.45.96-.81,1.56-1.06.6-.25,1.24-.38,1.93-.38Z"/>
      <path class="cls-11" d="m2130.48,691.17c-1.41.36-2.86.61-4.36.77-1.5.15-3.03.23-4.58.23-4.51,0-7.87-1.02-10.09-3.06-2.22-2.04-3.33-5.17-3.33-9.39v-18.74h-10.05v-5.22h10.05v-9.87l6.22-1.61v11.48h16.13v5.22h-16.13v18.24c0,2.58.69,4.5,2.06,5.78,1.37,1.28,3.39,1.91,6.06,1.91,1.14,0,2.4-.09,3.75-.27,1.36-.18,2.78-.46,4.26-.84v5.37Z"/>
      <path class="cls-11" d="m2172.15,671.82c0,.88-.01,1.62-.04,2.22-.02.6-.06,1.16-.11,1.68h-25.22c0,3.67,1.03,6.49,3.08,8.46,2.05,1.97,5.01,2.95,8.87,2.95,1.05,0,2.1-.04,3.15-.12,1.05-.08,2.06-.2,3.04-.34.98-.14,1.91-.3,2.81-.48s1.72-.38,2.49-.59v5.11c-1.69.48-3.61.86-5.74,1.16-2.13.3-4.35.45-6.63.45-3.08,0-5.72-.42-7.94-1.25-2.22-.83-4.04-2.04-5.46-3.63s-2.47-3.53-3.15-5.83-1.02-4.91-1.02-7.82c0-2.53.36-4.92,1.09-7.17.73-2.25,1.79-4.23,3.18-5.94,1.4-1.7,3.11-3.06,5.13-4.06,2.03-1,4.33-1.5,6.9-1.5s4.72.39,6.65,1.18c1.93.79,3.56,1.9,4.88,3.34,1.32,1.44,2.33,3.2,3,5.26.68,2.06,1.02,4.37,1.02,6.92Zm-6.47-.89c.07-1.6-.08-3.06-.46-4.38-.38-1.32-.97-2.46-1.77-3.42-.8-.95-1.79-1.7-2.99-2.24-1.19-.54-2.58-.8-4.15-.8-1.36,0-2.6.26-3.72.79-1.12.52-2.09,1.26-2.9,2.22-.81.95-1.47,2.1-1.97,3.43-.5,1.33-.81,2.8-.93,4.4h18.89Z"/>
      <path class="cls-11" d="m2180.27,674.47c0-3.05.42-5.76,1.25-8.14.83-2.37,2.02-4.38,3.56-6.01,1.54-1.63,3.38-2.87,5.54-3.72,2.16-.85,4.56-1.27,7.21-1.27,1.14,0,2.27.07,3.38.21,1.11.14,2.2.37,3.27.68v-15.09h6.26v50.54h-5.58l-.21-6.8c-1.74,2.53-3.62,4.4-5.65,5.62-2.03,1.22-4.22,1.82-6.58,1.82-2.05,0-3.86-.43-5.42-1.29s-2.86-2.07-3.9-3.63c-1.04-1.56-1.82-3.44-2.34-5.63-.52-2.19-.79-4.63-.79-7.3Zm6.37-.39c0,4.34.64,7.58,1.91,9.71s3.08,3.2,5.42,3.2c1.57,0,3.24-.7,4.99-2.11,1.75-1.41,3.59-3.49,5.53-6.26v-16.67c-1.03-.48-2.16-.84-3.4-1.09-1.24-.25-2.47-.38-3.68-.38-3.39,0-6.03,1.1-7.92,3.29-1.9,2.19-2.84,5.63-2.84,10.3Z"/>
      <path class="cls-11" d="m2292.58,679.01c0,2.22-.45,4.16-1.36,5.83-.91,1.67-2.17,3.06-3.79,4.17-1.62,1.11-3.57,1.94-5.85,2.49-2.28.55-4.79.82-7.53.82-1.24,0-2.47-.05-3.7-.14-1.23-.1-2.41-.21-3.54-.36-1.13-.14-2.2-.31-3.2-.5-1-.19-1.91-.39-2.72-.61v-6.15c1.79.67,3.8,1.19,6.03,1.57,2.23.38,4.76.57,7.6.57,2.05,0,3.8-.16,5.24-.48,1.44-.32,2.62-.8,3.54-1.43.92-.63,1.59-1.4,2-2.31s.63-1.94.63-3.11c0-1.26-.35-2.34-1.06-3.24s-1.63-1.69-2.77-2.4-2.45-1.35-3.92-1.93c-1.47-.58-2.96-1.19-4.49-1.81-1.53-.62-3.02-1.29-4.49-2.02-1.47-.73-2.77-1.59-3.92-2.58s-2.07-2.15-2.77-3.49c-.7-1.33-1.05-2.92-1.05-4.76,0-1.6.33-3.17,1-4.72.67-1.55,1.71-2.93,3.11-4.13,1.41-1.2,3.21-2.18,5.42-2.92,2.21-.74,4.83-1.11,7.89-1.11.79,0,1.64.04,2.56.11s1.85.17,2.79.3c.94.13,1.87.28,2.79.45.92.17,1.77.35,2.56.54v5.72c-1.84-.52-3.67-.92-5.51-1.2s-3.61-.41-5.33-.41c-3.65,0-6.33.61-8.05,1.82-1.72,1.22-2.58,2.85-2.58,4.9,0,1.26.35,2.35,1.06,3.25.7.91,1.63,1.72,2.77,2.43,1.14.71,2.45,1.37,3.92,1.95,1.47.58,2.96,1.19,4.49,1.81s3.02,1.3,4.49,2.04c1.47.74,2.77,1.62,3.92,2.63,1.14,1.01,2.07,2.2,2.77,3.56.7,1.36,1.05,2.97,1.05,4.83Z"/>
      <path class="cls-11" d="m2331.85,691.17c-1.41.36-2.86.61-4.36.77-1.5.15-3.03.23-4.58.23-4.51,0-7.87-1.02-10.09-3.06-2.22-2.04-3.33-5.17-3.33-9.39v-18.74h-10.05v-5.22h10.05v-9.87l6.22-1.61v11.48h16.13v5.22h-16.13v18.24c0,2.58.69,4.5,2.06,5.78,1.37,1.28,3.39,1.91,6.06,1.91,1.14,0,2.4-.09,3.75-.27,1.36-.18,2.78-.46,4.26-.84v5.37Z"/>
      <path class="cls-11" d="m2366.26,691.67l-.14-4.83c-1.96,1.93-3.94,3.33-5.96,4.19-2.01.86-4.13,1.29-6.35,1.29-2.05,0-3.8-.26-5.26-.79-1.45-.52-2.65-1.25-3.59-2.16s-1.63-2-2.07-3.24c-.44-1.24-.66-2.59-.66-4.04,0-3.6,1.34-6.42,4.02-8.46s6.65-3.06,11.89-3.06h7.44v-3.15c0-2.12-.68-3.82-2.04-5.1-1.36-1.28-3.43-1.91-6.22-1.91-2.03,0-4.02.23-5.99.68-1.97.45-4,1.1-6.1,1.93v-5.62c.79-.29,1.66-.57,2.63-.84.97-.27,1.99-.52,3.06-.73,1.07-.21,2.19-.39,3.36-.52,1.17-.13,2.35-.2,3.54-.2,2.17,0,4.12.24,5.87.71,1.74.48,3.21,1.21,4.42,2.18s2.13,2.21,2.77,3.68.97,3.22.97,5.22v24.75h-5.58Zm-.68-16.35h-7.9c-1.55,0-2.89.16-4.01.46-1.12.31-2.04.75-2.75,1.32-.72.57-1.25,1.26-1.59,2.06-.35.8-.52,1.7-.52,2.7,0,.69.11,1.35.32,1.99s.56,1.19,1.04,1.68c.48.49,1.1.88,1.86,1.16.76.29,1.69.43,2.79.43,1.43,0,3.07-.43,4.92-1.3,1.85-.87,3.8-2.25,5.85-4.13v-6.37Z"/>
      <path class="cls-11" d="m2412.4,691.17c-1.41.36-2.86.61-4.36.77-1.5.15-3.03.23-4.58.23-4.51,0-7.87-1.02-10.09-3.06-2.22-2.04-3.33-5.17-3.33-9.39v-18.74h-10.05v-5.22h10.05v-9.87l6.22-1.61v11.48h16.13v5.22h-16.13v18.24c0,2.58.69,4.5,2.06,5.78,1.37,1.28,3.39,1.91,6.06,1.91,1.14,0,2.4-.09,3.75-.27,1.36-.18,2.78-.46,4.26-.84v5.37Z"/>
      <path class="cls-11" d="m2454.07,671.82c0,.88-.01,1.62-.04,2.22-.02.6-.06,1.16-.11,1.68h-25.22c0,3.67,1.03,6.49,3.08,8.46,2.05,1.97,5.01,2.95,8.87,2.95,1.05,0,2.1-.04,3.15-.12,1.05-.08,2.06-.2,3.04-.34.98-.14,1.91-.3,2.81-.48s1.72-.38,2.49-.59v5.11c-1.69.48-3.61.86-5.74,1.16-2.13.3-4.35.45-6.63.45-3.08,0-5.72-.42-7.94-1.25-2.22-.83-4.04-2.04-5.46-3.63s-2.47-3.53-3.15-5.83-1.02-4.91-1.02-7.82c0-2.53.36-4.92,1.09-7.17.73-2.25,1.79-4.23,3.18-5.94,1.4-1.7,3.11-3.06,5.13-4.06,2.03-1,4.33-1.5,6.9-1.5s4.72.39,6.65,1.18c1.93.79,3.56,1.9,4.88,3.34,1.32,1.44,2.33,3.2,3,5.26.68,2.06,1.02,4.37,1.02,6.92Zm-6.47-.89c.07-1.6-.08-3.06-.46-4.38-.38-1.32-.97-2.46-1.77-3.42-.8-.95-1.79-1.7-2.99-2.24-1.19-.54-2.58-.8-4.15-.8-1.36,0-2.6.26-3.72.79-1.12.52-2.09,1.26-2.9,2.22-.81.95-1.47,2.1-1.97,3.43-.5,1.33-.81,2.8-.93,4.4h18.89Z"/>
      <path class="cls-11" d="m2492.45,681.87c0,1.26-.21,2.4-.64,3.4-.43,1-1.01,1.89-1.75,2.67-.74.77-1.6,1.44-2.58,1.98-.98.55-2.02,1-3.13,1.36-1.11.36-2.25.62-3.42.79-1.17.17-2.31.25-3.43.25-2.43,0-4.67-.11-6.71-.32-2.04-.21-4.04-.56-5.99-1.04v-5.72c2.1.6,4.18,1.05,6.26,1.36,2.07.31,4.14.46,6.19.46,2.98,0,5.19-.41,6.62-1.22s2.15-1.97,2.15-3.47c0-.64-.11-1.22-.34-1.73s-.64-1-1.23-1.47c-.6-.46-1.52-.95-2.77-1.45-1.25-.5-2.96-1.07-5.13-1.72-1.62-.48-3.12-1.02-4.49-1.63-1.37-.61-2.56-1.33-3.56-2.16-1-.83-1.79-1.81-2.36-2.93s-.86-2.44-.86-3.97c0-1,.23-2.1.7-3.29s1.26-2.3,2.38-3.33c1.12-1.03,2.63-1.88,4.54-2.56,1.91-.68,4.29-1.02,7.15-1.02,1.41,0,2.97.08,4.69.23s3.5.42,5.37.8v5.54c-1.96-.48-3.81-.83-5.56-1.05-1.75-.23-3.27-.34-4.56-.34-1.55,0-2.86.12-3.92.36-1.06.24-1.92.57-2.58.98-.66.42-1.13.91-1.41,1.47s-.43,1.16-.43,1.81.12,1.23.38,1.75c.25.53.72,1.03,1.4,1.52.68.49,1.63.98,2.84,1.47,1.22.49,2.8,1.02,4.76,1.59,2.12.62,3.91,1.27,5.37,1.95,1.45.68,2.63,1.44,3.54,2.27.91.83,1.56,1.78,1.95,2.83.39,1.05.59,2.24.59,3.58Z"/>
      <path class="cls-8" d="m2522.82,641.13l-1.04,16.78h-6.15l-1-16.78h8.19Z"/>
      <path class="cls-1" d="m2551.9,638.41c10.99,10.18,16.49,21.51,16.49,33.98,0,2.58-.26,5.25-.79,8.01-.53,2.77-1.42,5.6-2.68,8.49-1.26,2.9-2.96,5.84-5.1,8.82-2.13,2.98-4.82,5.97-8.07,8.98l-3.61-3.68c4.65-4.6,8.12-9.41,10.41-14.42s3.43-10.25,3.43-15.74c0-11.35-4.61-21.56-13.84-30.62l3.76-3.83Z"/>
      <path class="cls-9" d="m521.25,851.2c0,2.58-.36,4.91-1.09,6.99-.73,2.09-1.79,3.86-3.2,5.33-1.41,1.47-3.13,2.6-5.17,3.4s-4.38,1.2-7.03,1.2c-2.91,0-5.38-.38-7.4-1.14s-3.68-1.84-4.95-3.24c-1.28-1.4-2.21-3.07-2.79-5.03-.58-1.96-.88-4.14-.88-6.55v-31.44h6.37v30.94c0,1.84.17,3.45.52,4.83s.91,2.54,1.7,3.47c.79.93,1.81,1.63,3.06,2.11,1.25.48,2.78.72,4.6.72,3.39,0,5.88-.98,7.49-2.93s2.41-4.71,2.41-8.26v-30.87h6.37v30.47Z"/>
      <path class="cls-9" d="m561.45,835.04c0,1.91-.36,3.8-1.07,5.67-.72,1.87-1.82,3.55-3.33,5.03-1.5,1.48-3.42,2.68-5.76,3.59s-5.13,1.38-8.37,1.38h-5.79v16.78h-6.37v-46.75h13.16c2.31,0,4.53.26,6.65.77,2.12.51,3.99,1.34,5.6,2.49s2.89,2.62,3.84,4.44c.95,1.81,1.43,4.02,1.43,6.62Zm-6.62.29c0-3-.98-5.31-2.95-6.9-1.97-1.6-4.72-2.4-8.25-2.4h-6.51v19.24h5.94c3.77,0,6.67-.82,8.71-2.47s3.06-4.14,3.06-7.48Z"/>
      <path class="cls-9" d="m603.05,843.58c0,2.24-.17,4.39-.52,6.44-.35,2.05-.9,3.96-1.66,5.72-.76,1.76-1.75,3.37-2.97,4.81-1.22,1.44-2.71,2.68-4.47,3.7s-3.82,1.82-6.15,2.38c-2.34.56-5,.84-7.98.84h-10.02v-46.75h12.05c7.3,0,12.74,1.88,16.33,5.63s5.38,9.5,5.38,17.22Zm-6.69.46c0-3.31-.31-6.12-.93-8.41-.62-2.29-1.56-4.14-2.83-5.54-1.26-1.41-2.85-2.43-4.76-3.06-1.91-.63-4.15-.95-6.72-.95h-5.47v35.88h4.76c10.63,0,15.95-5.97,15.95-17.92Z"/>
      <path class="cls-9" d="m645.58,867.48h-6.94l-3.25-10.19h-19.46l-3.29,10.19h-6.62l15.52-46.75h8.73l15.31,46.75Zm-12.02-15.88l-7.91-25-7.9,25h15.81Z"/>
      <path class="cls-9" d="m683.13,826.17h-13.84v41.31h-6.44v-41.31h-13.84v-5.44h34.12v5.44Z"/>
      <path class="cls-9" d="m719.97,867.48h-26.58v-46.75h26.58v5.37h-20.21v14.49h19.42v5.37h-19.42v16.1h20.21v5.44Z"/>
      <path class="cls-1" d="m801.42,866.98c-1.41.36-2.86.61-4.36.77-1.5.15-3.03.23-4.58.23-4.51,0-7.87-1.02-10.09-3.06-2.22-2.04-3.33-5.17-3.33-9.39v-18.74h-10.05v-5.22h10.05v-9.87l6.22-1.61v11.48h16.13v5.22h-16.13v18.24c0,2.58.69,4.5,2.06,5.78,1.37,1.28,3.39,1.91,6.06,1.91,1.14,0,2.4-.09,3.75-.27,1.36-.18,2.78-.46,4.26-.84v5.37Z"/>
      <path class="cls-1" d="m835.82,867.48l-.14-4.83c-1.96,1.93-3.94,3.33-5.96,4.19-2.01.86-4.13,1.29-6.35,1.29-2.05,0-3.8-.26-5.26-.79-1.45-.52-2.65-1.25-3.59-2.16s-1.63-2-2.07-3.24c-.44-1.24-.66-2.59-.66-4.04,0-3.6,1.34-6.42,4.02-8.46s6.65-3.06,11.89-3.06h7.44v-3.15c0-2.12-.68-3.82-2.04-5.1-1.36-1.28-3.43-1.91-6.22-1.91-2.03,0-4.02.23-5.99.68-1.97.45-4,1.1-6.1,1.93v-5.62c.79-.29,1.66-.57,2.63-.84.97-.27,1.99-.52,3.06-.73,1.07-.21,2.19-.39,3.36-.52,1.17-.13,2.35-.2,3.54-.2,2.17,0,4.12.24,5.87.71,1.74.48,3.21,1.21,4.42,2.18s2.13,2.21,2.77,3.68.97,3.22.97,5.22v24.75h-5.58Zm-.68-16.35h-7.9c-1.55,0-2.89.16-4.01.46-1.12.31-2.04.75-2.75,1.32-.72.57-1.25,1.26-1.59,2.06-.35.8-.52,1.7-.52,2.7,0,.69.11,1.35.32,1.99s.56,1.19,1.04,1.68c.48.49,1.1.88,1.86,1.16.76.29,1.69.43,2.79.43,1.43,0,3.07-.43,4.92-1.3,1.85-.87,3.8-2.25,5.85-4.13v-6.37Z"/>
      <path class="cls-1" d="m883.72,848.88c0,2.98-.41,5.65-1.23,7.99-.82,2.35-1.99,4.34-3.5,5.97-1.51,1.63-3.36,2.89-5.53,3.76-2.17.87-4.61,1.31-7.33,1.31-2.12,0-4.29-.2-6.51-.61-2.22-.41-4.41-1.05-6.58-1.93v-48.43h6.22v13.91l-.29,6.65c1.79-2.41,3.7-4.11,5.74-5.1,2.04-.99,4.23-1.48,6.56-1.48,2.05,0,3.85.43,5.4,1.29s2.85,2.07,3.9,3.63c1.05,1.56,1.84,3.45,2.36,5.65.52,2.21.79,4.67.79,7.39Zm-6.37.29c0-1.88-.14-3.61-.41-5.19-.27-1.57-.71-2.92-1.31-4.04-.6-1.12-1.36-2-2.29-2.63s-2.04-.95-3.33-.95c-.79,0-1.59.12-2.4.38-.81.25-1.65.67-2.52,1.25-.87.58-1.79,1.36-2.75,2.32s-2,2.16-3.09,3.59v17.42c1.22.48,2.46.85,3.72,1.13,1.26.27,2.47.41,3.61.41,1.43,0,2.79-.23,4.09-.68,1.3-.45,2.44-1.21,3.43-2.27.99-1.06,1.78-2.47,2.36-4.22.58-1.75.88-3.93.88-6.53Z"/>
      <path class="cls-1" d="m905.54,822.05h-10.62v-5.12h16.92v45.35h10.69v5.19h-28.79v-5.19h11.8v-40.24Z"/>
      <path class="cls-1" d="m963.91,847.63c0,.88-.01,1.62-.04,2.22-.02.6-.06,1.16-.11,1.68h-25.22c0,3.67,1.03,6.49,3.08,8.46,2.05,1.97,5.01,2.95,8.87,2.95,1.05,0,2.1-.04,3.15-.12,1.05-.08,2.06-.2,3.04-.34.98-.14,1.91-.3,2.81-.48s1.72-.38,2.49-.59v5.11c-1.69.48-3.61.86-5.74,1.16-2.13.3-4.35.45-6.63.45-3.08,0-5.72-.42-7.94-1.25-2.22-.83-4.04-2.04-5.46-3.63s-2.47-3.53-3.15-5.83-1.02-4.91-1.02-7.82c0-2.53.36-4.92,1.09-7.17.73-2.25,1.79-4.23,3.18-5.94,1.4-1.7,3.11-3.06,5.13-4.06,2.03-1,4.33-1.5,6.9-1.5s4.72.39,6.65,1.18c1.93.79,3.56,1.9,4.88,3.34,1.32,1.44,2.33,3.2,3,5.26.68,2.06,1.02,4.37,1.02,6.92Zm-6.47-.89c.07-1.6-.08-3.06-.46-4.38-.38-1.32-.97-2.46-1.77-3.42-.8-.95-1.79-1.7-2.99-2.24-1.19-.54-2.58-.8-4.15-.8-1.36,0-2.6.26-3.72.79-1.12.52-2.09,1.26-2.9,2.22-.81.95-1.47,2.1-1.97,3.43-.5,1.33-.81,2.8-.93,4.4h18.89Z"/>
      <path class="cls-1" d="m1008.4,882.14h-40.27v-5.15h40.27v5.15Z"/>
      <path class="cls-1" d="m1042.56,857.68c0,1.26-.21,2.4-.64,3.4-.43,1-1.01,1.89-1.75,2.67-.74.77-1.6,1.44-2.58,1.98-.98.55-2.02,1-3.13,1.36-1.11.36-2.25.62-3.42.79-1.17.17-2.31.25-3.43.25-2.43,0-4.67-.11-6.71-.32-2.04-.21-4.04-.56-5.99-1.04v-5.72c2.1.6,4.18,1.05,6.26,1.36,2.07.31,4.14.46,6.19.46,2.98,0,5.19-.41,6.62-1.22s2.15-1.97,2.15-3.47c0-.64-.11-1.22-.34-1.73s-.64-1-1.23-1.47c-.6-.46-1.52-.95-2.77-1.45-1.25-.5-2.96-1.07-5.13-1.72-1.62-.48-3.12-1.02-4.49-1.63-1.37-.61-2.56-1.33-3.56-2.16-1-.83-1.79-1.81-2.36-2.93s-.86-2.44-.86-3.97c0-1,.23-2.1.7-3.29s1.26-2.3,2.38-3.33c1.12-1.03,2.63-1.88,4.54-2.56,1.91-.68,4.29-1.02,7.15-1.02,1.41,0,2.97.08,4.69.23s3.5.42,5.37.8v5.54c-1.96-.48-3.81-.83-5.56-1.05-1.75-.23-3.27-.34-4.56-.34-1.55,0-2.86.12-3.92.36-1.06.24-1.92.57-2.58.98-.66.42-1.13.91-1.41,1.47s-.43,1.16-.43,1.81.12,1.23.38,1.75c.25.53.72,1.03,1.4,1.52.68.49,1.63.98,2.84,1.47,1.22.49,2.8,1.02,4.76,1.59,2.12.62,3.91,1.27,5.37,1.95,1.45.68,2.63,1.44,3.54,2.27.91.83,1.56,1.78,1.95,2.83.39,1.05.59,2.24.59,3.58Z"/>
      <path class="cls-1" d="m1083.34,866.98c-1.41.36-2.86.61-4.36.77-1.5.15-3.03.23-4.58.23-4.51,0-7.87-1.02-10.09-3.06-2.22-2.04-3.33-5.17-3.33-9.39v-18.74h-10.05v-5.22h10.05v-9.87l6.22-1.61v11.48h16.13v5.22h-16.13v18.24c0,2.58.69,4.5,2.06,5.78,1.37,1.28,3.39,1.91,6.06,1.91,1.14,0,2.4-.09,3.75-.27,1.36-.18,2.78-.46,4.26-.84v5.37Z"/>
      <path class="cls-1" d="m1123.54,867.48h-5.58l-.21-5.79c-1.07,1.24-2.09,2.27-3.06,3.09-.97.82-1.93,1.48-2.88,1.98-.95.5-1.91.85-2.88,1.06-.97.2-1.99.3-3.06.3-3.7,0-6.49-1.08-8.37-3.25-1.88-2.17-2.83-5.45-2.83-9.84v-23.46h6.22v22.96c0,5.51,2.08,8.26,6.22,8.26.76,0,1.51-.11,2.24-.34s1.49-.62,2.29-1.18c.8-.56,1.66-1.32,2.58-2.27.92-.95,1.95-2.16,3.09-3.61v-23.82h6.22v35.91Z"/>
      <path class="cls-1" d="m1133.13,850.27c0-3.05.42-5.76,1.25-8.14.83-2.37,2.02-4.38,3.56-6.01,1.54-1.63,3.38-2.87,5.54-3.72,2.16-.85,4.56-1.27,7.21-1.27,1.14,0,2.27.07,3.38.21,1.11.14,2.2.37,3.27.68v-15.09h6.26v50.54h-5.58l-.21-6.8c-1.74,2.53-3.62,4.4-5.65,5.62-2.03,1.22-4.22,1.82-6.58,1.82-2.05,0-3.86-.43-5.42-1.29s-2.86-2.07-3.9-3.63c-1.04-1.56-1.82-3.44-2.34-5.63-.52-2.19-.79-4.63-.79-7.3Zm6.37-.39c0,4.34.64,7.58,1.91,9.71s3.08,3.2,5.42,3.2c1.57,0,3.24-.7,4.99-2.11,1.75-1.41,3.59-3.49,5.53-6.26v-16.67c-1.03-.48-2.16-.84-3.4-1.09-1.24-.25-2.47-.38-3.68-.38-3.39,0-6.03,1.1-7.92,3.29-1.9,2.19-2.84,5.63-2.84,10.3Z"/>
      <path class="cls-1" d="m1205.56,847.63c0,.88-.01,1.62-.04,2.22-.02.6-.06,1.16-.11,1.68h-25.22c0,3.67,1.03,6.49,3.08,8.46,2.05,1.97,5.01,2.95,8.87,2.95,1.05,0,2.1-.04,3.15-.12,1.05-.08,2.06-.2,3.04-.34.98-.14,1.91-.3,2.81-.48s1.72-.38,2.49-.59v5.11c-1.69.48-3.61.86-5.74,1.16-2.13.3-4.35.45-6.63.45-3.08,0-5.72-.42-7.94-1.25-2.22-.83-4.04-2.04-5.46-3.63s-2.47-3.53-3.15-5.83-1.02-4.91-1.02-7.82c0-2.53.36-4.92,1.09-7.17.73-2.25,1.79-4.23,3.18-5.94,1.4-1.7,3.11-3.06,5.13-4.06,2.03-1,4.33-1.5,6.9-1.5s4.72.39,6.65,1.18c1.93.79,3.56,1.9,4.88,3.34,1.32,1.44,2.33,3.2,3,5.26.68,2.06,1.02,4.37,1.02,6.92Zm-6.47-.89c.07-1.6-.08-3.06-.46-4.38-.38-1.32-.97-2.46-1.77-3.42-.8-.95-1.79-1.7-2.99-2.24-1.19-.54-2.58-.8-4.15-.8-1.36,0-2.6.26-3.72.79-1.12.52-2.09,1.26-2.9,2.22-.81.95-1.47,2.1-1.97,3.43-.5,1.33-.81,2.8-.93,4.4h18.89Z"/>
      <path class="cls-1" d="m1215.5,831.57h5.54l.25,5.79c1.05-1.24,2.06-2.27,3.04-3.09.98-.82,1.94-1.48,2.88-1.98.94-.5,1.9-.85,2.88-1.06.98-.2,1.99-.3,3.04-.3,3.7,0,6.49,1.09,8.39,3.27s2.84,5.47,2.84,9.85v23.43h-6.22v-22.93c0-2.81-.53-4.89-1.57-6.24-1.05-1.35-2.61-2.02-4.69-2.02-.76,0-1.51.11-2.24.34-.73.23-1.48.62-2.27,1.18-.79.56-1.64,1.32-2.56,2.27-.92.95-1.95,2.15-3.09,3.58v23.82h-6.22v-35.91Z"/>
      <path class="cls-1" d="m1284.71,866.98c-1.41.36-2.86.61-4.36.77-1.5.15-3.03.23-4.58.23-4.51,0-7.87-1.02-10.09-3.06-2.22-2.04-3.33-5.17-3.33-9.39v-18.74h-10.05v-5.22h10.05v-9.87l6.22-1.61v11.48h16.13v5.22h-16.13v18.24c0,2.58.69,4.5,2.06,5.78,1.37,1.28,3.39,1.91,6.06,1.91,1.14,0,2.4-.09,3.75-.27,1.36-.18,2.78-.46,4.26-.84v5.37Z"/>
      <path class="cls-9" d="m520.49,942.72c0,2.22-.45,4.16-1.36,5.83-.91,1.67-2.17,3.06-3.79,4.17-1.62,1.11-3.57,1.94-5.85,2.49-2.28.55-4.79.82-7.53.82-1.24,0-2.47-.05-3.7-.14-1.23-.1-2.41-.21-3.54-.36-1.13-.14-2.2-.31-3.2-.5-1-.19-1.91-.39-2.72-.61v-6.15c1.79.67,3.8,1.19,6.03,1.57,2.23.38,4.76.57,7.6.57,2.05,0,3.8-.16,5.24-.48,1.44-.32,2.62-.8,3.54-1.43.92-.63,1.59-1.4,2-2.31s.63-1.94.63-3.11c0-1.26-.35-2.34-1.06-3.24s-1.63-1.69-2.77-2.4-2.45-1.35-3.92-1.93c-1.47-.58-2.96-1.19-4.49-1.81-1.53-.62-3.02-1.29-4.49-2.02-1.47-.73-2.77-1.59-3.92-2.58s-2.07-2.15-2.77-3.49c-.7-1.33-1.05-2.92-1.05-4.76,0-1.6.33-3.17,1-4.72.67-1.55,1.71-2.93,3.11-4.13,1.41-1.2,3.21-2.18,5.42-2.92,2.21-.74,4.83-1.11,7.89-1.11.79,0,1.64.04,2.56.11s1.85.17,2.79.3c.94.13,1.87.28,2.79.45.92.17,1.77.35,2.56.54v5.72c-1.84-.52-3.67-.92-5.51-1.2s-3.61-.41-5.33-.41c-3.65,0-6.33.61-8.05,1.82-1.72,1.22-2.58,2.85-2.58,4.9,0,1.26.35,2.35,1.06,3.25.7.91,1.63,1.72,2.77,2.43,1.14.71,2.45,1.37,3.92,1.95,1.47.58,2.96,1.19,4.49,1.81s3.02,1.3,4.49,2.04c1.47.74,2.77,1.62,3.92,2.63,1.14,1.01,2.07,2.2,2.77,3.56.7,1.36,1.05,2.97,1.05,4.83Z"/>
      <path class="cls-9" d="m558.87,955.38h-26.58v-46.75h26.58v5.37h-20.21v14.49h19.42v5.37h-19.42v16.1h20.21v5.44Z"/>
      <path class="cls-9" d="m602.58,914.07h-13.84v41.31h-6.44v-41.31h-13.84v-5.44h34.12v5.44Z"/>
      <path class="cls-1" d="m681.99,955.38h-8.3l-13.63-29.15-3.93-9.37v38.52h-5.94v-46.75h8.19l12.98,27.61,4.69,10.69v-38.31h5.94v46.75Z"/>
      <path class="cls-1" d="m715,955.38l-.14-4.83c-1.96,1.93-3.94,3.33-5.96,4.19-2.01.86-4.13,1.29-6.35,1.29-2.05,0-3.8-.26-5.26-.79-1.45-.52-2.65-1.25-3.59-2.16s-1.63-2-2.07-3.24c-.44-1.24-.66-2.59-.66-4.04,0-3.6,1.34-6.42,4.02-8.46s6.65-3.06,11.89-3.06h7.44v-3.15c0-2.12-.68-3.82-2.04-5.1-1.36-1.28-3.43-1.91-6.22-1.91-2.03,0-4.02.23-5.99.68-1.97.45-4,1.1-6.1,1.93v-5.62c.79-.29,1.66-.57,2.63-.84.97-.27,1.99-.52,3.06-.73,1.07-.21,2.19-.39,3.36-.52,1.17-.13,2.35-.2,3.54-.2,2.17,0,4.12.24,5.87.71,1.74.48,3.21,1.21,4.42,2.18s2.13,2.21,2.77,3.68.97,3.22.97,5.22v24.75h-5.58Zm-.68-16.35h-7.9c-1.55,0-2.89.16-4.01.46-1.12.31-2.04.75-2.75,1.32-.72.57-1.25,1.26-1.59,2.06-.35.8-.52,1.7-.52,2.7,0,.69.11,1.35.32,1.99s.56,1.19,1.04,1.68c.48.49,1.1.88,1.86,1.16.76.29,1.69.43,2.79.43,1.43,0,3.07-.43,4.92-1.3,1.85-.87,3.8-2.25,5.85-4.13v-6.37Z"/>
      <path class="cls-1" d="m757.81,955.38v-25.79c0-1.12-.04-2.04-.13-2.75-.08-.71-.21-1.28-.39-1.7-.18-.42-.41-.71-.68-.88-.27-.17-.61-.25-1.02-.25-.48,0-.92.14-1.32.43-.41.29-.84.75-1.31,1.4-.46.64-.98,1.5-1.54,2.56-.56,1.06-1.22,2.37-1.99,3.92v23.07h-5.69v-25.11c0-1.31-.04-2.37-.13-3.18s-.21-1.44-.39-1.9c-.18-.45-.41-.76-.7-.93-.29-.17-.63-.25-1.04-.25-.43,0-.83.12-1.22.36-.38.24-.8.67-1.27,1.29-.47.62-.98,1.47-1.56,2.54s-1.25,2.44-2.04,4.11v23.07h-5.72v-35.91h4.76l.29,6.83c.62-1.36,1.22-2.52,1.81-3.47.58-.95,1.19-1.72,1.81-2.31s1.28-1.01,1.99-1.29c.7-.27,1.48-.41,2.34-.41,1.93,0,3.4.63,4.4,1.9,1,1.26,1.5,3.22,1.5,5.87.57-1.24,1.13-2.34,1.68-3.31.55-.97,1.14-1.78,1.77-2.43.63-.66,1.33-1.16,2.09-1.5.76-.35,1.65-.52,2.65-.52,4.51,0,6.76,3.47,6.76,10.41v26.15h-5.72Z"/>
      <path class="cls-1" d="m802.81,935.53c0,.88-.01,1.62-.04,2.22-.02.6-.06,1.16-.11,1.68h-25.22c0,3.67,1.03,6.49,3.08,8.46,2.05,1.97,5.01,2.95,8.87,2.95,1.05,0,2.1-.04,3.15-.12,1.05-.08,2.06-.2,3.04-.34.98-.14,1.91-.3,2.81-.48s1.72-.38,2.49-.59v5.11c-1.69.48-3.61.86-5.74,1.16-2.13.3-4.35.45-6.63.45-3.08,0-5.72-.42-7.94-1.25-2.22-.83-4.04-2.04-5.46-3.63s-2.47-3.53-3.15-5.83-1.02-4.91-1.02-7.82c0-2.53.36-4.92,1.09-7.17.73-2.25,1.79-4.23,3.18-5.94,1.4-1.7,3.11-3.06,5.13-4.06,2.03-1,4.33-1.5,6.9-1.5s4.72.39,6.65,1.18c1.93.79,3.56,1.9,4.88,3.34,1.32,1.44,2.33,3.2,3,5.26.68,2.06,1.02,4.37,1.02,6.92Zm-6.47-.89c.07-1.6-.08-3.06-.46-4.38-.38-1.32-.97-2.46-1.77-3.42-.8-.95-1.79-1.7-2.99-2.24-1.19-.54-2.58-.8-4.15-.8-1.36,0-2.6.26-3.72.79-1.12.52-2.09,1.26-2.9,2.22-.81.95-1.47,2.1-1.97,3.43-.5,1.33-.81,2.8-.93,4.4h18.89Z"/>
      <path class="cls-1" d="m882.82,932.27h-30.76v-5.26h30.76v5.26Zm0,12.45h-30.76v-5.26h30.76v5.26Z"/>
      <path class="cls-1" d="m952.11,904.84l-1.04,16.78h-6.15l-1-16.78h8.19Z"/>
      <path class="cls-11" d="m1008.05,955.38h-6.94l-3.25-10.19h-19.46l-3.29,10.19h-6.62l15.52-46.75h8.73l15.31,46.75Zm-12.02-15.88l-7.91-25-7.9,25h15.81Z"/>
      <path class="cls-11" d="m1044.82,936.78c0,2.98-.41,5.65-1.23,7.99-.82,2.35-1.99,4.34-3.5,5.97-1.51,1.63-3.36,2.89-5.53,3.76-2.17.87-4.61,1.31-7.33,1.31-2.12,0-4.29-.2-6.51-.61-2.22-.41-4.41-1.05-6.58-1.93v-48.43h6.22v13.91l-.29,6.65c1.79-2.41,3.7-4.11,5.74-5.1,2.04-.99,4.23-1.48,6.56-1.48,2.05,0,3.85.43,5.4,1.29s2.85,2.07,3.9,3.63c1.05,1.56,1.84,3.45,2.36,5.65.52,2.21.79,4.67.79,7.39Zm-6.37.29c0-1.88-.14-3.61-.41-5.19-.27-1.57-.71-2.92-1.31-4.04-.6-1.12-1.36-2-2.29-2.63s-2.04-.95-3.33-.95c-.79,0-1.59.12-2.4.38-.81.25-1.65.67-2.52,1.25-.87.58-1.79,1.36-2.75,2.32s-2,2.16-3.09,3.59v17.42c1.22.48,2.46.85,3.72,1.13,1.26.27,2.47.41,3.61.41,1.43,0,2.79-.23,4.09-.68,1.3-.45,2.44-1.21,3.43-2.27.99-1.06,1.78-2.47,2.36-4.22.58-1.75.88-3.93.88-6.53Z"/>
      <path class="cls-11" d="m1055.87,919.47h5.69l.18,6.62c2.12-2.55,4.21-4.4,6.28-5.54,2.06-1.14,4.14-1.72,6.24-1.72,3.72,0,6.54,1.2,8.46,3.61,1.92,2.41,2.81,5.99,2.67,10.73h-6.3c.07-3.15-.39-5.43-1.38-6.85-.99-1.42-2.44-2.13-4.35-2.13-.83,0-1.68.15-2.52.45-.85.3-1.72.77-2.61,1.43-.89.66-1.84,1.5-2.84,2.52-1,1.03-2.08,2.27-3.22,3.72v23.07h-6.29v-35.91Z"/>
      <path class="cls-11" d="m1117.75,955.38l-.14-4.83c-1.96,1.93-3.94,3.33-5.96,4.19-2.01.86-4.13,1.29-6.35,1.29-2.05,0-3.8-.26-5.26-.79-1.45-.52-2.65-1.25-3.59-2.16s-1.63-2-2.07-3.24c-.44-1.24-.66-2.59-.66-4.04,0-3.6,1.34-6.42,4.02-8.46s6.65-3.06,11.89-3.06h7.44v-3.15c0-2.12-.68-3.82-2.04-5.1-1.36-1.28-3.43-1.91-6.22-1.91-2.03,0-4.02.23-5.99.68-1.97.45-4,1.1-6.1,1.93v-5.62c.79-.29,1.66-.57,2.63-.84.97-.27,1.99-.52,3.06-.73,1.07-.21,2.19-.39,3.36-.52,1.17-.13,2.35-.2,3.54-.2,2.17,0,4.12.24,5.87.71,1.74.48,3.21,1.21,4.42,2.18s2.13,2.21,2.77,3.68.97,3.22.97,5.22v24.75h-5.58Zm-.68-16.35h-7.9c-1.55,0-2.89.16-4.01.46-1.12.31-2.04.75-2.75,1.32-.72.57-1.25,1.26-1.59,2.06-.35.8-.52,1.7-.52,2.7,0,.69.11,1.35.32,1.99s.56,1.19,1.04,1.68c.48.49,1.1.88,1.86,1.16.76.29,1.69.43,2.79.43,1.43,0,3.07-.43,4.92-1.3,1.85-.87,3.8-2.25,5.85-4.13v-6.37Z"/>
      <path class="cls-11" d="m1163.82,955.38h-6.22v-22.93c0-2.77-.52-4.83-1.56-6.21-1.04-1.37-2.52-2.06-4.45-2.06-.83,0-1.62.11-2.34.34s-1.48.62-2.27,1.18c-.79.56-1.65,1.32-2.58,2.27-.93.95-2,2.15-3.22,3.58v23.82h-6.22v-50.54h6.22v14.63l-.21,5.65c.98-1.17,1.94-2.15,2.88-2.95.94-.8,1.88-1.45,2.83-1.95.94-.5,1.9-.86,2.88-1.07.98-.21,1.99-.32,3.04-.32,3.58,0,6.34,1.09,8.3,3.27s2.93,5.47,2.93,9.85v23.43Z"/>
      <path class="cls-11" d="m1198.3,955.38l-.14-4.83c-1.96,1.93-3.94,3.33-5.96,4.19-2.01.86-4.13,1.29-6.35,1.29-2.05,0-3.8-.26-5.26-.79-1.45-.52-2.65-1.25-3.59-2.16s-1.63-2-2.07-3.24c-.44-1.24-.66-2.59-.66-4.04,0-3.6,1.34-6.42,4.02-8.46s6.65-3.06,11.89-3.06h7.44v-3.15c0-2.12-.68-3.82-2.04-5.1-1.36-1.28-3.43-1.91-6.22-1.91-2.03,0-4.02.23-5.99.68-1.97.45-4,1.1-6.1,1.93v-5.62c.79-.29,1.66-.57,2.63-.84.97-.27,1.99-.52,3.06-.73,1.07-.21,2.19-.39,3.36-.52,1.17-.13,2.35-.2,3.54-.2,2.17,0,4.12.24,5.87.71,1.74.48,3.21,1.21,4.42,2.18s2.13,2.21,2.77,3.68.97,3.22.97,5.22v24.75h-5.58Zm-.68-16.35h-7.9c-1.55,0-2.89.16-4.01.46-1.12.31-2.04.75-2.75,1.32-.72.57-1.25,1.26-1.59,2.06-.35.8-.52,1.7-.52,2.7,0,.69.11,1.35.32,1.99s.56,1.19,1.04,1.68c.48.49,1.1.88,1.86,1.16.76.29,1.69.43,2.79.43,1.43,0,3.07-.43,4.92-1.3,1.85-.87,3.8-2.25,5.85-4.13v-6.37Z"/>
      <path class="cls-11" d="m1241.11,955.38v-25.79c0-1.12-.04-2.04-.13-2.75-.08-.71-.21-1.28-.39-1.7-.18-.42-.41-.71-.68-.88-.27-.17-.61-.25-1.02-.25-.48,0-.92.14-1.32.43-.41.29-.84.75-1.31,1.4-.46.64-.98,1.5-1.54,2.56-.56,1.06-1.22,2.37-1.99,3.92v23.07h-5.69v-25.11c0-1.31-.04-2.37-.13-3.18s-.21-1.44-.39-1.9c-.18-.45-.41-.76-.7-.93-.29-.17-.63-.25-1.04-.25-.43,0-.83.12-1.22.36-.38.24-.8.67-1.27,1.29-.47.62-.98,1.47-1.56,2.54s-1.25,2.44-2.04,4.11v23.07h-5.72v-35.91h4.76l.29,6.83c.62-1.36,1.22-2.52,1.81-3.47.58-.95,1.19-1.72,1.81-2.31s1.28-1.01,1.99-1.29c.7-.27,1.48-.41,2.34-.41,1.93,0,3.4.63,4.4,1.9,1,1.26,1.5,3.22,1.5,5.87.57-1.24,1.13-2.34,1.68-3.31.55-.97,1.14-1.78,1.77-2.43.63-.66,1.33-1.16,2.09-1.5.76-.35,1.65-.52,2.65-.52,4.51,0,6.76,3.47,6.76,10.41v26.15h-5.72Z"/>
      <path class="cls-1" d="m1274.3,904.84l-1.04,16.78h-6.15l-1-16.78h8.19Z"/>
      <path class="cls-9" d="m523.5,996.53l-3.15,46.75h-8.26l-5.79-16.63-1.61-5.33-1.68,5.76-5.37,16.2h-7.98l-3.22-46.75h6.01l1.82,31.8.54,8.73,2.25-7.4,5.65-17.35h4.4l6.51,18.6,2.18,6.15.14-6.44,1.86-34.09h5.69Z"/>
      <path class="cls-9" d="m561.45,1043.28h-6.37v-21.46h-19.64v21.46h-6.37v-46.75h6.37v19.78h19.64v-19.78h6.37v46.75Z"/>
      <path class="cls-9" d="m599.15,1043.28h-26.58v-46.75h26.58v5.37h-20.21v14.49h19.42v5.37h-19.42v16.1h20.21v5.44Z"/>
      <path class="cls-9" d="m643.25,1043.28h-7.19l-6.97-14.95c-.52-1.14-1.06-2.09-1.61-2.84-.55-.75-1.14-1.35-1.77-1.79-.63-.44-1.32-.76-2.07-.95-.75-.19-1.59-.29-2.52-.29h-3v20.82h-6.37v-46.75h12.52c2.72,0,5.05.3,7.01.89,1.96.6,3.56,1.43,4.81,2.5s2.17,2.37,2.75,3.88c.58,1.51.88,3.19.88,5.03,0,1.45-.21,2.83-.64,4.13-.43,1.3-1.07,2.48-1.91,3.54-.85,1.06-1.9,1.98-3.15,2.75-1.25.78-2.69,1.35-4.31,1.74,1.31.45,2.43,1.25,3.34,2.38.92,1.13,1.85,2.64,2.81,4.53l7.4,15.38Zm-10.19-33.91c0-2.5-.78-4.38-2.34-5.62-1.56-1.24-3.76-1.86-6.6-1.86h-6.01v15.45h5.15c1.5,0,2.86-.17,4.06-.52s2.23-.86,3.08-1.54,1.5-1.51,1.97-2.5c.46-.99.7-2.13.7-3.42Z"/>
      <path class="cls-9" d="m679.7,1043.28h-26.58v-46.75h26.58v5.37h-20.21v14.49h19.42v5.37h-19.42v16.1h20.21v5.44Z"/>
      <path class="cls-1" d="m743.4,1001.9h-10.77v-5.37h27.97v5.37h-10.77v35.95h10.77v5.44h-27.97v-5.44h10.77v-35.95Z"/>
      <path class="cls-1" d="m770.66,1026.08c0-3.05.42-5.76,1.25-8.14.83-2.37,2.02-4.38,3.56-6.01,1.54-1.63,3.38-2.87,5.54-3.72,2.16-.85,4.56-1.27,7.21-1.27,1.14,0,2.27.07,3.38.21,1.11.14,2.2.37,3.27.68v-15.09h6.26v50.54h-5.58l-.21-6.8c-1.74,2.53-3.62,4.4-5.65,5.62-2.03,1.22-4.22,1.82-6.58,1.82-2.05,0-3.86-.43-5.42-1.29s-2.86-2.07-3.9-3.63c-1.04-1.56-1.82-3.44-2.34-5.63-.52-2.19-.79-4.63-.79-7.3Zm6.37-.39c0,4.34.64,7.58,1.91,9.71s3.08,3.2,5.42,3.2c1.57,0,3.24-.7,4.99-2.11,1.75-1.41,3.59-3.49,5.53-6.26v-16.67c-1.03-.48-2.16-.84-3.4-1.09-1.24-.25-2.47-.38-3.68-.38-3.39,0-6.03,1.1-7.92,3.29-1.9,2.19-2.84,5.63-2.84,10.3Z"/>
      <path class="cls-1" d="m882.82,1020.18h-30.76v-5.26h30.76v5.26Zm0,12.45h-30.76v-5.26h30.76v5.26Z"/>
      <path class="cls-3" d="m963.02,1029.08c0,2.05-.42,3.98-1.25,5.78-.83,1.8-2.09,3.38-3.76,4.72-1.67,1.35-3.77,2.41-6.29,3.18-2.53.77-5.47,1.16-8.83,1.16-1.86,0-3.53-.06-5.01-.18s-2.86-.27-4.15-.46v-5.58c1.48.26,3.04.46,4.69.61,1.65.14,3.33.21,5.04.21,2.34,0,4.33-.21,5.99-.63s3.01-1.02,4.06-1.81c1.05-.79,1.81-1.74,2.29-2.86.48-1.12.72-2.38.72-3.79,0-1.29-.29-2.41-.86-3.36s-1.38-1.75-2.42-2.4c-1.04-.64-2.28-1.13-3.72-1.45-1.44-.32-3.02-.48-4.74-.48h-5.33v-5.12h5.4c1.41,0,2.69-.18,3.84-.55,1.16-.37,2.15-.9,2.97-1.59.82-.69,1.45-1.54,1.9-2.56s.66-2.16.66-3.45c0-2.5-.76-4.33-2.29-5.47-1.53-1.14-3.77-1.72-6.72-1.72-1.57,0-3.2.16-4.86.46-1.67.31-3.46.78-5.37,1.39v-5.44c.81-.29,1.67-.54,2.59-.77s1.84-.42,2.75-.57,1.83-.27,2.74-.36c.91-.08,1.78-.12,2.61-.12,2.48,0,4.66.27,6.55.8,1.88.54,3.46,1.31,4.72,2.31,1.26,1,2.22,2.22,2.86,3.65.64,1.43.97,3.04.97,4.83,0,2.67-.69,4.91-2.06,6.72s-3.25,3.25-5.63,4.33c1.22.19,2.41.57,3.59,1.14,1.18.57,2.24,1.3,3.18,2.2s1.71,1.95,2.29,3.17c.58,1.22.88,2.56.88,4.04Z"/>
      <path class="cls-3" d="m1004.18,1031.55c0,1.98-.41,3.74-1.22,5.28s-1.94,2.83-3.4,3.88c-1.46,1.05-3.17,1.85-5.15,2.4-1.98.55-4.12.82-6.44.82-2.55,0-4.8-.29-6.74-.86-1.94-.57-3.57-1.37-4.88-2.4-1.31-1.02-2.3-2.24-2.97-3.65-.67-1.41-1-2.96-1-4.65,0-2.86.8-5.33,2.4-7.4,1.6-2.07,4.07-3.96,7.4-5.65-3.05-1.55-5.28-3.27-6.69-5.17-1.41-1.9-2.11-4.07-2.11-6.53,0-1.5.31-2.96.93-4.36.62-1.41,1.56-2.66,2.81-3.76,1.25-1.1,2.82-1.97,4.7-2.63,1.88-.66,4.1-.98,6.65-.98,2.41,0,4.53.26,6.35.77s3.36,1.25,4.6,2.2c1.24.95,2.17,2.11,2.79,3.47s.93,2.87.93,4.54c0,2.72-.76,5.03-2.27,6.94-1.51,1.91-3.67,3.58-6.46,5.01,1.38.69,2.67,1.45,3.86,2.29s2.23,1.76,3.11,2.79c.88,1.03,1.57,2.17,2.06,3.43.49,1.26.73,2.67.73,4.22Zm-6.76.46c0-.88-.14-1.74-.43-2.58s-.8-1.66-1.54-2.47c-.74-.81-1.73-1.62-2.97-2.43-1.24-.81-2.81-1.65-4.72-2.5-1.62.79-2.99,1.57-4.1,2.34-1.11.78-2,1.56-2.68,2.36-.68.8-1.16,1.63-1.45,2.49s-.43,1.76-.43,2.72c0,1.07.23,2.02.7,2.84.46.82,1.1,1.52,1.91,2.09s1.78,1,2.9,1.29c1.12.29,2.34.43,3.65.43s2.46-.13,3.58-.39c1.12-.26,2.09-.66,2.92-1.2.82-.54,1.47-1.22,1.95-2.04.48-.82.72-1.81.72-2.95Zm-.64-24.64c0-2.12-.75-3.7-2.24-4.74-1.49-1.04-3.58-1.56-6.28-1.56s-4.75.51-6.24,1.54-2.24,2.56-2.24,4.61c0,.93.18,1.79.54,2.58.36.79.91,1.53,1.66,2.22s1.69,1.37,2.81,2.04c1.12.67,2.46,1.35,4.01,2.04,2.69-1.26,4.7-2.58,6.01-3.95s1.97-2.96,1.97-4.78Z"/>
      <path class="cls-3" d="m1044.46,1031.55c0,1.98-.41,3.74-1.22,5.28s-1.94,2.83-3.4,3.88c-1.46,1.05-3.17,1.85-5.15,2.4-1.98.55-4.12.82-6.44.82-2.55,0-4.8-.29-6.74-.86-1.94-.57-3.57-1.37-4.88-2.4-1.31-1.02-2.3-2.24-2.97-3.65-.67-1.41-1-2.96-1-4.65,0-2.86.8-5.33,2.4-7.4,1.6-2.07,4.07-3.96,7.4-5.65-3.05-1.55-5.28-3.27-6.69-5.17-1.41-1.9-2.11-4.07-2.11-6.53,0-1.5.31-2.96.93-4.36.62-1.41,1.56-2.66,2.81-3.76,1.25-1.1,2.82-1.97,4.7-2.63,1.88-.66,4.1-.98,6.65-.98,2.41,0,4.53.26,6.35.77s3.36,1.25,4.6,2.2c1.24.95,2.17,2.11,2.79,3.47s.93,2.87.93,4.54c0,2.72-.76,5.03-2.27,6.94-1.51,1.91-3.67,3.58-6.46,5.01,1.38.69,2.67,1.45,3.86,2.29s2.23,1.76,3.11,2.79c.88,1.03,1.57,2.17,2.06,3.43.49,1.26.73,2.67.73,4.22Zm-6.76.46c0-.88-.14-1.74-.43-2.58s-.8-1.66-1.54-2.47c-.74-.81-1.73-1.62-2.97-2.43-1.24-.81-2.81-1.65-4.72-2.5-1.62.79-2.99,1.57-4.1,2.34-1.11.78-2,1.56-2.68,2.36-.68.8-1.16,1.63-1.45,2.49s-.43,1.76-.43,2.72c0,1.07.23,2.02.7,2.84.46.82,1.1,1.52,1.91,2.09s1.78,1,2.9,1.29c1.12.29,2.34.43,3.65.43s2.46-.13,3.58-.39c1.12-.26,2.09-.66,2.92-1.2.82-.54,1.47-1.22,1.95-2.04.48-.82.72-1.81.72-2.95Zm-.64-24.64c0-2.12-.75-3.7-2.24-4.74-1.49-1.04-3.58-1.56-6.28-1.56s-4.75.51-6.24,1.54-2.24,2.56-2.24,4.61c0,.93.18,1.79.54,2.58.36.79.91,1.53,1.66,2.22s1.69,1.37,2.81,2.04c1.12.67,2.46,1.35,4.01,2.04,2.69-1.26,4.7-2.58,6.01-3.95s1.97-2.96,1.97-4.78Z"/>
    </g>
    <g>
      <path class="cls-4" d="m696.41,1397.42c0-25.6-.8-47.6-1.6-65.6h52.8l2.8,27.2h.8c14.4-20.8,36.8-31.6,65.2-31.6,42.8,0,81.2,37.2,81.2,99.6,0,71.2-45.2,104.8-88.8,104.8-23.6,0-42-9.6-50.8-22.4h-.8v97.2h-60.8v-209.2Zm60.8,46c0,4.8.4,9.2,1.2,12.8,4,16.4,18,28.8,35.6,28.8,26.4,0,42-22,42-55.2,0-31.2-14-54.8-41.2-54.8-17.2,0-32.4,12.8-36.4,30.8-.8,3.2-1.2,7.2-1.2,10.8v26.8Z"/>
      <path class="cls-4" d="m1126.4,1243.43v225.6c0,22,.8,45.2,1.6,58.4h-54l-2.8-28.8h-.8c-12.4,22-36,33.2-61.2,33.2-46.4,0-83.6-39.6-83.6-100.4-.4-66,40.8-104,87.6-104,24,0,42.8,8.4,51.6,22h.8v-106h60.8Zm-60.8,171.2c0-3.2-.4-7.6-.8-10.8-3.6-16.4-16.8-30-35.6-30-27.6,0-42,24.8-42,55.6,0,33.2,16.4,54,41.6,54,17.6,0,31.6-12,35.2-29.2,1.2-4.4,1.6-8.8,1.6-14v-25.6Z"/>
      <path class="cls-4" d="m1175.2,1394.22c0-24.4-.8-45.2-1.6-62.4h51.2l2.8,26.4h1.2c8.4-12.4,25.6-30.8,59.2-30.8,25.2,0,45.2,12.8,53.6,33.2h.8c7.2-10,16-18,25.2-23.6,10.8-6.4,22.8-9.6,37.2-9.6,37.6,0,66,26.4,66,84.8v115.2h-59.2v-106.4c0-28.4-9.2-44.8-28.8-44.8-14,0-24,9.6-28,21.2-1.6,4.4-2.4,10.8-2.4,15.6v114.4h-59.2v-109.6c0-24.8-8.8-41.6-28-41.6-15.6,0-24.8,12-28.4,22-2,4.8-2.4,10.4-2.4,15.2v114h-59.2v-133.2Z"/>
      <path class="cls-4" d="m1611.59,1402.22v40.4h-104.8v-40.4h104.8Z"/>
      <path class="cls-4" d="m1715.99,1275.83v56h43.6v44.8h-43.6v70.8c0,23.6,5.6,34.4,24,34.4,7.6,0,13.6-.8,18-1.6l.4,46c-8,3.2-22.4,5.2-39.6,5.2-19.6,0-36-6.8-45.6-16.8-11.2-11.6-16.8-30.4-16.8-58v-80h-26v-44.8h26v-42.4l59.6-13.6Z"/>
      <path class="cls-4" d="m1985.99,1427.42c0,71.6-50.8,104.4-103.2,104.4-57.2,0-101.2-37.6-101.2-100.8s41.6-103.6,104.4-103.6,100,41.2,100,100Zm-141.6,2c0,33.6,14,58.8,40,58.8,23.6,0,38.8-23.6,38.8-58.8,0-29.2-11.2-58.8-38.8-58.8-29.2,0-40,30-40,58.8Z"/>
      <path class="cls-4" d="m2217.98,1427.42c0,71.6-50.8,104.4-103.2,104.4-57.2,0-101.2-37.6-101.2-100.8s41.6-103.6,104.4-103.6,100,41.2,100,100Zm-141.6,2c0,33.6,14,58.8,40,58.8,23.6,0,38.8-23.6,38.8-58.8,0-29.2-11.2-58.8-38.8-58.8-29.2,0-40,30-40,58.8Z"/>
      <path class="cls-4" d="m2255.58,1243.43h60.8v284h-60.8v-284Z"/>
      <path class="cls-4" d="m2365.18,1474.22c11.2,6.8,34.4,14.8,52.4,14.8s26-6.4,26-16.4-6-14.8-28.8-22.4c-40.4-13.6-56-35.6-55.6-58.8,0-36.4,31.2-64,79.6-64,22.8,0,43.2,5.2,55.2,11.2l-10.8,42c-8.8-4.8-25.6-11.2-42.4-11.2-14.8,0-23.2,6-23.2,16,0,9.2,7.6,14,31.6,22.4,37.2,12.8,52.8,31.6,53.2,60.4,0,36.4-28.8,63.2-84.8,63.2-25.6,0-48.4-5.6-63.2-13.6l10.8-43.6Z"/>
    </g>
    <g>
      <path class="cls-16" d="m2828.29,96.71h-131.53s-56.69-1.13-56.69,91.28,48.19,91.28,48.19,91.28h37.98v-45.36s-2.78-51.59,47.62-51.59h104.89s39.97,1.13,39.97-39.97V46.25s-3.69-45.92-76.26-45.92-30.61,0-30.61,0c0,0-75.4-6.8-75.4,41.39s0,43.66,0,43.66h91.28l.57,11.34Z"/>
      <path class="cls-2" d="m2830.58,279.91h131.53s56.69,1.13,56.69-91.28-48.19-91.28-48.19-91.28h-37.98v45.36s2.78,51.59-47.62,51.59h-104.88s-39.97-1.13-39.97,39.97v96.1s3.69,45.92,76.25,45.92,30.62,0,30.62,0c0,0,75.4,6.8,75.4-41.39s0-43.66,0-43.66h-91.28l-.57-11.34Z"/>
      <path class="cls-6" d="m2798.1,46.82c0,10.33-8.38,18.71-18.71,18.71s-18.71-8.38-18.71-18.71,8.38-18.71,18.71-18.71,18.71,8.38,18.71,18.71Z"/>
      <path class="cls-6" d="m2860.77,329.8c0-10.33,8.38-18.71,18.71-18.71s18.71,8.38,18.71,18.71-8.38,18.71-18.71,18.71-18.71-8.38-18.71-18.71Z"/>
    </g>
  </g>
</svg>